<?xml version="1.0" encoding="utf-8"?>
<!-- Generator: Adobe Illustrator 21.0.2, SVG Export Plug-In . SVG Version: 6.00 Build 0)  -->
<svg version="1.1" id="Layer_1" xmlns="http://www.w3.org/2000/svg" xmlns:xlink="http://www.w3.org/1999/xlink" x="0px" y="0px"
	 viewBox="0 0 125 100" style="enable-background:new 0 0 125 100;" xml:space="preserve">
<style type="text/css">
	.st0{fill:#FFFFFF;}
</style>
<g>
	<g>
		<g>
			<rect x="0.7" y="42.4" class="st0" width="51.5" height="0.8"/>
			<rect x="69.2" y="42.4" class="st0" width="52" height="0.8"/>
			<path class="st0" d="M8.3,45.8H8.1c-0.2,0.5-0.6,0.4-1,0.4H2.2c-0.2,0-0.4,0-0.6,0c-0.2,0-0.3-0.2-0.5-0.4H0.9l-0.3,2.9l0.3,0.1
				c0.5-1.8,1.3-2,2.9-2V52c0,2.3-0.2,2.2-1.7,2.5v0.4h5v-0.4c-1.6-0.3-1.7-0.2-1.7-2.5v-5.3c1.6,0,2.4,0.2,2.9,2l0.3-0.1L8.3,45.8z
				"/>
			<path class="st0" d="M14.4,53.2v-1.8c0-0.6,0-1.2-0.3-1.7c-0.3-0.4-0.8-0.7-1.2-0.7c-0.7,0-1.4,0.4-2,0.8v-2.5l0-1.5l-0.2-0.2
				l-1.9,0.9v0.2c0.7,0.6,0.7,0.4,0.7,1.2v5.2c0,1,0,1-0.9,1.3v0.3h3v-0.3c-0.8-0.3-0.8-0.3-0.8-1.3v-3c0.3-0.2,0.6-0.3,0.9-0.3
				c1.1,0,1.3,0.8,1.3,1.8v1.6c0,1,0,1-0.8,1.3v0.3h3v-0.3C14.4,54.3,14.4,54.2,14.4,53.2z"/>
			<path class="st0" d="M18.6,53.9c-1.4,0-2.1-1.3-2.1-2.7h3.4c0-1.4-0.8-2.2-2-2.2c-1.5,0-2.7,1.5-2.7,3c0,1.7,1.1,2.9,2.6,2.9
				c1,0,1.8-0.7,2.4-1.6l-0.3-0.2C19.5,53.6,19.1,53.9,18.6,53.9z M17.6,49.5c0.6,0,0.8,0.7,0.9,1.2l-1.9,0.1
				C16.7,50.2,17,49.5,17.6,49.5z"/>
			<path class="st0" d="M30.8,46.2h-3.6v0.4c1.1,0.2,1.6,0.2,1.7,1.5l0.1,3.1c0,1.6-0.2,3.1-2.1,3.1c-0.8,0-1.7-0.3-2.2-1.1
				c-0.4-0.6-0.3-1.6-0.3-2.4V49c0-1.7-0.1-2.3,1.5-2.5v-0.4h-4.6v0.4c1.4,0.3,1.5,0.2,1.5,2.5v2c0,1.1-0.1,2.3,0.7,3.1
				c0.7,0.7,1.8,0.9,2.7,0.9c1,0,2-0.3,2.7-1.1c0.7-0.8,0.7-1.9,0.7-2.9l0.1-1.9c0.1-2.1,0.1-2.3,1.2-2.6V46.2z"/>
			<path class="st0" d="M38.8,53.2v-2.6l0-1.5L38.6,49l-1.9,0.9V50c0.7,0.6,0.7,0.4,0.7,1.2v2c0,1,0,1-0.8,1.3
				c-0.8-0.2-0.8-0.3-0.8-1.3v-1.8c0-0.6,0-1.2-0.3-1.7c-0.3-0.4-0.8-0.7-1.2-0.7c-0.7,0-1.4,0.4-2.1,0.9l0.1-0.8L32,49l-1.9,0.9V50
				c0.7,0.6,0.7,0.4,0.7,1.2v2c0,1,0,1-0.9,1.3v0.3h3v-0.3c-0.8-0.3-0.8-0.3-0.8-1.3v-3c0.3-0.2,0.6-0.3,0.9-0.3
				c1.1,0,1.3,0.8,1.3,1.8v1.6c0,1,0,1-0.8,1.3v0.3h6.1v-0.3C38.8,54.2,38.8,54.3,38.8,53.2z"/>
			<ellipse class="st0" cx="58.8" cy="46.6" rx="0.6" ry="0.7"/>
			<ellipse class="st0" cx="38" cy="46.6" rx="0.6" ry="0.7"/>
			<path class="st0" d="M59.6,53.2v-2.6l0-1.5L59.4,49l-1.9,0.9V50c0.7,0.6,0.7,0.4,0.7,1.2v2c0,1,0,1-0.9,1.3v0.3h3.1v-0.3
				C59.6,54.2,59.6,54.3,59.6,53.2z"/>
			<path class="st0" d="M45,49.5v-0.3h-2.3v0.3c0.3,0.1,0.8,0.1,0.8,0.6c0,0.7-0.7,2.4-0.9,3.1l-1-2.5c-0.5-1.1-0.3-1.1,0.4-1.2
				v-0.3H39v0.3c0.7,0.3,0.6,0.1,1.1,1.2l1.7,4.2l0.5,0.1l1.5-3.6C44.2,50.1,44.3,49.7,45,49.5z"/>
			<path class="st0" d="M49,53.2c-0.4,0.4-0.7,0.7-1.3,0.7c-1.4,0-2.1-1.3-2.1-2.7h3.4c0-1.4-0.7-2.2-2-2.2c-1.5,0-2.7,1.5-2.7,3
				c0,1.7,1.1,2.9,2.6,2.9c1,0,1.8-0.7,2.4-1.6L49,53.2z M46.8,49.5c0.6,0,0.8,0.7,0.9,1.2l-1.9,0.1C45.9,50.2,46.2,49.5,46.8,49.5z
				"/>
			<path class="st0" d="M52.9,49c-0.8,0-1.4,0.9-1.8,1.5l0,0l0.1-1.4L51.1,49l-1.9,0.9V50c0.7,0.6,0.7,0.4,0.7,1.2v2
				c0,1,0,1-0.9,1.3v0.3h3.5v-0.3c-1.3-0.3-1.3-0.3-1.3-1.3v-1.5c0-0.5,0-1.4,0.7-1.4c0.3,0,0.6,0.4,0.8,0.7
				c0.4-0.2,0.9-0.7,0.9-1.2C53.7,49.4,53.3,49,52.9,49z"/>
			<path class="st0" d="M54.9,50.2c0-0.5,0.3-0.7,0.7-0.7c0.7,0,0.9,0.8,1.1,1.4l0.4-0.1v-1.3c-0.5-0.3-1-0.5-1.6-0.5
				c-0.9,0-1.9,0.6-1.9,1.7c0,1.7,2.4,1.6,2.4,2.9c0,0.5-0.3,0.9-0.7,0.9c-0.8,0-1.2-1-1.4-1.7l-0.4,0l0.1,1.6
				c0.5,0.3,1.1,0.5,1.8,0.5c0.9,0,2-0.6,2-1.7C57.4,51.5,54.9,51.5,54.9,50.2z"/>
			<path class="st0" d="M67.1,49.6c0.8,0.2,1.1,0.2,0.4,2.3l-0.5,1.6L66,51.2c-0.6-1.6-0.4-1.3,0.3-1.6v-0.3l-3.9,0v-1.5h-0.2
				l-2,1.9V50h0.9v3.1c0,1,0,1.9,1.1,1.9c0.4,0,0.7-0.1,1.1-0.1c0.4-0.1,0.7-0.2,1-0.3v-0.3h-0.4c-1.5,0-1.5-0.5-1.5-2V50H64
				c0.2,0.2,0.3,0.5,0.5,1.1l1.6,4.2c-0.2,0.3-0.7,1.8-1,1.8c-0.2,0-0.5-0.4-0.6-0.5c-0.4,0.1-0.8,0.4-0.8,0.9
				c0,0.5,0.4,0.9,0.8,0.9c0.6,0,0.9-0.5,1.1-1c0.8-1.5,1.5-3.8,2.2-5.6c0.6-1.5,0.7-1.9,1.5-2.2v-0.3h-2.4V49.6z"/>
			<path class="st0" d="M73.5,49c-1.6,0-3.1,1.2-3.1,3c0,1.9,1.5,2.9,3,2.9c1.6,0,3-1.2,3-3C76.5,50.2,75.1,49,73.5,49z M73.6,54.5
				c-1.2,0-1.6-1.6-1.6-2.6c0-1,0.4-2.4,1.5-2.4c1.2,0,1.5,1.6,1.5,2.7C75,53.1,74.7,54.5,73.6,54.5z"/>
			<path class="st0" d="M80.1,45.7c-1.8,0-2.9,1.5-2.9,3.4l-1,0.6V50h1v3.2c0,1,0,1-1,1.3v0.3h3.6v-0.3c-1.3-0.3-1.3-0.3-1.3-1.3V50
				h1.6v-0.7h-1.6c0-0.5-0.1-3.1,0.7-3.1c0.5,0,1,0.7,1.2,1.1c0.4,0,1-0.2,1-0.8C81.5,45.9,80.6,45.7,80.1,45.7z"/>
			<path class="st0" d="M87.1,51c1.6,0.2,1.7,0.4,1.7,2v0.7c-0.1,0.5,0,0.7-0.9,0.7c-2.2,0-3.6-1.9-3.6-4.3c0-1.9,1-3.6,2.9-3.6
				c1.5,0,2.4,1,2.8,2.5h0.3v-2.4c-1-0.4-1.9-0.7-2.9-0.7c-2.5,0-4.9,1.6-4.9,4.7c0,2.7,2.2,4.4,4.6,4.4c1.3,0,2.7-0.4,3.9-0.9v-0.3
				h-0.6v-1.5c0-0.9,0.1-1,0.9-1.3v-0.4h-4.1V51z"/>
			<path class="st0" d="M94.9,53.9c-1.4,0-2.1-1.3-2.1-2.7h3.4c0-1.4-0.7-2.2-2-2.2c-1.5,0-2.7,1.5-2.7,3c0,1.7,1.1,2.9,2.6,2.9
				c1,0,1.8-0.7,2.4-1.6l-0.3-0.2C95.8,53.6,95.5,53.9,94.9,53.9z M94,49.5c0.6,0,0.8,0.7,0.9,1.2l-1.9,0.1
				C93,50.2,93.3,49.5,94,49.5z"/>
			<path class="st0" d="M99.7,49c-1.6,0-3.1,1.2-3.1,3c0,1.9,1.5,2.9,3,2.9c1.6,0,3-1.2,3-3C102.7,50.2,101.3,49,99.7,49z
				 M99.8,54.5c-1.2,0-1.6-1.6-1.6-2.6c0-1,0.4-2.4,1.5-2.4c1.2,0,1.5,1.6,1.5,2.7C101.2,53.1,100.9,54.5,99.8,54.5z"/>
			<path class="st0" d="M105.6,50.3c0.3,0,0.6,0.4,0.8,0.7c0.4-0.2,0.9-0.7,0.9-1.2c0-0.4-0.4-0.7-0.7-0.7c-0.8,0-1.4,0.9-1.8,1.5
				l0,0l0.1-1.4l-0.2-0.2l-1.9,0.9V50c0.7,0.6,0.7,0.4,0.7,1.2v2c0,1,0,1-0.9,1.3v0.3h3.5v-0.3c-1.3-0.3-1.3-0.3-1.3-1.3v-1.5
				C104.9,51.2,104.9,50.3,105.6,50.3z"/>
			<path class="st0" d="M115.1,53.2l0-2.6l0-1.6l-0.3-0.2l-1.7,0.7l-0.1,0l-1.9,0c-0.5-0.3-1-0.4-1.6-0.4c-1.1,0-2.4,0.7-2.4,2.1
				c0,0.8,0.5,1.4,1.2,1.7c-0.4,0.4-1.2,0.8-1.2,1.3c0,0.7,0.8,1,1.3,1.1v0c-0.6,0.3-1.6,0.8-1.6,1.5c0,1.1,1.2,1.4,2,1.4
				c1.4,0,4-0.9,4-2.7c0-2.6-4.4-0.6-4.4-1.9c0-0.2,0.1-0.4,0.2-0.5c0.3,0.1,0.5,0.1,0.8,0.1c1.1,0,2.3-0.7,2.3-2.1
				c0-0.3-0.1-0.6-0.2-0.8l1.4,0c0.5,0,0.8,0.3,0.8,1.1v2c0,1,0,1-0.9,1.3v0.3h3.1v-0.3C115.1,54.2,115.1,54.3,115.1,53.2z
				 M108.8,55.3l1.5-0.1c0.6,0,1.3,0.1,1.3,1c0,1-1.1,1.3-1.9,1.3c-0.6,0-1.7-0.3-1.7-1.2C108.1,55.9,108.5,55.5,108.8,55.3z
				 M109.5,52.8c-0.8,0-1-1.1-1-1.7c0-0.5,0.2-1.4,0.9-1.4c0.8,0,1,1.1,1,1.7C110.4,51.9,110.2,52.8,109.5,52.8z"/>
			<path class="st0" d="M120.2,53.2v-1.5c0-1.1-0.1-2.7-1.4-2.7c-1.1,0-2.7,1.4-2.7,1.9c0,0.2,0.2,0.2,0.3,0.2l1-0.1v-0.2
				c0-0.5-0.1-0.9,0.5-0.9c1,0,1,0.9,1,1.9l-2.7,1.2c-0.1,0.2-0.1,0.4-0.1,0.7c0,0.8,0.5,1.4,1.2,1.4c0.6,0,1.1-0.3,1.6-0.7
				c0.1,0.5,0.3,0.7,0.8,0.7c0.4,0,1-0.3,1.5-0.4v-0.3C120.4,54,120.2,54.1,120.2,53.2z M118.9,54c-0.2,0.2-0.4,0.3-0.6,0.3
				c-0.5,0-0.7-0.4-0.7-0.9c0-0.2,0-0.4,0.1-0.6l1.3-0.7V54z"/>
			<ellipse class="st0" cx="114.1" cy="46.6" rx="0.6" ry="0.7"/>
		</g>
		<g>
			<rect x="0.7" y="60.5" class="st0" width="120.5" height="0.8"/>
			<path class="st0" d="M66.4,41.8c0.1,0,0.2-0.3,0.1-0.4H66l-0.5,0.7c0.2,0.3,0.6,0.6,0.5,1.1c-0.1,0.5-0.5,0.1-0.7,0.3
				c0,0.1,0,0.2,0.1,0.2c0.4,0,0.7-0.1,0.9-0.5c0.1-0.2,0.1-0.4,0-0.6c-0.1-0.2-0.4-0.4-0.4-0.6l0.1-0.1
				C66,41.8,66.3,41.8,66.4,41.8z"/>
			<path class="st0" d="M54.7,40.6L54.7,40.6l12,0c2.4-2,3.7-4.7,3.7-7.4c0-2.6-1-5-2.8-6.8c-1.8-1.8-4.3-2.8-6.8-2.8
				c-5.3,0-9.7,4.3-9.7,9.7C51.1,35.9,52.4,38.6,54.7,40.6z M60.3,38.4c0,0,0,0.1-0.1,0.2c-0.1,0.1-0.2,0.1-0.2,0.1v0.4h-2.7v-0.4
				c0,0-0.1,0-0.2-0.1c-0.1-0.1-0.1-0.2-0.1-0.2v-8h0.2c0,0,0-0.5,0-0.8c0-0.3,0.3-0.4,0.3-0.4v-0.2h2.2v0.2c0,0,0.3,0,0.3,0.4
				c0,0.3,0,0.8,0,0.8h0.2V38.4z M64.5,38.4c0,0,0,0.1-0.1,0.2c-0.1,0.1-0.2,0.1-0.2,0.1v0.4h-2.7v-0.4c0,0-0.1,0-0.2-0.1
				c-0.1-0.1-0.1-0.2-0.1-0.2v-8h0.2c0,0,0-0.5,0-0.8c0-0.3,0.3-0.4,0.3-0.4v-0.2H64v0.2c0,0,0.3,0,0.3,0.4c0,0.3,0,0.8,0,0.8h0.2
				V38.4z M57,28.5c0.2-0.6,0.6-1.2,1.2-1.6c0.7-0.5,1.6-0.8,2.6-0.8c1,0,1.9,0.2,2.6,0.8c0.6,0.4,1,1,1.2,1.6H57z M54.1,26.5
				c1.8-1.8,4.2-2.8,6.7-2.8c2.5,0,4.9,1,6.7,2.8c1.8,1.8,2.8,4.2,2.8,6.7c0,2.6-1.3,5.2-3.7,7.2V40h-0.3v-0.5H66v-0.4h-0.3v-0.4
				c0,0-0.1,0-0.2-0.1c-0.1-0.1-0.1-0.3-0.1-0.3l0-7.9h0.1c0,0,0-0.5,0-0.8c0-0.4,0.3-0.4,0.3-0.4v-0.2l-0.1,0
				c0-0.1,0.1-0.2,0.2-0.2l0,0v-0.5h-0.8c-0.5-1.7-2.3-2.9-4.4-2.9c-2.1,0-3.8,1.2-4.4,2.9h-0.9v0.5c0,0,0.1,0,0.2,0.1
				c0.1,0,0.1,0.1,0.1,0.1h-0.1v0.2c0.3,0,0.3,0.4,0.3,0.4v0.8h0.1l0,7.8c0,0,0,0.2-0.1,0.3c-0.1,0.1-0.3,0.1-0.3,0.1v0.4h-0.3v0.4
				h-0.4V40h-0.3v0.5c-2.3-1.9-3.5-4.6-3.5-7.2C51.3,30.7,52.3,28.3,54.1,26.5z"/>
			<path class="st0" d="M55.9,42c0.1-0.3,0.1-0.3,0.4-0.4l0.1,0c0,0,0.1-0.1,0-0.1c-0.1,0-0.3,0-0.5,0c-0.2,0-0.4,0-0.6,0
				c-0.1,0-0.1,0.1,0,0.1l0.1,0c0.2,0,0.2,0.1,0.1,0.4l-0.3,0.8c-0.1,0.3-0.1,0.3-0.3,0.3l-0.2,0c0,0,0,0.1,0,0.1c0.1,0,0.4,0,0.6,0
				c0.2,0,0.4,0,0.6,0c0,0,0-0.1,0-0.1l-0.2,0c-0.2,0-0.2-0.1-0.1-0.3L55.9,42z"/>
			<path class="st0" d="M58.2,43.7C58.2,43.7,58.2,43.7,58.2,43.7l1.1-1.5c0.3-0.4,0.4-0.6,0.5-0.7c0,0,0,0,0-0.1c0,0-0.3,0-0.4,0
				h-1c-0.1,0.1-0.2,0.3-0.2,0.5c0,0,0.1,0.1,0.1,0c0.1-0.1,0.1-0.2,0.4-0.2h0.7l-1.3,1.8C58.1,43.7,58.1,43.7,58.2,43.7z"/>
			<path class="st0" d="M63.1,41.9c0-0.3-0.2-0.5-0.5-0.5c-0.4,0-0.7,0.3-0.7,0.7c0,0.1,0.1,0.3,0.2,0.5c-0.3,0.2-0.6,0.4-0.6,0.7
				c0,0.2,0.2,0.5,0.6,0.5c0.5,0,0.8-0.3,0.8-0.7c0-0.2-0.1-0.4-0.3-0.6C62.8,42.4,63.1,42.2,63.1,41.9z M62.1,43.6
				c-0.2,0-0.3-0.2-0.3-0.3c0-0.2,0.1-0.4,0.4-0.6c0.2,0.2,0.2,0.3,0.2,0.6C62.5,43.4,62.3,43.6,62.1,43.6z M62.5,42.4
				c-0.1-0.1-0.2-0.3-0.2-0.4c0-0.3,0.2-0.4,0.3-0.4c0.2,0,0.2,0.2,0.2,0.3C62.8,42.1,62.7,42.3,62.5,42.4z"/>
		</g>
	</g>
	<g>
		<path class="st0" d="M124,61.7c-0.2,0.2-0.5,0.4-0.9,0.4c-0.3,0-0.6-0.1-0.9-0.4c-0.2-0.2-0.3-0.5-0.3-0.9c0-0.3,0.1-0.6,0.4-0.8
			c0.2-0.2,0.5-0.4,0.8-0.4c0.3,0,0.6,0.1,0.9,0.4c0.2,0.2,0.4,0.5,0.4,0.8C124.4,61.1,124.3,61.4,124,61.7z M122.4,60.1
			c-0.2,0.2-0.3,0.4-0.3,0.7c0,0.3,0.1,0.5,0.3,0.7c0.2,0.2,0.4,0.3,0.7,0.3c0.3,0,0.5-0.1,0.7-0.3c0.2-0.2,0.3-0.4,0.3-0.7
			c0-0.3-0.1-0.5-0.3-0.7c-0.2-0.2-0.4-0.3-0.7-0.3C122.9,59.8,122.6,59.9,122.4,60.1z M123.2,60.1c0.2,0,0.3,0,0.4,0
			c0.1,0.1,0.2,0.2,0.2,0.3c0,0.1,0,0.2-0.1,0.3c0,0-0.1,0-0.2,0.1c0.1,0,0.2,0.1,0.2,0.1c0,0.1,0.1,0.1,0.1,0.2v0.1
			c0,0,0,0.1,0,0.1c0,0,0,0.1,0,0.1l0,0h-0.2c0,0,0,0,0,0c0,0,0,0,0,0l0,0v-0.1c0-0.2,0-0.3-0.1-0.3c0,0-0.1,0-0.3,0h-0.2v0.5h-0.2
			v-1.3H123.2z M123.4,60.3c-0.1,0-0.2,0-0.3,0h-0.2v0.5h0.2c0.1,0,0.2,0,0.2,0c0.1,0,0.1-0.1,0.1-0.2
			C123.5,60.4,123.5,60.4,123.4,60.3z"/>
	</g>
</g>
</svg>
