<?xml version="1.0" encoding="utf-8"?>
<!-- Generator: Adobe Illustrator 21.0.2, SVG Export Plug-In . SVG Version: 6.00 Build 0)  -->
<svg version="1.1" id="Layer_1" xmlns="http://www.w3.org/2000/svg" xmlns:xlink="http://www.w3.org/1999/xlink" x="0px" y="0px"
	 viewBox="0 0 125 100" style="enable-background:new 0 0 125 100;" xml:space="preserve">
<style type="text/css">
	.st0{fill:#FFFFFF;}
</style>
<path class="st0" d="M25,37.4c0-0.5-0.1-0.7-0.5-0.7h-0.6c-0.1,0-0.1,0-0.1-0.1v-0.3c0-0.1,0-0.1,0.1-0.1c0.1,0,0.8,0,2.1,0
	c1.1,0,1.8,0,2,0c0.1,0,0.1,0,0.1,0.1v0.3c0,0.1,0,0.1-0.1,0.1h-0.6c-0.4,0-0.7,0.2-0.7,0.5c0,0.2,0,1,0,1.8v1.7c0,0.7,0,1.6,0,2.1
	c0,0.6,0.1,1.2,0.5,1.7c0.5,0.6,1.2,0.8,1.8,0.8c0.6,0,1.4-0.2,1.8-0.7c0.5-0.5,0.8-1.3,0.8-2.3v-2.4c0-1.1-0.1-2.3-0.1-2.6
	c0-0.4-0.3-0.6-0.6-0.6h-0.5c-0.1,0-0.1,0-0.1-0.1v-0.3c0-0.1,0-0.1,0.1-0.1c0.1,0,0.8,0,1.7,0c0.8,0,1.3,0,1.4,0
	c0.1,0,0.1,0,0.1,0.1v0.3c0,0.1,0,0.1-0.1,0.1h-0.5c-0.5,0-0.5,0.4-0.6,0.5c0,0.2,0,2.1,0,2.2c0,0.2,0,2.6-0.1,3.1
	c-0.1,1.1-0.4,2-1.1,2.6c-0.6,0.5-1.4,0.8-2.5,0.8c-0.7,0-1.4-0.1-2-0.3c-0.8-0.3-1.3-1-1.6-1.8c-0.2-0.6-0.2-1.5-0.2-3.3V37.4z"/>
<path class="st0" d="M34.1,42.8c0.1,0,0.1,0,0.1,0.1c0,0.4,0.1,1,0.5,1.5c0.4,0.7,1.1,1,1.8,1c0.7,0,1.8-0.5,1.8-1.6
	c0-1.2-0.6-1.7-2-2.2c-0.4-0.2-1.3-0.5-2-1.1c-0.5-0.4-0.7-1.1-0.7-1.9c0-0.8,0.3-1.4,1-1.9c0.5-0.5,1.1-0.7,1.9-0.7
	c0.9,0,1.4,0.2,1.7,0.3c0.1,0.1,0.2,0,0.3,0l0.2-0.2c0.1-0.1,0.1-0.1,0.2-0.1c0.1,0,0.1,0.1,0.1,0.2c0,0.2,0.2,2.1,0.2,2.3
	c0,0.1,0,0.1-0.1,0.1l-0.2,0.1c-0.1,0-0.1,0-0.1-0.1c-0.1-0.4-0.4-0.9-0.8-1.4c-0.4-0.4-0.8-0.6-1.4-0.6c-1.1,0-1.5,0.9-1.5,1.4
	c0,0.5,0.1,0.9,0.4,1.2c0.4,0.4,1.1,0.7,1.7,0.8c0.8,0.2,1.4,0.5,2,1.1c0.4,0.5,0.7,1,0.7,1.9c0,1.7-1.1,3-2.9,3
	c-1.1,0-1.8-0.2-2.3-0.7c-0.2-0.1-0.2-0.2-0.3-0.2c-0.1,0-0.1,0.1-0.2,0.2c-0.1,0.1-0.1,0.2-0.2,0.2c-0.1,0-0.2-0.1-0.2-0.2
	c0-0.2,0.2-2.4,0.2-2.5c0-0.1,0-0.1,0.1-0.1L34.1,42.8z"/>
<path class="st0" d="M49.2,43.6c0,0,0.1,0.1,0,0.1c-0.8,1.2-2.1,2.3-4,2.3c-1.7,0-2.7-0.5-3.6-1.3c-1-0.9-1.5-2.5-1.5-3.7
	c0-1.3,0.4-2.6,1.4-3.6c0.7-0.8,1.9-1.4,3.5-1.4c1.2,0,2.3,0.4,2.7,0.7c0.2,0.1,0.2,0.1,0.3,0l0.1-0.4c0-0.1,0.1-0.1,0.2-0.1
	s0.2,0,0.2,0.2c0,0.2,0.3,2.4,0.3,2.8c0,0.1,0,0.1-0.1,0.1l-0.3,0.1c-0.1,0-0.1,0-0.1-0.1c-0.2-0.5-0.5-1.2-1.1-1.8
	c-0.6-0.6-1.3-1-2.4-1c-2.2,0-3.1,2-3.1,3.9c0,0.8,0.2,2.4,1.2,3.5c0.9,1,1.7,1.1,2.3,1.1c1.5,0,2.7-0.7,3.2-1.6
	c0.1-0.1,0.1-0.1,0.2-0.1L49.2,43.6z"/>
<path class="st0" d="M53.4,45.7c-0.9-0.4-1.4-1-1.6-1.8c-0.2-0.6-0.2-1.5-0.2-3.3v-3.2c0-0.5-0.1-0.7-0.5-0.7h-0.6
	c-0.1,0-0.1,0-0.1-0.1v-0.3c0-0.1,0-0.1,0.1-0.1c0.1,0,0.8,0,1.9,0c1.1,0,1.7,0,1.9,0c0.1,0,0.1,0,0.1,0.1v0.4c0,0.1,0,0.1-0.1,0.1
	h-0.7c-0.4,0-0.6,0.3-0.7,0.6c0,0.1,0,1.1,0,1.8v0.9c0,0.7,0.1,2.4,0.1,2.9c0,0.6,0.1,1.3,0.4,1.7c0.5,0.7,1.4,1,2.2,1
	c0.8,0,1.6-0.3,2-0.7c0.5-0.6,0.7-1.4,0.7-2.4v-2.9c0-1,0-1.8-0.1-2.2c0-0.4-0.3-0.6-0.6-0.6h-0.6c-0.1,0-0.1,0-0.1-0.1v-0.3
	c0-0.1,0-0.1,0.1-0.1c0.1,0,0.8,0,1.7,0c0.9,0,1.4,0,1.5,0c0.1,0,0.1,0.1,0.1,0.1v0.3c0,0.1,0,0.1-0.1,0.1h-0.6
	c-0.5,0-0.5,0.4-0.6,0.5c0,0.1,0,2.1,0,2.3c0,0.2,0,2.6-0.1,3.1c-0.1,1.1-0.4,2-1.1,2.6c-0.5,0.5-1.4,0.8-2.6,0.8
	C54.5,46,53.8,45.9,53.4,45.7"/>
<path class="st0" d="M65.1,45.1c0,0.2,0.1,0.3,0.3,0.3h0.4c0.1,0,0.1,0,0.1,0.1v0.2c0,0.1,0,0.1-0.1,0.1c-0.1,0-0.5,0-1.3,0
	c-0.7,0-1.1,0-1.2,0c-0.1,0-0.1,0-0.1-0.1v-0.2c0-0.1,0-0.1,0.2-0.1h0.4c0.1,0,0.3-0.1,0.3-0.3c0-0.4,0-0.8,0-1.1v-1.8
	c0-0.5,0-0.9-0.4-1.2c-0.3-0.2-0.7-0.2-1-0.2c-0.2,0-0.7,0.1-1.1,0.5c-0.3,0.3-0.3,0.7-0.3,0.9v2.8c0,0.4,0,0.4,0.3,0.4H62
	c0.1,0,0.1,0,0.1,0.1v0.2c0,0.1,0,0.1-0.1,0.1c-0.1,0-0.5,0-1.2,0c-0.7,0-1.1,0-1.2,0c-0.1,0-0.1,0-0.1-0.1v-0.2
	c0-0.1,0-0.1,0.1-0.1H60c0.2,0,0.3,0,0.3-0.3v-3.2c0-0.4-0.2-0.6-0.6-0.8l-0.1-0.1c-0.1,0-0.1-0.1-0.1-0.1v-0.1
	c0-0.1,0.1-0.1,0.1-0.1l1.2-0.7C60.9,40,61,40,61.1,40c0.1,0,0.1,0.1,0.1,0.2l0.1,0.8h0c0.4-0.5,1.2-1,1.9-1c0.4,0,0.8,0.1,1.2,0.3
	c0.4,0.3,0.7,1,0.7,1.3V45.1z"/>
<path class="st0" d="M67.3,41.9c0-0.5-0.1-0.7-0.8-0.8c-0.1,0-0.1,0-0.1-0.1v-0.1c0,0,0-0.1,0.1-0.1c0.4-0.2,1-0.4,1.5-0.7
	c0.1-0.1,0.2-0.1,0.3-0.1c0.1,0,0.1,0.1,0.1,0.2c0,0.2,0,1.1,0,2.2v1.5c0,0.5,0,1,0,1.2c0,0.3,0.1,0.4,0.2,0.4h0.6
	c0.1,0,0.1,0,0.1,0.1v0.2c0,0.1,0,0.1-0.1,0.1c-0.1,0-0.7,0-1.3,0c-0.8,0-1.3,0-1.5,0c-0.1,0-0.1,0-0.1-0.1v-0.3
	c0-0.1,0-0.1,0.1-0.1h0.7c0.1,0,0.2-0.1,0.2-0.3c0-0.4,0-0.8,0-1.2V41.9z M66.7,37.7c0-0.3,0.3-0.7,0.8-0.7c0.5,0,0.7,0.4,0.7,0.7
	c0,0.4-0.2,0.7-0.8,0.7C67.2,38.4,66.7,38.2,66.7,37.7"/>
<path class="st0" d="M72.2,44.6L72.2,44.6c0.3-0.5,1.2-2.9,1.3-3.4c0.1-0.4,0-0.6-0.2-0.6H73c0,0-0.1-0.1-0.1-0.1v-0.2
	c0-0.1,0-0.1,0.1-0.1c0.2,0,0.5,0,1.1,0c0.5,0,0.9,0,1,0c0.1,0,0.1,0,0.1,0.1v0.2c0,0.1,0,0.1-0.1,0.1h-0.3c-0.2,0-0.3,0-0.4,0.1
	c-0.2,0.2-0.9,1.7-1.1,2.2c-0.2,0.4-1.2,2.7-1.2,2.8C72,45.9,72,46,71.8,46c-0.1,0-0.2-0.1-0.3-0.3c0-0.1-1-2.6-1.1-2.8
	c0-0.1-0.6-1.7-0.7-1.9c-0.2-0.4-0.3-0.5-0.6-0.5h-0.3c-0.1,0-0.1-0.1-0.1-0.1v-0.2c0-0.1,0-0.1,0.1-0.1c0.1,0,0.4,0,1.1,0
	c0.7,0,1.1,0,1.2,0c0.1,0,0.1,0,0.1,0.1v0.2c0,0.1,0,0.1-0.1,0.1h-0.3c-0.1,0-0.2,0.1-0.2,0.3c0,0.2,0.4,1.4,0.4,1.6
	C71.4,42.7,72,44.3,72.2,44.6"/>
<path class="st0" d="M75.8,42.2c0,0.1,0,0.3,0,0.7c0,1.3,0.8,2.3,1.9,2.3c0.8,0,1.4-0.5,1.6-0.9c0-0.1,0.1-0.1,0.1-0.1l0.2,0.1
	c0,0,0.1,0.1,0,0.2c-0.2,0.5-1,1.5-2.2,1.5c-0.8,0-1.6-0.2-2.1-1c-0.5-0.7-0.6-1.2-0.6-2.1c0-0.5,0.1-1.4,0.9-2.2
	c0.6-0.6,1.3-0.7,1.9-0.7c1.6,0,2,1.5,2,2c0,0.2-0.2,0.2-0.4,0.2H75.8z M78,41.8c0.3,0,0.4-0.1,0.4-0.2c0-0.3-0.2-1.2-1-1.2
	c-0.6,0-1.2,0.4-1.4,1.4H78z"/>
<path class="st0" d="M80.8,42.2c0-0.7-0.1-0.8-0.5-1L80.1,41C80,41,80,41,80,40.9v-0.1c0-0.1,0-0.1,0.1-0.1l1.3-0.7
	c0.1,0,0.1-0.1,0.2-0.1c0.1,0,0.1,0.1,0.1,0.2l0.1,0.9h0.1c0.4-0.6,1-1.2,1.6-1.2c0.5,0,0.7,0.3,0.7,0.6c0,0.4-0.3,0.7-0.6,0.7
	c-0.1,0-0.3-0.1-0.4-0.1C83.1,41,82.9,41,82.8,41c-0.2,0-0.6,0.1-0.8,0.6c-0.1,0.1-0.1,0.4-0.1,0.4v2.9c0,0.4,0.1,0.6,0.4,0.6h0.6
	c0.1,0,0.1,0,0.1,0.1v0.2c0,0.1,0,0.1-0.1,0.1c-0.1,0-0.7,0-1.4,0c-0.8,0-1.4,0-1.5,0c-0.1,0-0.1,0-0.1-0.1v-0.2
	c0-0.1,0-0.1,0.1-0.1h0.5c0.2,0,0.3-0.1,0.3-0.3c0-0.4,0-0.9,0-1.6V42.2z"/>
<path class="st0" d="M84.5,45.6c-0.1,0-0.1-0.1-0.1-0.2l-0.2-1.3c0-0.1,0-0.1,0.1-0.1l0.2,0c0.1,0,0.1,0,0.1,0.1l0.3,0.7
	c0.3,0.5,0.5,0.8,1.2,0.8c0.5,0,1.1-0.3,1.1-0.9c0-0.6-0.3-1-1.3-1.2c-0.8-0.2-1.6-0.7-1.6-1.7c0-0.9,0.9-1.7,1.9-1.7
	c0.7,0,1,0.2,1.2,0.3c0.2,0.1,0.2,0.2,0.2,0.2l0.2,1c0,0.1,0,0.1-0.1,0.1l-0.2,0.1c-0.1,0-0.1,0-0.1-0.1L87,40.9
	c-0.2-0.3-0.4-0.5-1-0.5c-0.5,0-1,0.3-1,0.9c0,0.8,0.6,0.9,1.3,1.1c1,0.3,1.6,0.7,1.6,1.7c0,1.1-0.9,1.8-2.1,1.8
	C85.2,46,84.7,45.7,84.5,45.6"/>
<path class="st0" d="M89.3,41.9c0-0.5-0.1-0.7-0.8-0.8c-0.1,0-0.1,0-0.1-0.1v-0.1c0,0,0-0.1,0.1-0.1c0.4-0.2,1-0.4,1.5-0.7
	c0.1-0.1,0.2-0.1,0.3-0.1c0.1,0,0.1,0.1,0.1,0.2c0,0.2,0,1.1,0,2.2v1.5c0,0.5,0,1,0,1.2c0,0.3,0.1,0.4,0.2,0.4h0.6
	c0.1,0,0.1,0,0.1,0.1v0.2c0,0.1,0,0.1-0.1,0.1c-0.1,0-0.7,0-1.3,0c-0.8,0-1.3,0-1.5,0c-0.1,0-0.1,0-0.1-0.1v-0.3
	c0-0.1,0-0.1,0.1-0.1h0.7c0.1,0,0.2-0.1,0.2-0.3c0-0.4,0-0.8,0-1.2V41.9z M88.7,37.7c0-0.3,0.3-0.7,0.8-0.7c0.5,0,0.7,0.4,0.7,0.7
	c0,0.4-0.2,0.7-0.8,0.7C89.1,38.4,88.7,38.2,88.7,37.7"/>
<path class="st0" d="M93,44.1c0,1,0.5,1.2,0.7,1.2c0.3,0,0.7-0.1,0.9-0.2c0.1,0,0.1,0,0.2,0l0.1,0.1c0,0.1,0,0.1,0,0.1
	c-0.1,0.1-0.7,0.5-1.5,0.5c-0.7,0-1.3-0.6-1.3-1.2c0-0.6,0-1.8,0-1.9v-0.3c0-0.2,0-1.2,0-1.7h-0.8c-0.1,0-0.2-0.1-0.2-0.2
	c0-0.1,0.1-0.1,0.2-0.2c0.3-0.2,1.4-1.2,1.5-1.7c0-0.1,0.1-0.1,0.2-0.1c0.1,0,0.1,0.1,0.1,0.2l-0.1,1.3H95c0.1,0,0.1,0.1,0.1,0.1
	l-0.1,0.5c0,0.1,0,0.1-0.1,0.1h-1.8c0,0.6,0,1.3,0,1.9V44.1z"/>
<path class="st0" d="M95.3,48.8c0-0.3,0.3-0.5,0.6-0.5c0.3,0,0.5,0.1,0.6,0.1c0.1,0,0.2,0,0.3-0.1c0.2-0.2,0.9-1.8,1.1-2.3
	c-0.1-0.3-1.5-4.6-1.6-4.9c-0.2-0.3-0.3-0.6-0.6-0.6h-0.4c-0.1,0-0.1,0-0.1-0.1v-0.3c0-0.1,0-0.1,0.1-0.1c0.1,0,0.4,0,1.3,0
	c0.7,0,1.1,0,1.3,0c0.1,0,0.1,0,0.1,0.1v0.3c0,0.1,0,0.1-0.1,0.1h-0.3c-0.1,0-0.2,0.1-0.2,0.3c0,0.3,1,3.3,1.1,3.6h0.1
	c0.1-0.2,1.3-3,1.4-3.4c0.1-0.3,0-0.5-0.2-0.5h-0.2c-0.1,0-0.1,0-0.1-0.1v-0.3c0-0.1,0-0.1,0.1-0.1c0.2,0,0.5,0,1.1,0
	c0.4,0,0.7,0,0.8,0c0.1,0,0.1,0.1,0.1,0.1v0.3c0,0.1,0,0.1-0.1,0.1h-0.2c-0.1,0-0.3,0.1-0.5,0.2c-0.3,0.4-1.2,2.4-2.1,4.6
	c-0.7,1.5-1.2,2.8-1.4,3.2c-0.2,0.4-0.4,0.9-1.2,0.9C95.6,49.5,95.3,49.2,95.3,48.8"/>
<path class="st0" d="M104.4,45c-0.6-0.7-0.7-1.2-0.7-2.2c0-0.7,0.4-1.6,1.2-2.2c0.7-0.5,1.4-0.7,1.8-0.7c0.7,0,1.5,0.4,1.9,0.8
	c0.6,0.6,0.9,1.3,0.9,2.2c0,1.5-1.3,3-3,3C105.8,46,104.9,45.7,104.4,45 M108.3,42.9c0-1.5-1.1-2.5-1.8-2.5c-0.4,0-0.7,0.1-1,0.4
	c-0.5,0.5-0.7,1.1-0.7,2.1c0,0.8,0.1,1.3,0.5,1.9c0.3,0.4,0.7,0.7,1.3,0.7C107.6,45.6,108.3,44.3,108.3,42.9"/>
<path class="st0" d="M110.8,40.8h-0.9c-0.1,0-0.1,0-0.1-0.1l0.1-0.4c0-0.1,0.1-0.1,0.2-0.1h0.8v-0.3c0-1.3,0.4-2.2,0.9-2.8
	c0.7-0.8,1.5-1.1,2.2-1.1c0.6,0,1.2,0.2,1.2,0.8c0,0.3-0.4,0.6-0.6,0.6c-0.1,0-0.3,0-0.4-0.1c-0.1-0.1-0.3-0.2-0.3-0.3
	c-0.2-0.2-0.4-0.3-0.6-0.3c-0.4,0-0.7,0.1-1,0.5c-0.5,0.6-0.5,1.8-0.5,2.8v0.3h1.6c0.1,0,0.1,0.1,0.1,0.1l-0.1,0.4
	c0,0.1-0.1,0.1-0.2,0.1h-1.5V42c0,1.6,0,2.9,0,3c0,0.2,0.1,0.4,0.4,0.4h0.8c0.1,0,0.1,0,0.1,0.1v0.2c0,0.1,0,0.2-0.1,0.2
	c-0.1,0-0.6,0-1.6,0c-0.7,0-1.4,0-1.5,0c-0.1,0-0.1,0-0.1-0.1v-0.3c0-0.1,0-0.1,0.1-0.1h0.7c0.3,0,0.3-0.2,0.3-0.5v-2.6V40.8z"/>
<path class="st0" d="M25.8,58.1c-0.2-0.1-0.2-0.2-0.3-0.2c-0.1,0-0.1,0.1-0.2,0.2c-0.1,0.2-0.1,0.2-0.2,0.2c-0.1,0-0.1-0.1-0.1-0.2
	c0.1-0.3,0.2-2.1,0.2-2.5c0-0.1,0-0.1,0.1-0.1l0.2,0c0.1,0,0.1,0,0.1,0.1c0,0.4,0,0.9,0.5,1.6c0.4,0.6,1.2,1,1.9,1
	c0.8,0,1.8-0.5,1.8-1.7c0-1.4-1-1.9-2.1-2.3c-0.4-0.1-1.4-0.5-2-1.1c-0.4-0.4-0.7-1.1-0.7-2c0-0.7,0.4-1.3,0.8-1.7
	c0.5-0.5,1.2-0.7,1.9-0.7c0.8,0,1.4,0.2,1.6,0.3c0.1,0.1,0.2,0.1,0.3,0l0.2-0.2c0.1-0.1,0.1-0.1,0.2-0.1c0.1,0,0.1,0.1,0.1,0.2
	c0,0.5,0.2,1.9,0.2,2.2c0,0.1,0,0.1-0.1,0.1l-0.2,0c0,0-0.1,0-0.1,0c-0.1-0.4-0.3-0.9-0.8-1.5c-0.4-0.4-0.8-0.6-1.5-0.6
	c-1.2,0-1.6,0.9-1.6,1.6c0,0.4,0.1,0.8,0.4,1.2c0.4,0.4,1.2,0.7,1.5,0.8c0.9,0.3,1.7,0.5,2.2,1.1c0.4,0.4,0.6,1,0.6,1.8
	c0,1.6-1,3-2.8,3C27,58.8,26.4,58.5,25.8,58.1"/>
<path class="st0" d="M32.1,57.8c-0.6-0.7-0.7-1.2-0.7-2.2c0-0.7,0.4-1.6,1.2-2.2c0.7-0.5,1.4-0.7,1.8-0.7c0.7,0,1.5,0.4,1.9,0.8
	c0.6,0.6,0.9,1.3,0.9,2.2c0,1.5-1.3,3-3,3C33.5,58.7,32.6,58.5,32.1,57.8 M36,55.6c0-1.5-1.1-2.5-1.8-2.5c-0.4,0-0.7,0.1-1,0.4
	c-0.5,0.5-0.7,1.1-0.7,2.1c0,0.8,0.1,1.3,0.5,1.9c0.3,0.4,0.7,0.7,1.3,0.7C35.3,58.3,36,57.1,36,55.6"/>
<path class="st0" d="M42.7,55.8c0,0.7,0,1.3,0,1.6c0,0.4,0.2,0.5,0.4,0.5c0.1,0,0.3,0,0.4,0c0.1,0,0.1,0,0.2,0.1l0,0.2
	c0,0.1,0,0.1-0.1,0.1l-1.4,0.5c-0.1,0-0.2,0.1-0.3,0.1c-0.1,0-0.1,0-0.1-0.2l-0.1-0.8h0c-0.4,0.5-1.2,1-1.8,1c-0.4,0-0.8,0-1.3-0.6
	c-0.6-0.7-0.5-1.2-0.5-2.7v-1.6c0-0.4-0.2-0.5-0.5-0.5c-0.2,0-0.3,0-0.3-0.1V53c0-0.1,0-0.1,0.1-0.1h1.2c0.1,0,0.1,0,0.2,0
	c0.1,0,0.1,0,0.1,0c0.1,0,0.2,0.1,0.1,0.2c0,0.1-0.1,0.8-0.1,1.6v1c0,0.5-0.1,1.4,0.3,2c0.3,0.5,0.7,0.5,1.1,0.5
	c0.4,0,0.9-0.4,1.2-0.7c0.1-0.1,0.1-0.2,0.1-0.4v-3.2c0-0.4-0.2-0.4-0.6-0.5c-0.2,0-0.3,0-0.3-0.1V53c0-0.1,0-0.1,0.2-0.1h1.3
	c0.1,0,0.2,0,0.2,0c0.1,0,0.1,0,0.2,0c0.1,0,0.1,0.1,0.1,0.1c0,0.1-0.1,0.5-0.1,1.8V55.8z"/>
<path class="st0" d="M45.7,56.9c0,1,0.5,1.2,0.7,1.2c0.3,0,0.7-0.1,0.9-0.2c0.1,0,0.1,0,0.2,0l0.1,0.1c0,0.1,0,0.1,0,0.1
	c-0.1,0.1-0.7,0.5-1.5,0.5c-0.7,0-1.3-0.6-1.3-1.2c0-0.6,0-1.8,0-1.9v-0.3c0-0.2,0-1.2,0-1.7h-0.8c-0.1,0-0.2-0.1-0.2-0.2
	c0-0.1,0.1-0.1,0.2-0.2c0.3-0.2,1.4-1.2,1.5-1.7c0-0.1,0.1-0.1,0.2-0.1c0.1,0,0.1,0.1,0.1,0.2l-0.1,1.3h1.9c0.1,0,0.1,0.1,0.1,0.1
	l-0.1,0.5c0,0.1,0,0.1-0.1,0.1h-1.8c0,0.6,0,1.3,0,1.9V56.9z"/>
<path class="st0" d="M48.8,51.2c0-0.8-0.2-1-0.7-1.1L48,49.9c-0.1,0-0.1,0-0.1-0.1v-0.1c0-0.1,0-0.1,0.2-0.1l1.4-0.7
	c0.1-0.1,0.2-0.1,0.3-0.1c0.1,0,0.1,0.1,0.1,0.3c0,0.2,0,3,0,3.7v0.9h0.1c0.5-0.6,1.3-0.9,1.9-0.9c0.6,0,1,0.2,1.3,0.5
	c0.6,0.6,0.6,1.3,0.6,2V56c0,0.8,0,1.6,0,1.9c0,0.2,0.2,0.2,0.5,0.2h0.2c0.1,0,0.1,0,0.1,0.1v0.2c0,0.1,0,0.2-0.1,0.2
	c-0.1,0-0.5,0-1.3,0c-0.7,0-1.2,0-1.3,0c-0.1,0-0.1,0-0.1-0.1v-0.2c0-0.1,0-0.1,0.1-0.1h0.3c0.2,0,0.5,0,0.5-0.3c0-0.2,0-0.9,0-1.3
	v-1.1c0-0.8-0.1-1.3-0.4-1.7c-0.3-0.3-0.6-0.4-0.9-0.4c-0.4,0-0.9,0.1-1.3,0.6c-0.1,0.1-0.3,0.4-0.3,0.7v3c0,0.4,0,0.6,0.3,0.6h0.4
	c0.1,0,0.1,0,0.1,0.1v0.2c0,0.1,0,0.1-0.1,0.1c-0.1,0-0.7,0-1.3,0c-0.7,0-1.2,0-1.3,0c-0.1,0-0.1,0-0.1-0.1v-0.2
	c0-0.1,0.1-0.1,0.2-0.1h0.3c0.2,0,0.4-0.1,0.4-0.2c0-0.3,0-1.8,0-2.6V51.2z"/>
<path class="st0" d="M55.8,54.9c0,0.1,0,0.3,0,0.7c0,1.3,0.8,2.3,1.9,2.3c0.8,0,1.4-0.5,1.6-0.9c0-0.1,0.1-0.1,0.1-0.1l0.2,0.1
	c0,0,0.1,0.1,0,0.2c-0.2,0.5-1,1.5-2.2,1.5c-0.8,0-1.6-0.2-2.1-1c-0.5-0.7-0.6-1.2-0.6-2.1c0-0.5,0.1-1.4,0.9-2.2
	c0.6-0.6,1.3-0.7,1.9-0.7c1.6,0,2,1.5,2,2c0,0.2-0.2,0.2-0.4,0.2H55.8z M57.9,54.5c0.3,0,0.4-0.1,0.4-0.2c0-0.3-0.2-1.2-1-1.2
	c-0.6,0-1.2,0.4-1.4,1.4H57.9z"/>
<path class="st0" d="M60.9,54.9c0-0.7-0.1-0.8-0.5-1l-0.3-0.1c-0.1,0-0.1,0-0.1-0.1v-0.1c0-0.1,0-0.1,0.1-0.1l1.3-0.7
	c0.1,0,0.1-0.1,0.2-0.1c0.1,0,0.1,0.1,0.1,0.2l0.1,0.9h0.1c0.4-0.6,1-1.2,1.6-1.2c0.5,0,0.7,0.3,0.7,0.6c0,0.4-0.3,0.7-0.6,0.7
	c-0.1,0-0.3-0.1-0.4-0.1c-0.1-0.1-0.3-0.1-0.4-0.1c-0.2,0-0.6,0.1-0.8,0.6c-0.1,0.1-0.1,0.4-0.1,0.4v2.9c0,0.4,0.1,0.6,0.4,0.6h0.6
	c0.1,0,0.1,0,0.1,0.1v0.2c0,0.1,0,0.1-0.1,0.1c-0.1,0-0.7,0-1.4,0c-0.8,0-1.4,0-1.5,0c-0.1,0-0.1,0-0.1-0.1v-0.2
	c0-0.1,0-0.1,0.1-0.1h0.5c0.2,0,0.3-0.1,0.3-0.3c0-0.4,0-0.9,0-1.6V54.9z"/>
<path class="st0" d="M70,57.8c0,0.2,0.1,0.3,0.3,0.3h0.4c0.1,0,0.1,0,0.1,0.1v0.2c0,0.1,0,0.1-0.1,0.1c-0.1,0-0.5,0-1.3,0
	c-0.7,0-1.1,0-1.2,0c-0.1,0-0.1,0-0.1-0.1v-0.2c0-0.1,0-0.1,0.2-0.1h0.4c0.1,0,0.3-0.1,0.3-0.3c0-0.4,0-0.8,0-1.1v-1.8
	c0-0.5,0-0.9-0.4-1.2c-0.3-0.2-0.7-0.2-1-0.2c-0.2,0-0.7,0.1-1.1,0.5c-0.3,0.3-0.3,0.7-0.3,0.9v2.8c0,0.4,0,0.4,0.3,0.4h0.3
	c0.1,0,0.1,0,0.1,0.1v0.2c0,0.1,0,0.1-0.1,0.1c-0.1,0-0.5,0-1.2,0c-0.7,0-1.1,0-1.2,0c-0.1,0-0.1,0-0.1-0.1v-0.2
	c0-0.1,0-0.1,0.1-0.1H65c0.2,0,0.3,0,0.3-0.3v-3.2c0-0.4-0.2-0.6-0.6-0.8l-0.1-0.1c-0.1,0-0.1-0.1-0.1-0.1v-0.1
	c0-0.1,0.1-0.1,0.1-0.1l1.2-0.7c0.1-0.1,0.2-0.1,0.2-0.1c0.1,0,0.1,0.1,0.1,0.2l0.1,0.8h0c0.4-0.5,1.2-1,1.9-1
	c0.4,0,0.8,0.1,1.2,0.3c0.4,0.3,0.7,0.9,0.7,1.3V57.8z"/>
<path class="st0" d="M75.2,57.5c-1-0.9-1.5-2.5-1.5-3.8c0-1.3,0.4-2.6,1.4-3.6c0.7-0.7,1.9-1.4,3.4-1.4c1.2,0,2.3,0.5,2.7,0.7
	c0.2,0.1,0.2,0.1,0.3,0l0.1-0.4c0-0.1,0.1-0.1,0.2-0.1c0.1,0,0.1,0,0.1,0.2c0,0.3,0.3,2.3,0.3,2.6c0,0.1,0,0.1-0.1,0.1l-0.2,0.1
	c-0.1,0-0.1,0-0.1-0.1c-0.2-0.4-0.5-1.1-1.1-1.7c-0.6-0.6-1.3-1-2.4-1c-2.4,0-3.4,2.2-3.4,4.1c0,0.8,0.2,2.3,1.3,3.5
	c0.9,1,1.7,1.1,2.6,1.1c1.5,0,2.7-0.8,3.4-1.7c0-0.1,0.1-0.1,0.1,0l0.2,0.1c0,0,0.1,0.1,0,0.1c-0.8,1.2-2.1,2.3-4,2.3
	C77,58.8,76,58.3,75.2,57.5"/>
<path class="st0" d="M87.1,56.9c0,0.8,0.2,1,0.4,1c0.2,0,0.4-0.1,0.5-0.2c0.1-0.1,0.1-0.1,0.1-0.1l0.1,0.1c0,0,0.1,0.1,0,0.2
	c-0.1,0.2-0.4,0.7-1.1,0.7c-0.5,0-0.8-0.4-1-0.9h0c-0.3,0.3-0.7,0.6-1.3,0.8c-0.3,0.1-0.5,0.1-0.8,0.1c-0.3,0-0.8-0.3-0.8-1.1
	c0-0.6,0.3-1.2,1.4-1.6c0.6-0.3,1.3-0.6,1.5-0.8v-0.9c0-0.2,0-0.6-0.2-0.8c-0.1-0.2-0.4-0.3-0.8-0.3c-0.3,0-0.7,0.1-0.9,0.3
	c-0.2,0.2-0.1,0.4-0.1,0.6c0,0.5-0.2,0.8-0.7,0.8c-0.2,0-0.3-0.1-0.3-0.4c0-0.4,0.4-0.9,0.9-1.3c0.6-0.3,1-0.5,1.7-0.5
	c0.6,0,0.9,0.2,1.1,0.4c0.3,0.3,0.3,0.6,0.3,1v2.1V56.9z M86.1,55.6c-0.5,0.4-1.8,0.6-1.8,1.8c0,0.5,0.3,0.7,0.7,0.7
	c0.4,0,1.1-0.5,1.1-0.8V55.6z"/>
<path class="st0" d="M90.5,54.5c0,0.7,0,2.8,0,3.2c0,0.2,0.1,0.4,0.4,0.4h0.6c0.1,0,0.1,0,0.1,0.1v0.2c0,0.1,0,0.1-0.1,0.1
	c-0.1,0-0.7,0-1.5,0c-0.9,0-1.4,0-1.5,0c-0.1,0-0.1-0.1-0.1-0.1v-0.2c0-0.1,0-0.1,0.2-0.1h0.7c0.1,0,0.3-0.1,0.3-0.3
	c0-0.4,0-2.8,0-3.5v-0.9c0-1,0-2.2,0-2.6c0-0.5-0.2-0.7-0.7-0.8l-0.3-0.1c-0.1,0-0.1,0-0.1-0.1v-0.1c0,0,0-0.1,0.1-0.1
	c0.5-0.2,1.1-0.5,1.6-0.8c0.1-0.1,0.2-0.1,0.3-0.1c0.1,0,0.1,0.1,0.1,0.2c0,0.7-0.1,3.6-0.1,4.3V54.5z"/>
<path class="st0" d="M93,54.6c0-0.5-0.1-0.7-0.8-0.8c-0.1,0-0.1,0-0.1-0.1v-0.1c0,0,0-0.1,0.1-0.1c0.4-0.2,1-0.4,1.5-0.7
	c0.1-0.1,0.2-0.1,0.3-0.1c0.1,0,0.1,0.1,0.1,0.2c0,0.2,0,1.1,0,2.2v1.5c0,0.5,0,1,0,1.2c0,0.3,0.1,0.4,0.2,0.4h0.6
	c0.1,0,0.1,0,0.1,0.1v0.2c0,0.1,0,0.1-0.1,0.1c-0.1,0-0.7,0-1.3,0c-0.8,0-1.3,0-1.5,0c-0.1,0-0.1,0-0.1-0.1v-0.3
	c0-0.1,0-0.1,0.1-0.1h0.7c0.1,0,0.2-0.1,0.2-0.3c0-0.4,0-0.8,0-1.2V54.6z M92.3,50.5c0-0.3,0.3-0.7,0.8-0.7c0.5,0,0.7,0.4,0.7,0.7
	c0,0.4-0.2,0.7-0.8,0.7C92.8,51.2,92.3,50.9,92.3,50.5"/>
<path class="st0" d="M96.4,53.5h-0.9c-0.1,0-0.1,0-0.1-0.1l0.1-0.4c0-0.1,0.1-0.1,0.2-0.1h0.8v-0.3c0-1.3,0.4-2.2,0.9-2.8
	c0.7-0.8,1.5-1.1,2.2-1.1c0.6,0,1.2,0.2,1.2,0.8c0,0.3-0.4,0.6-0.6,0.6c-0.1,0-0.3,0-0.4-0.1c-0.1-0.1-0.3-0.2-0.3-0.3
	c-0.2-0.2-0.4-0.3-0.6-0.3c-0.4,0-0.7,0.1-1,0.5c-0.5,0.6-0.5,1.8-0.5,2.8v0.3H99c0.1,0,0.1,0.1,0.1,0.1L99,53.5
	c0,0.1-0.1,0.1-0.2,0.1h-1.5v1.2c0,1.6,0,2.9,0,3c0,0.2,0.1,0.4,0.4,0.4h0.8c0.1,0,0.1,0,0.1,0.1v0.2c0,0.1,0,0.2-0.1,0.2
	c-0.1,0-0.6,0-1.6,0c-0.7,0-1.4,0-1.5,0c-0.1,0-0.1,0-0.1-0.1v-0.3c0-0.1,0-0.1,0.1-0.1h0.7c0.3,0,0.3-0.2,0.3-0.5v-2.6V53.5z"/>
<path class="st0" d="M99.6,57.8c-0.6-0.7-0.7-1.2-0.7-2.2c0-0.7,0.4-1.6,1.2-2.2c0.7-0.5,1.4-0.7,1.8-0.7c0.7,0,1.5,0.4,1.9,0.8
	c0.6,0.6,0.9,1.3,0.9,2.2c0,1.5-1.3,3-3,3C101,58.7,100.2,58.5,99.6,57.8 M103.5,55.6c0-1.5-1.1-2.5-1.8-2.5c-0.4,0-0.7,0.1-1,0.4
	c-0.5,0.5-0.7,1.1-0.7,2.1c0,0.8,0.1,1.3,0.5,1.9c0.3,0.4,0.7,0.7,1.3,0.7C102.9,58.3,103.5,57.1,103.5,55.6"/>
<path class="st0" d="M105.8,54.9c0-0.7-0.1-0.8-0.5-1l-0.3-0.1c-0.1,0-0.1,0-0.1-0.1v-0.1c0-0.1,0-0.1,0.1-0.1l1.3-0.7
	c0.1,0,0.1-0.1,0.2-0.1c0.1,0,0.1,0.1,0.1,0.2l0.1,0.9h0.1c0.4-0.6,1-1.2,1.6-1.2c0.5,0,0.7,0.3,0.7,0.6c0,0.4-0.3,0.7-0.6,0.7
	c-0.1,0-0.3-0.1-0.4-0.1c-0.1-0.1-0.3-0.1-0.4-0.1c-0.2,0-0.6,0.1-0.8,0.6c-0.1,0.1-0.1,0.4-0.1,0.4v2.9c0,0.4,0.1,0.6,0.4,0.6h0.6
	c0.1,0,0.1,0,0.1,0.1v0.2c0,0.1,0,0.1-0.1,0.1c-0.1,0-0.7,0-1.4,0c-0.8,0-1.4,0-1.5,0c-0.1,0-0.1,0-0.1-0.1v-0.2
	c0-0.1,0-0.1,0.1-0.1h0.5c0.2,0,0.3-0.1,0.3-0.3c0-0.4,0-0.9,0-1.6V54.9z"/>
<path class="st0" d="M114.9,57.8c0,0.2,0.1,0.3,0.3,0.3h0.4c0.1,0,0.1,0,0.1,0.1v0.2c0,0.1,0,0.1-0.1,0.1c-0.1,0-0.5,0-1.3,0
	c-0.7,0-1.1,0-1.2,0c-0.1,0-0.1,0-0.1-0.1v-0.2c0-0.1,0-0.1,0.2-0.1h0.4c0.1,0,0.3-0.1,0.3-0.3c0-0.4,0-0.8,0-1.1v-1.8
	c0-0.5,0-0.9-0.4-1.2c-0.3-0.2-0.7-0.2-1-0.2c-0.2,0-0.7,0.1-1.1,0.5c-0.3,0.3-0.3,0.7-0.3,0.9v2.8c0,0.4,0,0.4,0.3,0.4h0.3
	c0.1,0,0.1,0,0.1,0.1v0.2c0,0.1,0,0.1-0.1,0.1c-0.1,0-0.5,0-1.2,0c-0.7,0-1.1,0-1.2,0c-0.1,0-0.1,0-0.1-0.1v-0.2
	c0-0.1,0-0.1,0.1-0.1h0.4c0.2,0,0.3,0,0.3-0.3v-3.2c0-0.4-0.2-0.6-0.6-0.8l-0.1-0.1c-0.1,0-0.1-0.1-0.1-0.1v-0.1
	c0-0.1,0.1-0.1,0.1-0.1l1.2-0.7c0.1-0.1,0.2-0.1,0.2-0.1c0.1,0,0.1,0.1,0.1,0.2l0.1,0.8h0c0.4-0.5,1.2-1,1.9-1
	c0.4,0,0.8,0.1,1.2,0.3c0.4,0.3,0.7,0.9,0.7,1.3V57.8z"/>
<path class="st0" d="M117.1,54.6c0-0.5-0.1-0.7-0.8-0.8c-0.1,0-0.1,0-0.1-0.1v-0.1c0,0,0-0.1,0.1-0.1c0.4-0.2,1-0.4,1.5-0.7
	c0.1-0.1,0.2-0.1,0.3-0.1c0.1,0,0.1,0.1,0.1,0.2c0,0.2,0,1.1,0,2.2v1.5c0,0.5,0,1,0,1.2c0,0.3,0.1,0.4,0.2,0.4h0.6
	c0.1,0,0.1,0,0.1,0.1v0.2c0,0.1,0,0.1-0.1,0.1c-0.1,0-0.7,0-1.3,0c-0.8,0-1.3,0-1.5,0c-0.1,0-0.1,0-0.1-0.1v-0.3
	c0-0.1,0-0.1,0.1-0.1h0.7c0.1,0,0.2-0.1,0.2-0.3c0-0.4,0-0.8,0-1.2V54.6z M116.5,50.5c0-0.3,0.3-0.7,0.8-0.7c0.5,0,0.7,0.4,0.7,0.7
	c0,0.4-0.2,0.7-0.8,0.7C117,51.2,116.5,50.9,116.5,50.5"/>
<path class="st0" d="M123.4,56.9c0,0.8,0.2,1,0.4,1c0.2,0,0.4-0.1,0.5-0.2c0.1-0.1,0.1-0.1,0.1-0.1l0.1,0.1c0,0,0.1,0.1,0,0.2
	c-0.1,0.2-0.4,0.7-1.1,0.7c-0.5,0-0.8-0.4-1-0.9h0c-0.3,0.3-0.7,0.6-1.3,0.8c-0.3,0.1-0.5,0.1-0.8,0.1c-0.3,0-0.8-0.3-0.8-1.1
	c0-0.6,0.3-1.2,1.4-1.6c0.6-0.3,1.3-0.6,1.5-0.8v-0.9c0-0.2,0-0.6-0.2-0.8c-0.1-0.2-0.4-0.3-0.8-0.3c-0.3,0-0.7,0.1-0.9,0.3
	c-0.2,0.2-0.1,0.4-0.1,0.6c0,0.5-0.2,0.8-0.7,0.8c-0.2,0-0.3-0.1-0.3-0.4c0-0.4,0.4-0.9,0.9-1.3c0.6-0.3,1-0.5,1.7-0.5
	c0.6,0,0.9,0.2,1.1,0.4c0.3,0.3,0.3,0.6,0.3,1v2.1V56.9z M122.4,55.6c-0.5,0.4-1.8,0.6-1.8,1.8c0,0.5,0.3,0.7,0.7,0.7
	c0.4,0,1.1-0.5,1.1-0.8V55.6z"/>
<path class="st0" d="M18.9,50.5c-1.3,3.1-3.7,7.3-8,10c-4.4-2.6-6.8-6.9-8.1-9.9c-1.2-2.8-1.6-5.2-1.7-5.9c0.5-0.3,1-0.4,1.6-0.4h0
	c0.4,0,1,0.1,1.3,0.2l0.2,0.1c0.2,0.1,0.4,0.1,0.5,0.2c0.6,0.2,1.4,0.4,1.9,0.4h0c0.6,0,1.6-0.1,2.7-0.5c0.3-0.1,0.7-0.2,1.1-0.3
	l0.4,0h0l0.6,0c0.3,0.1,0.6,0.2,0.9,0.3c1.1,0.4,2,0.5,2.7,0.5h0c0.4,0,0.9-0.1,1.5-0.3c0.3-0.1,0.6-0.2,0.8-0.2l0.3-0.1
	c0.3-0.1,0.9-0.2,1.4-0.2h0c0.6,0,1.1,0.1,1.6,0.4C20.5,45.2,20.1,47.6,18.9,50.5 M0.8,40l6.4,1.4C7.1,41.4,7,41.5,7,41.6l-6.2-0.8
	C0.8,40.5,0.8,40.3,0.8,40 M1,37.6l6.6,3.1c-0.1,0.1-0.2,0.3-0.3,0.5l-6.4-1.8C0.9,38.8,0.9,38.2,1,37.6 M1.2,36.6
	c0.3,0.1,0.8,0.2,1.4,0.2L8,40.3c-0.1,0.1-0.1,0.1-0.2,0.2L1.1,37C1.1,36.9,1.2,36.8,1.2,36.6 M4,36.9c0.7,0,1.3-0.1,1.9-0.2l2.7,3
	c-0.2,0.1-0.4,0.3-0.6,0.4l-4.5-3.3C3.8,36.9,3.9,36.9,4,36.9 M7.5,36.4l1.8,3.2c-0.1,0-0.2,0.1-0.4,0.2l-2.3-3
	C6.9,36.5,7.2,36.5,7.5,36.4 M9.9,35.2l0.5,4c-0.3,0-0.6,0.1-0.9,0.2L8,36.2C8.8,35.9,9.4,35.5,9.9,35.2 M10.8,34.5
	c0.1,0.1,0.3,0.2,0.4,0.3L11,39.2c-0.1,0-0.1,0-0.2,0h0c-0.1,0-0.1,0-0.2,0l-0.2-4.4C10.6,34.7,10.7,34.6,10.8,34.5 M11.7,35.2
	c0.6,0.4,1.3,0.7,1.8,0.9l-1.5,3.3c-0.3-0.1-0.6-0.1-0.9-0.2L11.7,35.2z M14.1,36.4c0.4,0.1,0.7,0.2,0.8,0.3l-2.3,3.1
	c-0.1-0.1-0.2-0.1-0.4-0.2L14.1,36.4z M15.6,36.8c0.7,0.1,1.4,0.2,2.1,0.2c0.1,0,0.2,0,0.2,0l-4.5,3.3c-0.2-0.1-0.4-0.3-0.6-0.4
	L15.6,36.8z M19,36.9c0.7-0.1,1.2-0.2,1.4-0.2c0,0.1,0,0.2,0.1,0.3l-6.6,3.6c-0.1-0.1-0.1-0.1-0.2-0.2L19,36.9z M20.6,37.6
	c0.1,0.6,0.2,1.2,0.2,1.7l-6.4,1.8c-0.1-0.2-0.2-0.3-0.4-0.5L20.6,37.6z M20.9,40.8l-6.2,0.8c0-0.1-0.1-0.2-0.2-0.3l6.3-1.4
	C20.8,40.3,20.9,40.6,20.9,40.8 M19,42.2c-0.4,0-1,0.1-1.5,0.2l-0.3,0.1c-0.3,0.1-0.6,0.2-0.8,0.2c-0.4,0.1-0.9,0.2-1.4,0.2
	c0-0.4-0.1-0.7-0.3-1l6.1-0.5c0,0.4,0,0.8-0.1,1.2C20.2,42.3,19.6,42.2,19,42.2 M18.9,42.9L18.9,42.9c-0.4,0-1.1,0.1-1.5,0.2
	l-0.3,0.1c-0.3,0.1-0.6,0.2-0.8,0.2l0,0.2l0-0.2c-0.4,0.1-1,0.3-1.4,0.3h0c-0.6,0-1.5-0.1-2.5-0.4c-0.3-0.1-0.6-0.2-1-0.3
	c-0.2,0-0.4-0.1-0.6-0.1c-0.1,0-0.3,0-0.4,0C10,43,9.6,43.2,9.2,43.3c-1,0.4-2,0.4-2.5,0.4h0c-0.5,0-1.2-0.2-1.8-0.4l-0.7-0.2
	C3.8,43,3.2,43,2.7,43h0c-0.6,0-1.2,0.2-1.8,0.4c0-0.1,0-0.2,0-0.4c0.5-0.3,1.2-0.5,1.9-0.5h0c0.4,0,1,0.1,1.3,0.2l0.7,0.2l0-0.2
	l0,0.2c0.7,0.2,1.4,0.4,1.9,0.4h0c0.6,0,1.6-0.1,2.7-0.5c0.3-0.1,0.7-0.2,1.1-0.3l0.4,0l0.5,0c0.3,0.1,0.7,0.2,0.9,0.3
	c1.1,0.4,2,0.5,2.7,0.5h0c0.4,0,0.8-0.1,1.5-0.3c0.3-0.1,0.6-0.2,0.8-0.2l0.3-0.1c0.3-0.1,0.9-0.2,1.4-0.2h0c0.6,0,1.3,0.2,1.8,0.4
	c0,0.1,0,0.3,0,0.4C20.2,43.1,19.6,42.9,18.9,42.9 M10.8,42.2L10.8,42.2L10.8,42.2c-0.1,0-0.3,0-0.4,0c-0.4,0.1-0.8,0.2-1.1,0.3
	c-0.9,0.3-1.7,0.4-2.3,0.4c0.3-1.9,1.9-3.3,3.8-3.3h0c1.9,0,3.6,1.4,3.8,3.3c-0.6,0-1.4-0.1-2.2-0.4c-0.3-0.1-0.6-0.2-1-0.3l0,0l0,0
	C11.2,42.2,11,42.2,10.8,42.2 M0.8,41.4l6.1,0.5c-0.1,0.3-0.2,0.7-0.3,1.1c-0.5,0-1.1-0.2-1.7-0.4l-0.7-0.2c-0.4-0.1-1-0.2-1.4-0.2
	h0c-0.6,0-1.3,0.2-1.9,0.4C0.8,42.3,0.8,41.9,0.8,41.4 M18.9,43.7L18.9,43.7c-0.4,0-1.1,0.1-1.5,0.2L17.2,44
	c-0.3,0.1-0.5,0.2-0.8,0.2l0,0.2l0-0.2c-0.6,0.2-1.1,0.3-1.4,0.3h0c-0.6,0-1.5-0.1-2.5-0.4c-0.3-0.1-0.6-0.2-1-0.3
	c-0.4-0.1-0.7-0.1-1,0c-0.4,0.1-0.8,0.2-1.1,0.3c-1,0.4-2,0.4-2.5,0.4h0c-0.5,0-1.2-0.2-1.8-0.4l0,0.2l0-0.2C4.7,44.1,4.5,44,4.3,44
	l-0.2-0.1c-0.4-0.1-1-0.2-1.4-0.2h0c-0.6,0-1.1,0.1-1.7,0.4c0-0.1,0-0.2-0.1-0.4c0.5-0.3,1.1-0.4,1.7-0.5h0c0.4,0,1,0.1,1.3,0.2
	l0.7,0.2l0.1-0.2l0,0.2c0.7,0.2,1.4,0.4,1.9,0.4h0c0.6,0,1.6-0.1,2.7-0.5c0.3-0.1,0.7-0.2,1.1-0.3l0.4,0h0l0.5,0
	c0.3,0.1,0.7,0.2,0.9,0.3c1.1,0.4,2,0.5,2.7,0.5h0c0.4,0,0.8-0.1,1.5-0.3c0.3-0.1,0.6-0.2,0.8-0.2l0.3-0.1c0.3-0.1,0.9-0.2,1.4-0.2
	h0c0.6,0,1.2,0.2,1.7,0.4c0,0.2,0,0.3-0.1,0.4C20.1,43.9,19.5,43.7,18.9,43.7 M21.2,39.9l0-0.6c0-0.6-0.1-1.2-0.2-1.8L20.9,37
	c0-0.2-0.1-0.4-0.1-0.7l0-0.2l-0.2,0.1c0,0-0.3,0.1-0.8,0.2l-1.2,0.1c-0.2,0-0.5,0-0.8,0c-0.7,0-1.4-0.1-2.1-0.2l-0.4-0.1
	c0,0,0,0,0,0c0,0-0.4-0.1-0.9-0.3l-0.6-0.2c-0.6-0.2-1.2-0.6-1.9-1l-0.6-0.4c-0.1-0.1-0.2-0.2-0.3-0.3L10.8,34l-0.1,0.1
	c0,0-0.1,0.1-0.3,0.2l-0.6,0.4c-0.5,0.3-1.1,0.7-1.9,1L7.3,36c-0.3,0.1-0.6,0.2-0.9,0.3c0,0,0,0,0,0l-0.5,0.1
	c-0.6,0.1-1.2,0.2-1.9,0.2c-0.3,0-0.6,0-0.9,0l-1.2-0.1c-0.5-0.1-0.8-0.2-0.8-0.2l-0.2,0l0,0.2c0,0.2-0.1,0.4-0.1,0.5l-0.1,0.5
	c-0.1,0.6-0.2,1.2-0.2,1.8l0,0.6c0,0.3,0,0.6,0,0.9l0,0.6c0,1.7,0.2,2.9,0.3,3c0,0.1,0.4,2.9,1.8,6.2c1.3,3.1,3.8,7.4,8.2,10.1
	l0.2,0.1l0.2-0.1c4.4-2.7,6.9-7,8.2-10.1c1.4-3.3,1.7-6.1,1.7-6.2c0-0.1,0.2-1.3,0.2-3l0-0.6C21.2,40.5,21.2,40.2,21.2,39.9"/>
<path class="st0" d="M16,48.5c-0.1,0.1-0.1,0.1-0.2,0.1l-1.4,0c-0.2,0-0.3-0.1-0.3-0.3c0-0.2,0.1-0.3,0.3-0.3l0.2,0c0,0,0,0,0,0l0,0
	h0.3l0.9,0c0.2,0,0.3,0.1,0.3,0.3C16.1,48.3,16,48.4,16,48.5 M15.7,49C15.7,49,15.6,49,15.5,49l-0.8,0c-0.1,0-0.2-0.1-0.3-0.3
	c0,0,0,0,0,0l1.4,0c0,0,0,0,0,0C15.8,48.8,15.8,48.9,15.7,49 M15.4,52.5l-0.6,0l-0.1-3.3l0.8,0c0,0,0,0,0,0L15.4,52.5z M15.7,53
	c0,0.1-0.1,0.2-0.2,0.2l-0.8,0l0,0.1v-0.1c-0.1,0-0.2-0.1-0.2-0.2c0-0.1,0.1-0.2,0.2-0.2l0.5,0l0.4,0C15.6,52.8,15.7,52.9,15.7,53
	 M15.1,55c-0.1,0-0.2-0.1-0.2-0.2l-0.1-1.4h0.5l-0.1,1.4C15.3,54.9,15.2,55,15.1,55 M14,47.3c0-0.2,0.1-0.3,0.2-0.5
	c0.1-0.2,0.2-0.4,0.2-0.7c0.1,0.1,0.3,0.2,0.4,0.3c0,0,0,0,0,0c0,0-0.1,0.1-0.1,0.1c0,0-0.6,0.5-0.2,1.2h-0.1c0,0-0.1,0-0.1,0
	C14.2,47.7,14,47.6,14,47.3 M15.2,46.1c0-0.1,0-0.2,0-0.3c0.2,0.2,0.5,0.5,0.5,0.9c0,0.5-0.3,0.9-0.4,1h-0.1
	c-0.1-0.1-0.3-0.4-0.1-0.8c0-0.1,0.2-0.3,0.2-0.4c0-0.1,0-0.1,0-0.1c0,0-0.1,0.1-0.1,0.1c-0.1,0.1-0.2,0.2-0.3,0.3
	c-0.3,0.4-0.1,0.8,0,0.9l-0.3,0c-0.4-0.6,0-1.1,0.1-1.1c0,0,0.1-0.1,0.1-0.1C15,46.4,15.1,46.3,15.2,46.1 M15.8,46.3
	c0.1-0.1,0.2-0.2,0.3-0.2c-0.1,0.5,0.2,1,0.2,1c0.1,0.4-0.3,0.6-0.4,0.7c0,0-0.1,0-0.1,0h-0.2c0.2-0.2,0.4-0.6,0.4-1
	C15.9,46.6,15.8,46.3,15.8,46.3 M16.1,47.9c0.2-0.2,0.5-0.4,0.4-0.9c0,0-0.3-0.6-0.2-1.1l0.1-0.2l-0.2,0c0,0-0.3,0-0.5,0.3
	c-0.3-0.4-0.7-0.7-0.7-0.7l-0.4-0.2l0.3,0.4c0,0.1,0.2,0.3,0.1,0.5c0,0.1-0.1,0.2-0.1,0.2c-0.3-0.3-0.7-0.4-0.7-0.4l-0.2-0.1L14,46
	c0.1,0.3,0,0.5-0.1,0.7c-0.1,0.2-0.2,0.4-0.2,0.6c0,0.3,0.1,0.5,0.3,0.6c-0.1,0.1-0.2,0.2-0.2,0.4c0,0.2,0.1,0.4,0.3,0.4
	c0,0.3,0.1,0.4,0.3,0.5l0.2,3.3c-0.2,0-0.4,0.2-0.4,0.4c0,0.2,0.2,0.4,0.4,0.4l0.1,1.4c0,0.2,0.2,0.4,0.4,0.4c0.2,0,0.4-0.2,0.4-0.4
	l0.1-1.4c0.2,0,0.4-0.2,0.4-0.4c0-0.2-0.2-0.4-0.4-0.4l0.2-3.3c0,0,0.1,0,0.1-0.1C16,49,16,48.9,16,48.7c0,0,0.1,0,0.1-0.1
	c0.1-0.1,0.2-0.2,0.1-0.4C16.3,48.1,16.2,48,16.1,47.9"/>
<path class="st0" d="M7.1,48.6l-1.4,0c-0.2,0-0.3-0.1-0.3-0.3c0-0.1,0-0.2,0.1-0.2C5.6,48,5.7,48,5.8,48H6c0,0,0,0,0,0l0,0h0.3
	l0.4,0h0.4c0.2,0,0.3,0.1,0.3,0.3C7.4,48.4,7.3,48.6,7.1,48.6 M7.1,49c0,0-0.1,0.1-0.2,0.1l-0.8,0c-0.1,0-0.2-0.1-0.3-0.3
	c0,0,0,0,0,0l1.4,0c0,0,0,0,0,0C7.2,48.9,7.1,48.9,7.1,49 M6.7,52.5l-0.6,0L6,49.3h0l0.8,0c0,0,0,0,0,0L6.7,52.5z M7.1,53
	c0,0.1,0,0.1-0.1,0.2c0,0-0.1,0.1-0.2,0.1H6.1l0,0.1v-0.1c-0.1,0-0.2-0.1-0.2-0.2c0-0.1,0.1-0.2,0.2-0.2h0.5l0.3,0
	C7,52.8,7.1,52.9,7.1,53 M6.5,55c-0.1,0-0.2-0.1-0.2-0.2l-0.1-1.4l0.5,0l-0.1,1.4C6.6,54.9,6.6,55,6.5,55 M5.3,47.3
	c0-0.2,0.1-0.3,0.2-0.5c0.1-0.2,0.2-0.4,0.2-0.7c0.1,0.1,0.3,0.2,0.4,0.3c0,0,0,0,0,0c0,0-0.1,0.1-0.1,0.1c0,0-0.6,0.5-0.2,1.2H5.8
	c0,0-0.1,0-0.1,0C5.6,47.8,5.3,47.6,5.3,47.3 M6.6,46.1c0-0.1,0-0.2,0-0.3c0.2,0.2,0.5,0.5,0.5,0.9c0,0.5-0.3,0.9-0.4,1H6.6
	c-0.1-0.1-0.3-0.4-0.1-0.8c0-0.1,0.2-0.3,0.2-0.4c0-0.1,0-0.1,0-0.1c0,0-0.1,0.1-0.1,0.1c-0.1,0.1-0.2,0.2-0.3,0.3
	c-0.3,0.4-0.1,0.8,0,0.9l-0.3,0c-0.4-0.6,0-1.1,0.1-1.1c0,0,0.1-0.1,0.1-0.1C6.4,46.4,6.5,46.3,6.6,46.1 M7.2,46.3
	c0.1-0.1,0.2-0.2,0.3-0.2c-0.1,0.5,0.2,1,0.2,1c0.1,0.4-0.3,0.6-0.4,0.7c0,0-0.1,0-0.1,0H6.9c0.2-0.2,0.4-0.6,0.4-1
	C7.3,46.6,7.2,46.3,7.2,46.3 M7.5,47.9C7.7,47.7,8,47.4,7.9,47c0,0-0.3-0.6-0.2-1.1l0.1-0.2l-0.2,0c0,0-0.3,0-0.5,0.3
	c-0.3-0.4-0.7-0.7-0.7-0.7L6,45.2l0.3,0.4c0.1,0.1,0.2,0.3,0.1,0.5c0,0.1-0.1,0.1-0.1,0.2C6,46,5.5,45.8,5.5,45.8l-0.2-0.1L5.4,46
	c0.1,0.3,0,0.5-0.1,0.7c-0.1,0.2-0.2,0.4-0.2,0.6c0,0.3,0.2,0.5,0.3,0.6c0,0,0,0,0,0c-0.1,0.1-0.1,0.2-0.1,0.4
	c0,0.2,0.1,0.4,0.3,0.4c0,0.2,0.1,0.4,0.3,0.5L6,52.6c-0.2,0-0.4,0.2-0.4,0.4c0,0.2,0.2,0.4,0.4,0.4l0.1,1.4c0,0.2,0.2,0.4,0.4,0.4
	c0.2,0,0.4-0.2,0.4-0.4l0.1-1.4c0.1,0,0.2,0,0.3-0.1c0.1-0.1,0.1-0.2,0.1-0.3c0-0.2-0.2-0.4-0.4-0.4l0.2-3.3c0,0,0.1,0,0.1-0.1
	c0.1-0.1,0.1-0.2,0.2-0.4c0.2-0.1,0.3-0.3,0.3-0.4C7.7,48.1,7.6,48,7.5,47.9"/>
<path class="st0" d="M12.1,49.1c-0.1,0.1-0.2,0.1-0.3,0.1l-1.9,0c-0.3,0-0.5-0.2-0.5-0.5c0-0.3,0.2-0.5,0.5-0.5c0,0,1.3,0,1.3,0h0.6
	c0.3,0,0.5,0.2,0.5,0.5C12.2,48.9,12.2,49,12.1,49.1 M11.4,49.9l-1.2,0h0c-0.2,0-0.4-0.2-0.4-0.4c0,0,0,0,0.1,0l1.9,0c0,0,0,0,0.1,0
	C11.8,49.7,11.6,49.9,11.4,49.9 M11.3,54.8l-0.9,0l-0.2-4.7c0,0,0,0,0,0h0l1.2,0c0,0,0,0,0.1,0L11.3,54.8z M11.8,55.4
	c0,0.2-0.2,0.4-0.4,0.4l-1.1,0c-0.2,0-0.4-0.2-0.4-0.4c0-0.2,0.2-0.4,0.4-0.4l0.8,0h0.3C11.6,55,11.8,55.2,11.8,55.4 M11.1,58
	c0,0.1,0,0.1-0.1,0.2c-0.1,0.1-0.1,0.1-0.2,0.1h0c-0.1,0-0.1,0-0.2-0.1c-0.1-0.1-0.1-0.1-0.1-0.2l-0.1-2l0.8,0L11.1,58z M9.2,47.4
	c0-0.3,0.1-0.5,0.2-0.7c0.1-0.3,0.3-0.6,0.2-1c0.2,0.1,0.5,0.2,0.7,0.4c0,0,0,0.1-0.1,0.1c0,0-0.1,0.1-0.1,0.1c0,0-0.8,0.8-0.2,1.7
	H9.8c-0.1,0-0.1,0-0.2,0C9.6,48.1,9.2,47.9,9.2,47.4 M10.8,45.7c0.1-0.2,0-0.4,0-0.5c0.3,0.3,0.8,0.8,0.8,1.4c0,0.7-0.5,1.3-0.6,1.4
	H11c-0.1-0.1-0.2-0.4-0.2-0.6c0-0.5,0.2-0.8,0.2-0.8s-0.3,0.2-0.3,0.6c0,0.2,0,0.4,0.2,0.7h-0.3c-0.1-0.2-0.4-0.6-0.1-1.1
	c0.1-0.1,0.4-0.5,0.4-0.6c0-0.1,0-0.2,0-0.2c0,0.1-0.1,0.2-0.1,0.2c-0.1,0.1-0.3,0.3-0.4,0.4c-0.5,0.5-0.1,1.2,0,1.3h-0.2
	c-0.7-0.9,0-1.6,0.1-1.6c0-0.1,0.1-0.1,0.1-0.1C10.6,46.2,10.7,46,10.8,45.7 M12.2,45.9c-0.1,0.7,0.1,1.2,0.1,1.3
	c0.2,0.6-0.3,0.9-0.4,1c0,0-0.1,0-0.1,0l-0.4,0c0.2-0.3,0.6-0.8,0.6-1.4c0-0.2,0-0.3-0.1-0.5C12,46,12.1,45.9,12.2,45.9 M12.2,48.2
	c0.2-0.2,0.6-0.6,0.4-1.2c0,0-0.3-0.6,0-1.3l0.1-0.2l-0.2,0c0,0-0.3,0-0.7,0.4c-0.3-0.7-1.1-1.1-1.1-1.2l-0.4-0.2l0.2,0.4
	c0,0,0.2,0.4,0.1,0.7c0,0.1-0.1,0.2-0.2,0.3c-0.4-0.4-1-0.5-1-0.5l-0.2,0l0.1,0.2c0.2,0.4,0,0.7-0.1,1C9.1,46.8,9,47.1,9,47.4
	c0,0.4,0.2,0.7,0.4,0.8c-0.2,0.1-0.3,0.3-0.3,0.5c0,0.3,0.2,0.5,0.4,0.6c0,0.3,0.2,0.5,0.4,0.6l0,0l0.2,4.8c-0.3,0-0.5,0.3-0.5,0.6
	c0,0.3,0.2,0.6,0.5,0.6l0.1,2c0,0.1,0.1,0.3,0.1,0.4c0.1,0.1,0.2,0.1,0.4,0.1h0c0.1,0,0.3-0.1,0.4-0.1c0.1-0.1,0.1-0.2,0.1-0.4
	l0.1-2c0.3,0,0.6-0.3,0.6-0.6c0-0.3-0.2-0.5-0.5-0.6l0.2-4.8h0c0.2-0.1,0.4-0.4,0.4-0.6c0.1,0,0.1-0.1,0.2-0.1
	c0.1-0.1,0.2-0.3,0.2-0.5C12.5,48.6,12.3,48.3,12.2,48.2"/>
</svg>
