<?xml version="1.0" encoding="utf-8"?>
<!-- Generator: Adobe Illustrator 21.0.2, SVG Export Plug-In . SVG Version: 6.00 Build 0)  -->
<svg version="1.1" id="Layer_1" xmlns="http://www.w3.org/2000/svg" xmlns:xlink="http://www.w3.org/1999/xlink" x="0px" y="0px"
	 viewBox="0 0 125 100" style="enable-background:new 0 0 125 100;" xml:space="preserve">
<style type="text/css">
	.st0{fill:#FFFFFF;}
</style>
<g>
	<g>
		<path class="st0" d="M53.6,37.8h4.9l11.3,14.8V37.8H75v24.1h-4.5L58.9,46.6v15.3h-5.2V37.8z"/>
		<path class="st0" d="M86.9,52.4l-9.3-14.6h6.2l5.7,9.7l5.8-9.7h6l-9.3,14.5v9.6h-5.3V52.4z"/>
		<path class="st0" d="M103.7,51.6V37.8h5.3v13.6c0,3.9,2,6,5.2,6c3.2,0,5.2-2,5.2-5.8V37.8h5.3v13.6c0,7.3-4.1,10.9-10.6,10.9
			C107.7,62.3,103.7,58.7,103.7,51.6z"/>
	</g>
	<path class="st0" d="M0.3,28.9v42.4h42.4V28.9H0.3z M17.5,53.7v-1.8h6.1v1.8H17.5z M22.3,54.5l-1.5,11.7c-0.1,0.4-0.8,0.3-0.8,0
		l-1.3-11.7H22.3z M20.9,50.5c-2.1-5,2-8,3.1-8.9c0.8-0.6,1.8-2,2.5-3.4c0,0,0.1-0.1,0.1,0c0.3,0.4,1.5,3.5,0.9,5.2
		c-0.4,1.1-5.2,1.3-6.4,7.1C20.9,50.6,20.9,50.6,20.9,50.5z M23.6,40.9c-0.8,0.8-6,4.4-3.4,9.9c0,0.1,0,0.1-0.1,0.1
		c-4.2-2.7-5.1-5.6-1.1-10.4c0.5-0.6,2.8-3.1,3.3-4.9c0-0.1,0.1-0.1,0.1,0c0.3,0.4,1.3,3.2,1.3,5C23.6,40.6,23.7,40.7,23.6,40.9z
		 M16.8,41.9c-1.8,2.7-2.2,6.4,2.1,9c0.1,0,0,0.1,0,0.1c-6.8-0.2-6.8-5.1-5.4-7.4c1.3-2.1,2.1-4,2.2-4.7c0-0.1,0.1-0.1,0.1,0
		c0.3,0.4,1,2.1,1.1,2.7C16.9,41.8,16.9,41.9,16.8,41.9z M21.8,51C21.8,51,21.7,51,21.8,51c0.2-2.3,1.7-4.7,4.2-5.8
		c2.8-1.2,3.8-3.2,4-3.7c0-0.1,0.1-0.1,0.1,0.1C30.1,44.3,29.6,51.3,21.8,51z"/>
</g>
</svg>
