<?xml version="1.0" encoding="utf-8"?>
<!-- Generator: Adobe Illustrator 21.0.2, SVG Export Plug-In . SVG Version: 6.00 Build 0)  -->
<svg version="1.1" id="Layer_1" xmlns="http://www.w3.org/2000/svg" xmlns:xlink="http://www.w3.org/1999/xlink" x="0px" y="0px"
	 viewBox="0 0 125 100" style="enable-background:new 0 0 125 100;" xml:space="preserve">
<style type="text/css">
	.st0{fill:#FFFFFF;}
</style>
<g>
	<path class="st0" d="M0.6,58.7c-0.2-1.3-0.1-3.2-0.1-4.2l2-22.4h7.3l-2,22.6c-0.4,4.9,1.5,8.4,6.4,8.4c5,0,7.6-3.6,8.1-7.9
		l2.1-23.1h7.3l-2,22.8c-0.8,8.8-6.6,15.4-16.1,15.4C6.2,70.3,1.5,65.6,0.6,58.7"/>
	<path class="st0" d="M34.6,51.1c1-10.8,8.2-19.7,20.8-19.7c3.3,0,6.5,0.8,9.6,2.8l-0.8,8.9c-2.9-3.8-6.3-4.4-9.5-4.4
		c-7.8,0-12.1,5.4-12.7,12.3c-0.6,6.7,2.9,12.1,10.4,12.1c3.3,0,6.8-1,10.5-4.6l-0.8,9.1c-3.6,1.9-6.9,2.8-10.2,2.8
		C39.4,70.4,33.7,61.2,34.6,51.1"/>
	<path class="st0" d="M70.9,32.1h7.3l-2.7,30.4H86c0.7,0,3.2,0,3.9-0.1c0,0.4-0.7,7-0.7,7H67.6L70.9,32.1z"/>
	<path class="st0" d="M109,46.1c0.2-0.5,0.5-1.2,0.5-1.6c0,0,0.1,0,0.1,0c0,0.5,0.1,1,0.3,1.6c0.4,1.7,3.3,11.2,3.3,11.2H104
		C104,57.3,108.9,46.3,109,46.1 M110.9,30.4l-0.5,0l-20,39.1h7.8l2.8-5.9h14.1l1.8,5.9h7.8L110.9,30.4z"/>
</g>
</svg>
