<?xml version="1.0" encoding="utf-8"?>
<!-- Generator: Adobe Illustrator 21.0.2, SVG Export Plug-In . SVG Version: 6.00 Build 0)  -->
<svg version="1.1" id="Layer_1" xmlns="http://www.w3.org/2000/svg" xmlns:xlink="http://www.w3.org/1999/xlink" x="0px" y="0px"
	 viewBox="0 0 125 100" style="enable-background:new 0 0 125 100;" xml:space="preserve">
<style type="text/css">
	.st0{fill:#FFFFFF;}
</style>
<g>
	<path class="st0" d="M62.3,4.8c-24.5,0-44.4,19.9-44.4,44.5c0,24.6,19.9,44.5,44.4,44.5c24.5,0,44.4-19.9,44.4-44.5
		C106.8,24.8,86.9,4.8,62.3,4.8z M62.3,92.7c-23.9,0-43.3-19.4-43.3-43.3C19.1,25.4,38.4,6,62.3,6c23.9,0,43.3,19.4,43.3,43.3
		C105.6,73.3,86.2,92.7,62.3,92.7z"/>
	<path class="st0" d="M62.3,6.3c-23.7,0-42.9,19.3-42.9,43c0,23.8,19.2,43,42.9,43c23.7,0,42.9-19.3,42.9-43
		C105.2,25.6,86,6.3,62.3,6.3z M62.3,91.8c-23.4,0-42.4-19-42.4-42.5c0-23.5,19-42.5,42.4-42.5c23.4,0,42.4,19,42.4,42.5
		C104.7,72.8,85.7,91.8,62.3,91.8z"/>
	<path class="st0" d="M62.3,18.8c-16.9,0-30.5,13.7-30.5,30.6c0,16.9,13.7,30.6,30.5,30.6c16.9,0,30.5-13.7,30.5-30.6
		C92.8,32.5,79.2,18.8,62.3,18.8z M62.3,78.8c-16.3,0-29.4-13.2-29.4-29.5c0-16.3,13.2-29.5,29.4-29.5c16.3,0,29.4,13.2,29.4,29.5
		C91.8,65.6,78.6,78.8,62.3,78.8z"/>
	<path class="st0" d="M97.9,81.5c-2,0-3.6,1.6-3.6,3.6c0,2,1.6,3.6,3.6,3.6c2,0,3.6-1.6,3.6-3.6C101.5,83.1,99.9,81.5,97.9,81.5z
		 M97.9,87.9c-1.6,0-2.8-1.3-2.8-2.9c0-1.6,1.3-2.9,2.8-2.9c1.6,0,2.9,1.3,2.9,2.9C100.8,86.6,99.5,87.9,97.9,87.9z"/>
	<path class="st0" d="M98.9,85.6c-0.1-0.1-0.2-0.2-0.4-0.3c0.3-0.1,0.6-0.2,0.8-0.4c0.2-0.2,0.3-0.4,0.3-0.7c0-0.2-0.1-0.4-0.2-0.6
		c-0.1-0.2-0.3-0.3-0.5-0.4c-0.2-0.1-0.5-0.1-0.9-0.1h-1.7V87h0.8v-1.6h0.2c0.2,0,0.3,0,0.4,0c0.1,0,0.2,0.1,0.2,0.2
		c0.1,0.1,0.2,0.3,0.4,0.6l0.6,0.8h0.9l-0.5-0.8C99.2,85.9,99,85.7,98.9,85.6z M98.3,84.7c-0.1,0-0.3,0-0.7,0H97v-1h0.6
		c0.3,0,0.5,0,0.6,0c0.1,0,0.2,0.1,0.3,0.2c0.1,0.1,0.1,0.2,0.1,0.3c0,0.1,0,0.2-0.1,0.3C98.4,84.6,98.4,84.7,98.3,84.7z"/>
	<path class="st0" d="M54.7,81.1c-0.1,0-0.6,0.1-1.2,0.1c-0.5,0-1.2,0-1.7-0.1c-0.1,0-0.2,0.3-0.1,0.4l0.6,0.2
		c0.5,0.2,0.5,0.4,0.3,1.2l-1,4c-0.3,1-0.4,1.1-1,1l-0.5-0.1c-0.1,0-0.2,0.4-0.1,0.4c0.5,0.1,1.2,0.3,2,0.5c0.8,0.2,1.5,0.4,2,0.6
		c0.1,0,0.2-0.3,0.1-0.4l-0.5-0.2c-0.6-0.2-0.6-0.4-0.4-1.3l1.2-4.7c0.2-0.6,0.3-1.2,0.4-1.4C54.9,81.2,54.8,81.2,54.7,81.1z"/>
	<path class="st0" d="M61.6,83.9c0.1-1.3-0.9-2.2-2.4-2.3c-1.7-0.2-2.9,0.7-3,2c-0.1,0.9,0.4,1.6,1.2,2.2c-1.1,0.3-1.9,0.9-2,2
		c-0.1,1.5,1.2,2.3,2.7,2.5c2.1,0.2,3.2-0.7,3.3-1.9c0.1-1.3-0.6-2.1-1.6-2.7C60.6,85.3,61.5,84.8,61.6,83.9z M59.6,88.4
		c-0.1,0.8-0.7,1.2-1.2,1.1c-0.9-0.1-1.4-0.9-1.3-1.8c0.1-0.7,0.3-1.2,0.9-1.7C59.1,86.8,59.7,87.4,59.6,88.4z M60,83.7
		c-0.1,0.6-0.3,1.2-0.8,1.4c-1.1-0.6-1.5-1.2-1.4-1.8c0.1-0.7,0.6-1.2,1.2-1.1C59.6,82.2,60.1,82.8,60,83.7z"/>
	<path class="st0" d="M74.6,87.9L74.1,88c-0.6,0.1-0.7,0-1-1l-1.2-4.7c-0.2-0.6-0.3-1.2-0.3-1.5c-0.1-0.1-0.1-0.1-0.2-0.1
		c-0.1,0-0.5,0.4-1,0.7c-0.5,0.3-1,0.6-1.5,0.8c-0.1,0.1,0,0.4,0.1,0.4l0.6-0.1c0.6-0.1,0.7,0.1,0.9,0.9l1,4c0.3,1,0.2,1.1-0.4,1.3
		L70.5,89c-0.1,0.1,0,0.4,0.1,0.4c0.4-0.1,1.2-0.4,2-0.6c0.8-0.2,1.5-0.4,2-0.5C74.8,88.3,74.7,88,74.6,87.9z"/>
	<path class="st0" d="M67.1,85c-0.7-0.3-1.9-0.4-2.6-0.4c-0.2,0-0.4,0-0.4-0.3l0-0.3c0-0.2,0.1-0.4,0.2-0.4c0,0,2.3-0.1,2.8-0.6
		c0.4-0.5,0.5-0.9,0.6-1.4c0-0.1-0.1-0.2-0.1-0.1l-3.2,0.7c-0.4,0.1-0.5,0.1-0.5,0.4l-0.5,3c0,0.3,0,0.4,0.4,0.4
		c1.2,0,3.3,0.5,3.1,1.7c-0.1,0.7-0.4,1.2-1,1.4c-0.7,0.2-2.7-0.3-1.3-1.6c0.3-0.2,0.3-0.2,0.2-0.3c-0.1,0-0.2-0.1-0.3-0.1
		c-0.4-0.1-1,0.1-1.2,0.4C63,88,62.8,88.4,63,88.9c0.1,0.8,2,1.9,3.9,1.1c1.6-0.6,1.8-1.6,1.7-3C68.5,85.9,67.8,85.3,67.1,85z"/>
	<path class="st0" d="M38.3,71.9c0.1,0.1,0.1,0.2,0.2,0.3c0.1,0.1,0.1,0.2,0.1,0.3c0,0.1,0,0.2,0,0.3c0,0.1-0.1,0.2-0.2,0.3L36.6,75
		l-0.5-0.5c-0.1-0.1-0.2-0.3-0.3-0.4c-0.1-0.1-0.1-0.3-0.1-0.4c0-0.1,0.1-0.3,0.2-0.5c0.1-0.2,0.2-0.4,0.3-0.5L36,72.3l-2.4,2.4
		l0.3,0.3c0.1-0.1,0.3-0.2,0.5-0.3c0.2-0.1,0.4-0.2,0.5-0.2c0.2,0,0.3,0,0.5,0.1c0.1,0.1,0.3,0.2,0.4,0.3l0.5,0.5l-2.3,2.2l-0.7-0.8
		c-0.1-0.1-0.2-0.2-0.3-0.3c-0.1-0.1-0.2-0.2-0.2-0.3c-0.1-0.2-0.1-0.5-0.1-0.9c0.1-0.4,0.2-0.8,0.4-1.1l-0.3-0.3l-1.5,1.5l4.3,4.4
		l0.3-0.3c0-0.1-0.1-0.2-0.2-0.3c-0.1-0.1-0.1-0.2-0.2-0.3c0-0.1,0-0.3,0-0.3c0-0.1,0.1-0.2,0.2-0.3l4.1-4c0.1-0.1,0.2-0.2,0.3-0.2
		c0.1,0,0.2,0,0.3,0c0.1,0,0.2,0.1,0.3,0.2c0.1,0.1,0.2,0.2,0.3,0.2l0.3-0.3l-2.6-2.7L38.3,71.9z"/>
	<path class="st0" d="M30.6,72.6l4.8-3.1c0.1-0.1,0.2-0.1,0.3-0.1c0.1,0,0.2,0,0.3,0.1c0,0,0.1,0.1,0.2,0.2c0.1,0.1,0.2,0.2,0.3,0.3
		l0.4-0.2l-3.5-5.3l-2.2,1.3l0.2,0.3c0.3-0.1,0.6-0.1,1-0.2c0.4,0,0.7-0.1,1,0c0.2,0,0.3,0.1,0.5,0.3c0.2,0.2,0.3,0.4,0.5,0.6
		c0.1,0.2,0.2,0.4,0.3,0.5c0.1,0.1,0.1,0.3,0.1,0.4c0,0.1-0.1,0.2-0.2,0.3c-0.1,0.1-0.3,0.2-0.5,0.4l-4.4,2.9
		c-0.1,0.1-0.2,0.1-0.3,0.1c-0.1,0-0.2,0-0.3-0.1c-0.1-0.1-0.2-0.2-0.3-0.3c-0.1-0.1-0.2-0.2-0.2-0.3L28,71l2.1,3.2l0.4-0.2
		c0-0.1-0.1-0.2-0.1-0.3c-0.1-0.1-0.1-0.3-0.1-0.4c0-0.2,0-0.3,0.1-0.3C30.4,72.8,30.5,72.7,30.6,72.6z"/>
	<path class="st0" d="M31.1,64.9c0.4-0.4,0.7-0.8,0.9-1.2c0.2-0.4,0.3-0.9,0.4-1.4c0-0.5-0.1-1-0.2-1.4c-0.2-0.6-0.5-1-0.9-1.4
		c-0.4-0.3-0.8-0.6-1.3-0.8c-0.5-0.2-1-0.2-1.5-0.2c-0.6,0-1.1,0.1-1.7,0.4c-0.6,0.2-1.1,0.5-1.5,0.9c-0.4,0.4-0.7,0.8-0.9,1.2
		c-0.2,0.4-0.3,0.9-0.4,1.4c0,0.5,0.1,1,0.2,1.5c0.2,0.5,0.5,0.9,0.8,1.3c0.4,0.4,0.8,0.6,1.2,0.8c0.5,0.2,1,0.3,1.6,0.3
		c0.6,0,1.2-0.1,1.8-0.4C30.2,65.5,30.7,65.2,31.1,64.9z M26.1,64.5c-0.7-0.1-1.2-0.4-1.4-0.9c-0.1-0.3-0.1-0.6,0-0.9
		c0.1-0.3,0.3-0.6,0.6-0.8c0.3-0.3,0.6-0.5,1-0.7c0.4-0.2,0.8-0.4,1.2-0.6c0.5-0.2,1-0.3,1.4-0.4c0.4-0.1,0.8-0.1,1.2-0.1
		c0.4,0,0.7,0.1,0.9,0.2c0.3,0.1,0.4,0.4,0.6,0.7c0.1,0.3,0.1,0.6,0,0.9c-0.1,0.3-0.3,0.5-0.5,0.8c-0.3,0.2-0.6,0.5-1,0.7
		c-0.4,0.2-0.8,0.4-1.3,0.6C27.8,64.4,26.9,64.6,26.1,64.5z"/>
	<path class="st0" d="M29.7,56.3c0.1,0,0.2,0.1,0.3,0.2c0,0.1,0.1,0.2,0.1,0.3c0,0.1,0.1,0.3,0.1,0.4l0.4-0.1l-0.5-3.7l-0.4,0.1
		c0,0.1,0,0.2,0,0.3c0,0.1,0,0.2-0.1,0.3c0,0.1-0.1,0.2-0.2,0.3c-0.1,0.1-0.2,0.1-0.3,0.1l-2.4,0.3l0-0.3c0.6-0.5,1.1-1,1.5-1.3
		c0.4-0.4,1-0.8,1.8-1.4l-0.3-2.6l-0.4,0.1c0,0,0,0.1,0,0.2c0,0.1,0,0.2,0,0.3c0,0.1-0.1,0.3-0.3,0.5c-0.2,0.2-0.4,0.4-0.5,0.5
		c-0.4,0.4-0.8,0.7-1.2,1.1c-0.4,0.3-0.7,0.7-1.1,0.9c-0.3-0.5-0.6-0.9-1-1.2c-0.4-0.2-0.8-0.3-1.4-0.2c-0.6,0.1-1.1,0.4-1.3,0.9
		c-0.3,0.5-0.3,1.2-0.2,2l0.5,3.8l0.4-0.1c0-0.1,0-0.2,0-0.3c0-0.1,0-0.3,0.1-0.4c0.1-0.1,0.1-0.2,0.2-0.3c0.1,0,0.2-0.1,0.3-0.1
		l5.6-0.7C29.5,56.3,29.6,56.3,29.7,56.3z M22.8,55.4L22.7,55c-0.1-0.5,0-0.8,0.2-1.1c0.2-0.3,0.6-0.5,1.1-0.5
		c0.6-0.1,1.1,0,1.4,0.2c0.3,0.2,0.5,0.6,0.6,1l0,0.4L22.8,55.4z"/>
	<path class="st0" d="M22.4,47.8c0.1-0.1,0.1-0.3,0.1-0.3c0.1-0.1,0.2-0.2,0.3-0.2c0.1,0,0.2,0,0.3,0l5.7,0.4c0.1,0,0.3,0,0.3,0.1
		c0.1,0,0.2,0.1,0.2,0.3c0,0.1,0,0.2,0,0.4c0,0.2,0,0.3,0,0.4l0.4,0l0.3-3.8l-0.4,0c0,0.1,0,0.2-0.1,0.4c0,0.2-0.1,0.3-0.1,0.3
		c-0.1,0.1-0.2,0.2-0.3,0.2c-0.1,0-0.2,0-0.4,0l-5.7-0.4c-0.1,0-0.2,0-0.4-0.1c-0.1,0-0.2-0.1-0.2-0.3c0-0.1,0-0.2-0.1-0.4
		c0-0.1,0-0.3,0-0.4l-0.4,0l-0.3,3.8l0.4,0C22.3,48.1,22.3,47.9,22.4,47.8z"/>
	<path class="st0" d="M22.8,42.1c0.1-0.1,0.1-0.2,0.2-0.3c0.1-0.1,0.2-0.2,0.3-0.2c0.1,0,0.2,0,0.4,0l5.5,1.5c0.1,0,0.2,0.1,0.3,0.2
		c0.1,0.1,0.1,0.2,0.2,0.3c0,0.1,0,0.2,0,0.3c0,0.2,0,0.3-0.1,0.4l0.4,0.1L31,41c0.1-0.5,0.2-1,0.2-1.6c0-0.5-0.1-1-0.3-1.5
		c-0.2-0.5-0.5-0.9-1-1.2c-0.4-0.4-1-0.6-1.6-0.8c-0.7-0.2-1.4-0.3-2-0.1c-0.6,0.1-1.1,0.3-1.5,0.6c-0.4,0.3-0.7,0.7-1,1.1
		c-0.2,0.4-0.4,0.8-0.5,1.2l-1,3.5l0.4,0.1C22.7,42.3,22.8,42.2,22.8,42.1z M23.6,39.4c0-0.1,0.1-0.3,0.1-0.4
		c0.1-0.3,0.3-0.6,0.5-0.8c0.2-0.2,0.5-0.4,0.9-0.5c0.3-0.1,0.7-0.1,1.2-0.1c0.4,0,0.9,0.1,1.4,0.2c0.5,0.1,1,0.3,1.4,0.5
		c0.4,0.2,0.7,0.4,1,0.6c0.3,0.2,0.4,0.5,0.5,0.8c0.1,0.3,0.1,0.6,0,1c0,0.2-0.1,0.3-0.2,0.4c-0.1,0.1-0.2,0.2-0.3,0.2
		c-0.1,0.1-0.2,0.1-0.3,0.1c-0.1,0-0.2,0-0.4-0.1l-5.9-1.6C23.5,39.7,23.6,39.6,23.6,39.4z"/>
	<path class="st0" d="M31.2,35.6c0.1,0.1,0.2,0.3,0.3,0.4c0.1,0.1,0.1,0.3,0.1,0.5c0,0.1,0,0.2,0,0.3c0,0.1-0.1,0.2-0.1,0.3l0.4,0.2
		l1.3-2.5l-0.4-0.2c-0.2,0.3-0.4,0.5-0.5,0.6c-0.1,0.1-0.3,0.1-0.4,0.1c0,0-0.1-0.1-0.2-0.1c-0.1-0.1-0.2-0.2-0.4-0.3
		c-0.1-0.1-0.3-0.3-0.4-0.4c-0.2-0.2-0.3-0.3-0.4-0.4l1.1-2.1l1.8,0.3c0.1,0,0.1,0,0.2,0c0,0,0.1,0,0.1,0c0.1,0,0.1,0.2,0,0.4
		c-0.1,0.2-0.1,0.4-0.2,0.6l0.4,0.2l1.8-3.3l-0.4-0.2c-0.1,0.1-0.1,0.2-0.2,0.3c-0.1,0.1-0.2,0.2-0.3,0.2c-0.1,0.1-0.3,0.1-0.4,0.1
		c-0.1,0-0.2,0-0.4,0c-0.7-0.1-1.7-0.3-2.8-0.5c-1.1-0.2-2.6-0.4-4.5-0.8l-0.5,0.9c0.9,1,1.8,2,2.5,2.8
		C29.7,33.9,30.5,34.7,31.2,35.6z M31.2,31.9l-1,1.8l-2.1-2.3L31.2,31.9z"/>
	<path class="st0" d="M36.8,20.6c0.3,0.4,0.7,0.7,1.1,0.9c0.4,0.2,0.9,0.2,1.4,0.1c0.2-0.1,0.4-0.1,0.7-0.2c0.2-0.1,0.5-0.1,0.8-0.2
		c0.4-0.1,0.8-0.2,1.1-0.1c0.3,0.1,0.5,0.2,0.7,0.5c0.2,0.3,0.3,0.6,0.3,1c0,0.3-0.2,0.6-0.6,0.9c-0.3,0.2-0.5,0.3-0.8,0.3
		c-0.3,0-0.6,0-0.9-0.1c-0.3-0.1-0.6-0.2-0.9-0.3c-0.3-0.2-0.6-0.3-0.8-0.5l-0.3,0.3l1.8,2.3l0.3-0.3l0-0.5c0.3,0,0.6-0.1,1-0.2
		c0.4-0.1,0.7-0.3,1-0.6c0.4-0.3,0.6-0.6,0.8-0.9c0.2-0.3,0.3-0.6,0.4-1c0.1-0.3,0-0.6-0.1-1c-0.1-0.3-0.2-0.7-0.5-0.9
		c-0.3-0.4-0.7-0.7-1.1-0.9c-0.4-0.1-0.9-0.2-1.4,0c-0.2,0-0.4,0.1-0.7,0.2c-0.3,0.1-0.5,0.2-0.8,0.2c-0.4,0.1-0.8,0.2-1,0.1
		c-0.3,0-0.5-0.2-0.7-0.5c-0.2-0.3-0.3-0.6-0.3-0.9c0-0.3,0.2-0.6,0.5-0.8c0.2-0.2,0.5-0.3,0.7-0.3c0.2,0,0.5,0,0.8,0.1
		c0.2,0.1,0.5,0.2,0.8,0.4c0.3,0.2,0.6,0.3,0.8,0.5l0.3-0.3l-1.7-2.2L39.2,16l0,0.5c-0.2,0-0.5,0.1-0.9,0.2c-0.3,0.1-0.7,0.3-1,0.5
		c-0.3,0.2-0.6,0.5-0.7,0.8c-0.2,0.3-0.3,0.6-0.3,0.9c0,0.3,0,0.6,0.1,0.9C36.5,20.1,36.6,20.3,36.8,20.6z"/>
	<path class="st0" d="M42.4,16.6c-0.1-0.4-0.1-0.8-0.1-1.2c0-0.4,0.1-0.7,0.3-0.8c0.1-0.1,0.2-0.1,0.3-0.2c0.1-0.1,0.2-0.1,0.3-0.2
		l0.2-0.1l2.9,5.7c0.1,0.1,0.1,0.2,0.1,0.4c0,0.1,0,0.2-0.1,0.3c0,0.1-0.1,0.1-0.3,0.2c-0.1,0.1-0.3,0.2-0.3,0.2l0.2,0.4l3.4-1.7
		l-0.2-0.4c-0.1,0-0.2,0.1-0.4,0.1c-0.2,0-0.3,0.1-0.4,0.1c-0.1,0-0.2,0-0.3-0.1c-0.1-0.1-0.2-0.2-0.2-0.3L45,13.2l0.2-0.1
		c0.1,0,0.2-0.1,0.4-0.2c0.1-0.1,0.3-0.1,0.4-0.1c0.2-0.1,0.5,0,0.8,0.3c0.4,0.3,0.7,0.5,0.9,0.8l0.3-0.2l-1-2.1l-5.9,3l1,2.1
		L42.4,16.6z"/>
	<path class="st0" d="M52.5,18.4l-0.1-0.4C52,18,51.8,18,51.6,18c-0.2,0-0.3-0.1-0.3-0.2c0,0,0-0.1,0-0.2c0-0.1,0-0.3,0-0.5
		c0-0.2,0-0.4,0-0.6c0-0.2,0-0.4,0-0.6l2.3-0.6l1,1.5c0,0.1,0.1,0.1,0.1,0.1c0,0,0,0.1,0,0.1c0,0.1-0.1,0.2-0.3,0.3
		c-0.2,0.1-0.4,0.2-0.6,0.3L54,18l3.6-1l-0.1-0.4c-0.1,0-0.2,0-0.3,0c-0.1,0-0.2,0-0.3,0c-0.1,0-0.2-0.1-0.3-0.2
		c-0.1-0.1-0.2-0.2-0.2-0.3c-0.4-0.6-1-1.4-1.6-2.3C54,12.8,53.1,11.6,52,10l-0.9,0.3c-0.1,1.4-0.2,2.6-0.3,3.8
		c-0.1,1.1-0.2,2.3-0.2,3.4c0,0.2,0,0.4-0.1,0.5c-0.1,0.2-0.1,0.3-0.2,0.4c-0.1,0.1-0.1,0.1-0.3,0.2c-0.1,0.1-0.2,0.1-0.3,0.2
		l0.1,0.4L52.5,18.4z M51.5,12.2l1.7,2.6l-1.9,0.5L51.5,12.2z"/>
	<path class="st0" d="M57,11.3c0.1-0.4,0.2-0.7,0.4-1.1c0.2-0.4,0.4-0.6,0.6-0.7c0.1,0,0.2,0,0.4-0.1c0.1,0,0.3,0,0.4,0l0.2,0
		l0.4,6.4c0,0.1,0,0.3,0,0.4c0,0.1-0.1,0.2-0.2,0.3c-0.1,0-0.2,0.1-0.3,0.1c-0.2,0-0.3,0.1-0.4,0.1l0,0.4l3.8-0.2l0-0.4
		c-0.1,0-0.2,0-0.4-0.1c-0.2,0-0.3-0.1-0.4-0.1c-0.1-0.1-0.2-0.1-0.3-0.2c0-0.1-0.1-0.2-0.1-0.4l-0.4-6.3l0.2,0c0.1,0,0.2,0,0.4,0
		c0.2,0,0.3,0,0.4,0c0.2,0,0.4,0.2,0.7,0.6c0.2,0.4,0.4,0.7,0.5,1.1l0.4,0l-0.1-2.3l-6.7,0.4l0.1,2.3L57,11.3z"/>
	<path class="st0" d="M70.3,15.1l-0.4,0c-0.1,0.2-0.2,0.4-0.5,0.8c-0.2,0.4-0.5,0.6-0.6,0.8c-0.1,0.1-0.2,0.1-0.3,0.1
		c-0.1,0-0.3,0-0.4,0c-0.1,0-0.3,0-0.4,0c-0.2,0-0.3,0-0.4,0c-0.2,0-0.4-0.1-0.6-0.1c-0.1,0-0.2-0.1-0.3-0.2
		c-0.1-0.1-0.1-0.2-0.1-0.3c0-0.1,0-0.3,0-0.6l0.3-2.3l0.7,0.1c0.2,0,0.4,0.1,0.5,0.1c0.1,0.1,0.2,0.2,0.3,0.3
		c0.1,0.1,0.1,0.3,0.2,0.5c0,0.3,0.1,0.5,0.1,0.6l0.4,0l0.4-3.4l-0.4-0.1c0,0.2-0.1,0.3-0.2,0.6c-0.1,0.2-0.2,0.4-0.3,0.4
		c-0.1,0.1-0.3,0.2-0.4,0.2c-0.1,0-0.3,0-0.5,0l-0.7-0.1l0.4-3.1l1,0.1c0.1,0,0.2,0,0.4,0.1c0.2,0,0.3,0.1,0.4,0.1
		c0.2,0.1,0.4,0.3,0.6,0.6c0.2,0.3,0.3,0.7,0.4,1l0.4,0.1l0.3-2l-6-0.8l-0.1,0.4c0.1,0,0.2,0.1,0.3,0.1c0.1,0.1,0.3,0.1,0.3,0.2
		c0.1,0.1,0.2,0.2,0.2,0.3c0,0.1,0,0.2,0,0.3l-0.7,5.7c0,0.1-0.1,0.3-0.1,0.3c-0.1,0.1-0.1,0.2-0.3,0.2c-0.1,0-0.2,0-0.3,0
		c-0.2,0-0.3,0-0.4,0l-0.1,0.4l6.4,0.9L70.3,15.1z"/>
	<path class="st0" d="M79.8,22.3c0.7,0.5,1.4,0.6,2.1,0.4c0.7-0.2,1.3-0.6,1.8-1.4l1.6-2.5c0.3-0.4,0.5-0.7,0.7-0.9
		c0.2-0.2,0.3-0.3,0.5-0.3c0.2,0,0.3,0,0.5,0.1c0.2,0.1,0.3,0.1,0.4,0.2l0.2-0.4l-2.5-1.6l-0.2,0.4c0.1,0.1,0.2,0.2,0.3,0.3
		c0.1,0.2,0.2,0.3,0.2,0.4c0,0.2,0,0.3-0.1,0.6c-0.1,0.2-0.3,0.6-0.5,1l-1.5,2.3c-0.4,0.7-0.9,1.1-1.4,1.2c-0.5,0.2-1,0.1-1.4-0.2
		c-0.5-0.3-0.7-0.7-0.8-1.2c-0.1-0.5,0.1-1,0.6-1.7l2.2-3.4c0.1-0.1,0.2-0.2,0.2-0.3c0.1-0.1,0.2-0.1,0.3-0.1c0.1,0,0.2,0.1,0.3,0.1
		c0.1,0,0.2,0.1,0.3,0.1l0.2-0.4l-3-2l-0.2,0.4c0.1,0.1,0.1,0.1,0.2,0.2c0.1,0.1,0.2,0.2,0.2,0.3c0.1,0.1,0.1,0.2,0.1,0.4
		c0,0.1-0.1,0.2-0.1,0.3l-2.2,3.5c-0.5,0.8-0.7,1.5-0.5,2.3C78.5,21.1,79,21.8,79.8,22.3z"/>
	<path class="st0" d="M88.2,20.5l-2.8,2.7c-0.4,0.4-0.7,0.6-0.9,0.7C84.4,24,84.2,24.1,84,24c-0.1,0-0.3-0.1-0.4-0.2
		c-0.1-0.1-0.3-0.2-0.4-0.3l-0.3,0.3l2.1,2.2l0.3-0.3c-0.1-0.1-0.1-0.2-0.2-0.4c-0.1-0.2-0.1-0.3-0.1-0.5c0-0.2,0.1-0.4,0.2-0.6
		c0.1-0.2,0.4-0.5,0.7-0.8l2.7-2.6L87,28.3l0.6,0.6l4.2-4c0.3-0.3,0.6-0.6,0.8-0.7c0.2-0.1,0.4-0.2,0.6-0.2c0.2,0,0.3,0.1,0.5,0.2
		s0.2,0.2,0.3,0.2l0.3-0.3L92.3,22l-0.3,0.3c0.1,0.1,0.1,0.2,0.2,0.4c0.1,0.2,0.1,0.3,0.1,0.5c0,0.2-0.1,0.4-0.2,0.6
		c-0.1,0.2-0.4,0.5-0.7,0.8l-2.2,2.1l1.3-6.5l-1.8-1.9l-0.3,0.3c0.1,0.2,0.2,0.3,0.2,0.5c0,0.2,0.1,0.3,0,0.5c0,0.2-0.1,0.3-0.2,0.5
		C88.4,20.2,88.3,20.4,88.2,20.5z"/>
	<path class="st0" d="M94.5,26.8L89.7,30c-0.1,0.1-0.2,0.1-0.3,0.1c-0.1,0-0.2,0-0.3-0.1c-0.1,0-0.1-0.1-0.3-0.3
		c-0.1-0.1-0.2-0.2-0.2-0.3l-0.4,0.2l2.1,3.2l0.4-0.2c-0.1-0.1-0.1-0.2-0.2-0.4c-0.1-0.1-0.1-0.3-0.1-0.3c0-0.1,0-0.2,0.1-0.3
		c0.1-0.1,0.1-0.2,0.3-0.2l4.8-3.2c0.1-0.1,0.2-0.1,0.3-0.1c0.1,0,0.2,0,0.3,0.1c0.1,0.1,0.2,0.2,0.3,0.3c0.1,0.1,0.2,0.2,0.2,0.3
		l0.4-0.2l-2.1-3.2l-0.4,0.2c0,0.1,0.1,0.2,0.2,0.4c0.1,0.1,0.1,0.3,0.1,0.4c0,0.1,0,0.2-0.1,0.3C94.7,26.6,94.6,26.7,94.5,26.8z"/>
	<path class="st0" d="M97.1,30.3c-0.1,0.1-0.2,0.2-0.3,0.4c-0.4,0.4-1.1,1.1-2.1,2.1c-1,1-2.1,1.9-3.1,2.9l0.4,0.9
		c0.7-0.1,1.4-0.1,2.1-0.2c0.7-0.1,1.4-0.1,2-0.2c0.7-0.1,1.3-0.1,1.8-0.1c0.5,0,0.9-0.1,1.2-0.1c0.2,0,0.4,0,0.5,0
		c0.1,0,0.3,0.1,0.4,0.2c0.1,0.1,0.2,0.1,0.3,0.2c0.1,0.1,0.1,0.2,0.2,0.3l0.4-0.2l-1.1-2.5L99.4,34c0.1,0.4,0.2,0.7,0.2,0.8
		c0,0.2-0.1,0.3-0.2,0.3c-0.1,0-0.3,0.1-0.5,0.1c-0.2,0-0.4,0.1-0.7,0.1c-0.5,0.1-1.1,0.1-1.8,0.2c-0.7,0.1-1.5,0.1-2.5,0.2
		c1.2-1.1,2.1-2,2.7-2.5c0.6-0.6,1-1,1.3-1.2c0.1-0.1,0.1-0.1,0.2-0.1c0,0,0.1-0.1,0.1-0.1c0.1,0,0.2,0,0.3,0.1
		c0.1,0.1,0.2,0.3,0.4,0.6l0.4-0.2L97.6,29l-0.4,0.2c0,0.1,0.1,0.2,0.1,0.3c0,0.1,0,0.2,0,0.3C97.2,30,97.2,30.2,97.1,30.3z"/>
	<path class="st0" d="M100.8,38c0,0.2,0,0.3,0,0.4c0,0.1-0.1,0.3-0.2,0.3c-0.1,0.1-0.2,0.1-0.3,0.1L94.6,40c-0.1,0-0.3,0-0.4,0
		c-0.1,0-0.2-0.1-0.3-0.2c0-0.1-0.1-0.2-0.1-0.3c-0.1-0.1-0.1-0.3-0.1-0.4l-0.4,0.1l1.4,6.3l2.5-0.4l-0.1-0.4
		c-0.2,0-0.5-0.1-0.9-0.2c-0.4-0.1-0.7-0.2-0.9-0.3c-0.1,0-0.2-0.1-0.2-0.2c-0.1-0.1-0.1-0.2-0.2-0.4c0-0.1-0.1-0.2-0.1-0.4
		c0-0.2-0.1-0.3-0.1-0.4c-0.1-0.2-0.1-0.4-0.1-0.6c0-0.1,0-0.3,0.1-0.4c0.1-0.1,0.2-0.2,0.3-0.2c0.1-0.1,0.3-0.1,0.6-0.2l2.3-0.5
		l0.1,0.7c0,0.2,0.1,0.4,0,0.5c0,0.2-0.1,0.3-0.2,0.4c-0.1,0.1-0.2,0.2-0.4,0.3c-0.2,0.1-0.4,0.2-0.6,0.3l0.1,0.4l3.3-0.7l-0.1-0.4
		c-0.2,0-0.4,0-0.6,0c-0.2,0-0.4-0.1-0.5-0.1c-0.2-0.1-0.3-0.2-0.4-0.3c-0.1-0.1-0.1-0.3-0.2-0.5L98.2,41l3-0.7l0.2,1
		c0,0.1,0,0.2,0.1,0.4c0,0.2,0,0.3,0,0.4c0,0.2-0.1,0.5-0.4,0.8c-0.3,0.3-0.5,0.5-0.8,0.7l0.1,0.4l2-0.4l-1.3-6l-0.4,0.1
		C100.8,37.7,100.8,37.8,100.8,38z"/>
	<path class="st0" d="M102.4,46.2c0,0.1,0,0.2-0.1,0.3c0,0.1-0.1,0.3-0.1,0.4c-0.1,0.1-0.2,0.2-0.2,0.3c-0.1,0-0.2,0.1-0.3,0.1
		l-5.7-0.1c-0.1,0-0.3,0-0.4-0.1c-0.1,0-0.2-0.1-0.2-0.3c0-0.1-0.1-0.2-0.1-0.3c0-0.2,0-0.3,0-0.4l-0.4,0l0,3.7l0.4,0
		c0-0.1,0-0.2,0.1-0.3c0-0.1,0.1-0.2,0.1-0.3c0.1-0.1,0.1-0.2,0.2-0.2c0.1,0,0.2-0.1,0.3-0.1l2.5,0l0,0.3c-0.6,0.4-1.2,0.8-1.7,1.1
		c-0.5,0.3-1.1,0.7-2,1.1l0,2.6l0.4,0c0,0,0-0.1,0-0.2c0-0.1,0-0.2,0.1-0.3c0.1-0.1,0.2-0.3,0.4-0.5c0.2-0.2,0.4-0.3,0.5-0.4
		c0.5-0.3,0.9-0.6,1.4-0.9c0.4-0.3,0.8-0.5,1.2-0.8c0.2,0.6,0.5,1,0.8,1.3c0.3,0.3,0.8,0.4,1.4,0.4c0.6,0,1.1-0.2,1.4-0.7
		c0.3-0.4,0.5-1.1,0.5-2l0-3.9L102.4,46.2z M102.3,49.3c0,0.5-0.1,0.8-0.4,1.1c-0.2,0.3-0.6,0.4-1.2,0.4c-0.6,0-1.1-0.1-1.4-0.4
		c-0.3-0.3-0.4-0.6-0.4-1.1l0-0.4l3.4,0L102.3,49.3z"/>
	<path class="st0" d="M101.6,57.2c-0.2-0.3-0.4-0.5-0.6-0.7c-0.3-0.2-0.5-0.3-0.8-0.4c-0.5-0.1-0.9-0.1-1.4,0
		c-0.4,0.1-0.8,0.4-1.2,0.8c-0.1,0.2-0.3,0.4-0.4,0.6c-0.1,0.2-0.3,0.4-0.5,0.7c-0.3,0.4-0.5,0.6-0.8,0.8c-0.3,0.1-0.5,0.2-0.8,0.1
		c-0.4-0.1-0.7-0.3-0.8-0.6c-0.2-0.3-0.2-0.6-0.1-1.1c0.1-0.3,0.2-0.6,0.4-0.8c0.2-0.2,0.5-0.4,0.8-0.5c0.3-0.1,0.6-0.2,0.9-0.3
		c0.3-0.1,0.6-0.1,0.9-0.1l0.1-0.4l-2.8-0.7l-0.1,0.4l0.3,0.4c-0.2,0.2-0.4,0.5-0.6,0.8c-0.2,0.3-0.4,0.7-0.5,1.1
		c-0.1,0.4-0.1,0.8-0.1,1.2c0,0.4,0.1,0.7,0.3,1c0.2,0.3,0.4,0.5,0.7,0.7c0.3,0.2,0.6,0.4,0.9,0.5c0.5,0.1,1,0.1,1.4,0
		c0.4-0.1,0.8-0.4,1.1-0.8c0.1-0.2,0.3-0.4,0.4-0.6c0.2-0.2,0.3-0.4,0.5-0.6c0.3-0.4,0.5-0.6,0.7-0.7c0.2-0.1,0.5-0.2,0.8-0.1
		c0.3,0.1,0.6,0.3,0.8,0.5c0.2,0.3,0.2,0.6,0.1,0.9c-0.1,0.3-0.2,0.5-0.4,0.7c-0.2,0.2-0.4,0.3-0.6,0.4c-0.2,0.1-0.5,0.2-0.9,0.2
		c-0.3,0-0.7,0.1-1,0.1L98.3,61l2.7,0.6l0.1-0.4l-0.3-0.4c0.2-0.2,0.4-0.4,0.6-0.7c0.2-0.3,0.4-0.6,0.4-1c0.1-0.4,0.1-0.7,0.1-1.1
		C101.9,57.7,101.7,57.4,101.6,57.2z"/>
	<path class="st0" d="M99.8,63.5c-0.1,0.1-0.2,0.2-0.2,0.3c-0.1,0.1-0.2,0.1-0.3,0.1c-0.1,0-0.2,0-0.3-0.1l-5.3-2.2
		c-0.1-0.1-0.2-0.1-0.3-0.2c-0.1-0.1-0.1-0.2-0.1-0.3c0-0.1,0-0.2,0.1-0.4c0.1-0.2,0.1-0.3,0.1-0.4L93,60.2l-1.5,3.5l0.4,0.2
		c0-0.1,0.1-0.2,0.2-0.3c0.1-0.1,0.2-0.2,0.2-0.3c0.1-0.1,0.2-0.1,0.3-0.1c0.1,0,0.2,0,0.3,0.1l5.3,2.2c0.1,0.1,0.2,0.1,0.3,0.2
		c0.1,0.1,0.1,0.2,0.1,0.3c0,0.1,0,0.2-0.1,0.4c0,0.1-0.1,0.3-0.1,0.4l0.4,0.2l1.5-3.5l-0.4-0.2C99.9,63.2,99.9,63.3,99.8,63.5z"/>
	<path class="st0" d="M96.3,67c0.2,0.3,0.5,0.6,0.7,1c0.2,0.4,0.3,0.7,0.2,0.9c0,0.1-0.1,0.2-0.2,0.3c-0.1,0.1-0.1,0.2-0.2,0.3
		l-0.1,0.2l-5.4-3.4c-0.1-0.1-0.2-0.2-0.3-0.2C91,66,91,65.9,91,65.7c0-0.1,0-0.2,0.1-0.3c0.1-0.2,0.1-0.3,0.2-0.4l-0.4-0.2l-2,3.3
		l0.4,0.2c0.1-0.1,0.2-0.2,0.3-0.3c0.1-0.1,0.2-0.2,0.3-0.2c0.1-0.1,0.2-0.1,0.3-0.1c0.1,0,0.2,0.1,0.3,0.1l5.4,3.3l-0.1,0.2
		c-0.1,0.1-0.1,0.2-0.2,0.3c-0.1,0.1-0.2,0.2-0.2,0.3c-0.1,0.1-0.4,0.2-0.9,0.2c-0.4,0-0.8-0.1-1.2-0.2L93,72.3l2,1.2l3.5-5.7
		l-2-1.2L96.3,67z"/>
	<path class="st0" d="M94,74c-0.1,0.1-0.2,0.1-0.3,0.1c-0.1,0-0.3,0-0.5,0c-0.2,0-0.4,0-0.6-0.1c-0.4-0.1-0.9-0.3-1.4-0.4
		c-0.5-0.1-1-0.3-1.6-0.5c-0.2-0.1-0.3-0.1-0.5-0.1c-0.1,0-0.2-0.1-0.3-0.1c-0.1,0-0.1-0.1-0.2-0.1c-0.1-0.1-0.2-0.1-0.2-0.2l-1-1
		c-0.1-0.1-0.2-0.2-0.2-0.3c0-0.1,0-0.2,0-0.3c0-0.1,0.1-0.2,0.2-0.3c0.1-0.1,0.2-0.2,0.2-0.3l-0.3-0.3l-2.6,2.8l0.3,0.3
		c0.1-0.1,0.2-0.1,0.3-0.2c0.2-0.1,0.3-0.2,0.3-0.2c0.1,0,0.2-0.1,0.4,0c0.1,0,0.2,0.1,0.3,0.2l0.8,0.8c0.3,0.3,0.5,0.5,0.6,0.7
		c0.1,0.1,0.2,0.4,0.3,0.7c0.2,0.5,0.4,1,0.5,1.5c0.2,0.5,0.3,0.9,0.4,1.3c0.1,0.2,0.1,0.4,0.1,0.6c0,0.2,0,0.3,0,0.5
		c0,0.1,0,0.2-0.1,0.3c0,0.1-0.1,0.2-0.2,0.3l0.3,0.3l1.7-1.9l-0.3-0.3c-0.2,0.2-0.4,0.3-0.5,0.4c-0.1,0.1-0.3,0-0.4-0.1
		c-0.1-0.1-0.2-0.3-0.4-0.8c-0.2-0.5-0.5-1.3-0.9-2.6c0.6,0.2,1.2,0.3,1.6,0.5c0.5,0.1,0.8,0.3,1.1,0.3c0.3,0.1,0.5,0.2,0.6,0.2
		c0.1,0.1,0.2,0.1,0.2,0.1c0.1,0.1,0.1,0.1,0,0.3c-0.1,0.1-0.2,0.3-0.4,0.6l0.3,0.3l2.7-2.9l-0.3-0.3C94.2,73.9,94.1,74,94,74z"/>
	<path class="st0" d="M81,80.4c-0.4,0-0.7,0.1-1,0.4c-0.3,0.3-0.4,0.6-0.4,1c0,0.4,0.1,0.7,0.4,1c0.3,0.3,0.6,0.4,1,0.4
		c0.4,0,0.7-0.1,1-0.4c0.3-0.3,0.4-0.6,0.4-1c0-0.4-0.1-0.7-0.4-1C81.8,80.5,81.4,80.4,81,80.4z"/>
	<path class="st0" d="M43.6,80.4c-0.4,0-0.7,0.1-1,0.4c-0.3,0.3-0.4,0.6-0.4,1c0,0.4,0.1,0.7,0.4,1c0.3,0.3,0.6,0.4,1,0.4
		c0.4,0,0.7-0.1,1-0.4c0.3-0.3,0.4-0.6,0.4-1c0-0.4-0.1-0.7-0.4-1C44.4,80.5,44,80.4,43.6,80.4z"/>
	<path class="st0" d="M90.5,49.9c-0.2-0.4-1.3-1-1.6-1.1c-0.4-0.2-1.5-0.5-1.7-1c-0.1-0.3,0-1,0.1-1.3c0.1-0.3,0.7-1,0.3-1.3
		c-0.4-0.3-0.9,0.2-1.1,0.3c-0.2,0.1-2.3,1.9-2.8,2.1c-0.5,0.2-3.4-0.5-3.7-0.6c-0.4-0.1-0.9,0-0.9,0.3c-0.1,0.3,0,0.7,0.1,1
		c0.1,0.3,1.3,2,1.3,2.2c0.1,0.3-1,0-1.1,0c-0.2,0-1.8-0.2-2.3-0.2c-0.5,0-1.6-0.2-1.8-0.2c-0.3,0-0.5-0.1-0.7-0.2
		c-0.2-0.1-0.2-0.3-0.2-0.6c-0.1-0.5,0-1,0-1.4c0-0.4,0-1.7,0-1.8c0-0.3-0.1-2.4,0.1-2.8c0.2-0.4,0.2-0.2,0.5-0.6
		c0.4-0.3,0.3-1,0.4-1.3c0-0.2,0.2-0.9,0.2-1.1c0.1-0.2,0.4-0.3,0.5-0.5c0.1-0.1,0.1-1.2,0.1-1.4c0-0.3-0.1-0.8-0.5-0.8
		c-0.1,0-0.2,0.1-0.3,0c-0.2-0.1-0.2-0.4-0.3-0.5c-0.2-0.2-0.5-0.2-0.6-0.5c-0.1-0.3,0.2-0.6,0.3-0.9c0.1-0.2,0.1-0.4,0.2-0.6
		c0.1-0.4,0.1-0.9,0.1-1.4c-0.1-0.6-0.2-1.2-0.4-1.7c-0.3-0.8-0.6-1.5-1-2.3c-0.3-0.6-0.5-0.9-0.7-1.6c-0.1-0.2-0.6-1.8-0.7-2.1
		c0-0.2-0.5-1.6-0.6-1.6c-0.2-0.3-0.5-0.4-0.7,0c0,0.1-0.1,0.3-0.1,0.4c-0.2,1.2-0.7,2.6-1,2.9c-0.2,0.3-1.9,2.9-2.1,3.4
		c-0.2,0.5-0.4,1.6-0.4,1.8c0,0.2-0.2,1.8-0.2,2.2c0,0.2,0.3,1.3,0.3,1.4c0.1,0.1,0.3,0.3,0.1,0.5c-0.1,0.1-0.3,0-0.4-0.1
		c-0.2-0.2,0-0.5-0.1-0.7c-0.1-0.1-0.4-0.2-0.5-0.2c-0.2-0.1-0.4-0.4-0.5-0.6c-0.1-0.4,0.1-1.4,0.2-2.1c0.1-0.7-0.1-1.6-0.1-1.8
		c-0.1-0.3-0.3-1.3-0.4-1.4c-0.1-0.3-0.4-0.6-0.5-0.9c-0.1-0.2-0.1-0.5-0.1-0.7c-0.1-0.7-0.3-1.4-0.7-1.9c-0.2-0.3-0.4-0.5-0.7-0.7
		c-0.3-0.2-0.7-0.6-0.9-0.9c-0.1-0.2-0.4-1.4-0.4-1.6c-0.2-0.5-0.6-1.5-1.2-1.6c-0.1,0-0.3,0.1-0.4,0.2c-0.2,0.4,0,0.9,0,1.2
		c0,0.3-0.2,1.4-0.5,2c-0.3,0.9-1,1.6-1.4,2.4C58.8,28.2,58,30.3,58,31c-0.1,0.7,0.3,3.4,0.6,3.5c0.3,0.2,0.5,0.5,0.4,0.9
		c-0.1,0.6-1,0.3-1,1c0,0.3,0,0.6-0.2,0.8c-0.2,0.2-0.7-0.4-0.7-0.5c-0.1-0.3,0.1-0.6,0.2-0.8c0.1-0.3,0.2-0.7,0.3-1
		c0.1-0.3,0.1-0.9,0.1-1.6c-0.1-0.8-0.3-2-0.6-2.5c-0.3-0.5-1.6-1.8-1.7-1.9c-0.6-0.7-0.6-1.1-1.5-1.8c-0.9-0.7-2.1-1.1-2.3-1.1
		c-0.2,0-0.5,0-0.6,0.3c-0.1,0.2,0.2,0.5,0.3,0.6c0.1,0.2,0.4,0.5,0.4,1.5c0,1-0.2,1.4-0.4,1.7c-0.1,0.2-1.4,2.7-1.6,3.2
		c-0.2,0.5-0.2,1.7-0.2,1.9c0,0.2,0.1,0.9,0.1,1.2c0,0.3,0.2,0.8,0.2,1.1c0,0.3-0.3,0.3-0.5,0.5c-0.3,0.3-0.2,1.6-0.2,1.8
		c0.1,0.3,0.6,0.7,0.6,1.2c0,0.5-0.2,1,0.2,1.6c0.4,0.7,0.4,0.4,0.4,0.7c0,0.2,0,2.7,0.1,3.3c0,0.5,0.2,2.3,0.2,2.9
		c0,0.2-0.2,0.3-0.3,0.3c-0.3,0.1-0.7,0.3-1,0.4c-0.3,0.1-1.7,0.4-2.1,0.5c-0.2,0.1-1.4,0.2-1.5,0.2c-0.2,0-0.6,0.1-0.8,0
		c-0.3-0.2,0.3-0.5,0.6-0.6c0.3-0.1,1.4-0.6,1.6-0.7c0.2-0.1,1.2-0.3,1.4-0.5c0.2-0.2,0-0.5-0.2-0.7c-0.3-0.2-0.6-0.3-1-0.4
		c-0.4-0.1-0.8-0.3-1.2-0.4c-0.7-0.1-1.7-0.1-2.2-0.4c-0.3-0.2-0.4-0.5-0.5-0.8c-0.1-0.4-0.3-0.8-0.5-1.1c-0.1-0.2-0.4-0.8-0.6-0.7
		c-0.2,0.2-2.2,2.8-3.6,3.5c-1.4,0.7-2.1,0.9-2.7,1.1c-0.7,0.3-1.8,0.8-1.9,1.2c-0.1,0.4,0.5,1.2,0.6,1.5c0.2,0.4,0.8,1.9,0.9,2.1
		c0.1,0.2,0.4,1.5,0.5,1.9c0,0.3,0.1,0.5,0.2,0.7c0.2,0.2,0.5,0.3,0.8,0.3c0,0,1.9,0,2,0c0.2,0,3.1,0.2,3.3,0.2
		c0.2,0,3.2,0.1,3.6,0.1c0.3,0,2.2-0.2,2.6-0.3c0.3-0.1,2-0.6,2.1-0.6c0.1,0,0.3,0,0.4,0.1c0.1,0.2,0.3,2.1,0.4,2.6
		c0,0.6,0.1,2.3,0.1,2.5c0.1,0.8,0.1,1.5,0.1,2.3c0,0.2,0.1,1.4,0.1,1.8c0,0.4,0,0.8,0,1.2c0,0.2,0.2,0.3,0.2,0.4
		c0.1,0.6,0.1,1.1,0.1,1.8c0,0.2-0.1,0.5,0,0.7c0,0.3,0.1,0.4,0.1,0.7c0,0.3-0.1,0.5-0.3,0.7c-0.2,0.3-0.2,0.7-0.1,1.1
		c0.2,0.6,0.9,1.4,1.2,1.6c0.2,0.1,0.9,0.3,1.2,0.2c0.3,0,0.7-0.1,0.9-0.2c0.2-0.1,0.6-0.4,0.8-0.7c0-0.1,0.1-0.2,0.2-0.3
		c0.1-0.2,0.2-0.4,0.2-0.5c0.1-0.3,0-0.8-0.1-1c-0.1-0.1-0.3-0.3-0.3-0.4c0-0.1-0.1-0.5-0.1-0.5c0-0.3,0-0.6,0-0.9c0-0.5,0-1,0-1.4
		c0-0.1,0-0.2,0-0.3c0-0.2,0.1-0.4,0.2-0.6c0.1-0.2,0.1-0.5,0.1-0.8c0-0.3,0-0.6,0-0.8c0-0.3,0-0.7,0.1-1c0-0.1,0-0.2,0-0.4
		c0-0.3,0.1-0.6,0.1-0.9c0-0.4,0-0.7,0-1.1c0-0.5,0.1-1,0-1.5c0-0.7,0.1-1.4,0.1-2.1c0-0.4,0-0.7,0-1.1c0-0.2,0-0.5,0-0.7
		c0-0.2,0-0.7,0.1-0.8c0,0,0.1-0.1,0.1-0.1c0.1,0,0.2,0,0.3,0c0.1,0.1,0.3,0.1,0.4,0.2c0.2,0.1,0.4,0.2,0.7,0.2
		c0.1,0.1,0.2,0.1,0.3,0.2c0.4,0.2,0.8,0.2,1.2,0.4c0.2,0.1,0.3,0.2,0.3,0.3c0.1,0.2,0.1,1,0.1,1.2c0,0.2,0,0.5,0,0.7
		c0,0.3,0.1,0.6,0.1,0.9c0,0.7,0,1.4,0,2c0,0.2,0.1,0.4,0.1,0.6c0,0.3,0,0.6,0,0.9c0,0.2,0,0.3,0.1,0.5c0,0.4,0,0.8,0,1.2
		c0,0.2,0.1,0.5,0.1,0.7c0,0.3,0,0.5,0,0.8c0,0.3,0,0.6,0.1,0.9c0,0.3,0,0.5,0,0.7c0,0.1,0,0.3,0.1,0.5c0.1,0.1,0.1,0.2,0.2,0.3
		c0.1,0.2,0.1,0.4,0.1,0.6c0,0.2,0,0.4,0.1,0.6c0,0.2,0,0.5,0,0.7c0,0.1,0,0.1-0.1,0.2c0,0.2,0,0.3,0,0.5c0,0.2,0,0.5,0,0.8
		c0,0.2,0.1,0.4,0.1,0.6c-0.1,0.6-0.5,1.3-0.3,2c0,0.1,0.2,0.5,0.2,0.6c0.1,0.2,0.7,0.8,0.8,0.8c0.3,0.2,0.8,0.3,1.2,0.3
		c0.1,0,0.7-0.1,0.9-0.2c0.6-0.2,0.7-0.4,1.1-1c0.1-0.1,0.2-0.3,0.2-0.5c0.1-0.4,0.2-0.9,0-1.3c-0.1-0.3-0.3-0.5-0.3-0.8
		c-0.1-0.4-0.1-0.7-0.1-1.1c0-0.2,0-0.4,0-0.6c0-0.4,0-1.4,0-1.5c0-0.3-0.1-0.6,0-0.9c0.1-0.2,0.3-0.4,0.4-0.6
		c0.1-0.1,0.1-0.3,0.1-0.4c0-0.4,0-0.7,0-1.1c0-0.1,0-0.3,0-0.4c0-0.3-0.1-0.6-0.1-0.9c0-0.5,0.1-0.9,0.1-1.4c0-0.4-0.1-0.9-0.1-1.4
		c0-0.1,0-0.2,0.1-0.4c0-0.2,0-0.5,0-0.7c0-0.1,0-0.3,0-0.4c0-0.3,0-0.6-0.1-0.9c0-0.2,0-0.5,0-0.7c0-0.2,0-0.3,0-0.5
		c0-0.1,0-0.2,0-0.3c0-0.3,0-0.6,0.1-0.9c0-0.3-0.1-0.6,0-0.8c0-0.1,0.2-0.3,0.3-0.3c0,0,0.6-0.2,0.7-0.2c0,0,0.7-0.2,0.8-0.2
		c0,0,0.5-0.1,0.5-0.1c0.1,0,0.2-0.1,0.3-0.1c0.1,0,0.2-0.1,0.3-0.1c0.1,0,0.2,0,0.3,0c0.2,0,0.3,0,0.4,0.2c0,0,0,0,0,0
		c0.1,0.2,0,0.4,0,0.6c0,0.2,0,0.5,0.1,0.7c0,0.3,0.1,0.5,0.1,0.8c0,0.5,0,1.1,0,1.6c0,0.4,0.1,0.7,0.1,1.1c0,0.2,0,0.5,0,0.7
		c0,0.2,0,0.3,0.1,0.5c0,0.2,0,0.4,0,0.7c0,0.2,0,0.4,0,0.7c0,0.6,0,1.2,0,1.7c0,0.2,0.1,0.3,0.1,0.5c0,0.2,0,0.5,0.1,0.7
		c0.1,0.3,0.4,0.3,0.4,0.7c0,0.1,0,0.2,0,0.3c0,0.1,0,0.1-0.1,0.2c0,0.3,0,0.5,0,0.8c0,0.5,0,1,0,1.5c0,0.2,0,0.4-0.1,0.5
		c-0.1,0.2-0.2,0.3-0.2,0.5c-0.1,0.5,0.1,1.3,0.4,1.6c0.1,0.1,0.2,0.2,0.3,0.2c0.4,0.3,0.8,0.5,1.3,0.5c0.2,0,0.6,0,0.7,0
		c0.1,0,0.1,0,0.2-0.1c0.2-0.1,0.3-0.1,0.5-0.2c0.4-0.2,0.8-0.7,0.9-1.2c0.1-0.4,0.2-0.8,0-1.1c-0.1-0.2-0.3-0.3-0.3-0.5
		c-0.2-0.4-0.2-0.8-0.2-1.3c0-0.3,0.1-0.7,0.1-1c0-0.3-0.1-0.5,0-0.8c0.1-0.3,0.3-0.4,0.4-0.6c0-0.2,0-0.4,0-0.5
		c0-0.3,0.1-0.5,0.1-0.8c0.1-0.6,0.1-1.2,0.1-1.9c0-0.8,0.1-1.7,0.1-2.5c0-0.2,0-0.5,0-0.7c0-0.2,0-0.4,0-0.6c0-0.2,0-0.4,0-0.6
		c0-0.4,0-0.7,0-1.1c0-0.1,0-0.1,0-0.2c0-0.3,0-0.6,0.1-0.9c0-0.1,0.1-0.2,0.3-0.2c0.3-0.1,0.8,0.1,1,0.2c0.3,0.1,2.6,0.2,3.1,0.2
		c0.4,0,2.7-0.2,3.1-0.2c0.5,0,2.1,0.3,2.6,0.3c0.6,0.1,3.5,0,3.8-0.1c0.2-0.1,0.6-0.2,0.7-0.5c0.2-0.4,0.4-1.5,0.4-1.8
		c0-0.3,0.3-1.3,0.4-1.6c0.1-0.3,0.6-1.6,0.7-1.8C90.3,51.4,90.7,50.3,90.5,49.9z M74.4,37.8c-0.2,0.1-0.8,0-0.8,0c-0.2,0-0.8,0-1,0
		c-0.3,0-0.8,0-1,0c-0.4,0-0.9,0-1.3,0c-0.4,0-1.1,0-1.2,0c-0.2,0-0.5-0.1-0.7,0c-0.2,0-0.2-0.2-0.1-0.3c0.1-0.1,0.2-0.1,0.2-0.1
		c0.3,0,0.4,0.1,0.7,0.1c0.1,0,0.3,0,0.4,0c0.1,0,0.2,0,0.4,0c0.1,0,0.7,0,0.9,0c0.2,0,0.6,0,0.8,0c0.2,0,1.2,0,1.3,0
		c0.1,0,0.9,0,1,0c0,0,0.3,0,0.3,0C74.6,37.3,74.7,37.7,74.4,37.8z M67.8,32.8c0.1-0.7,0.1-1.1,0.5-1.9c0.4-0.8,1.3-2,1.4-2.2
		c0.1-0.1,0.7-1.2,0.8-1.5c0.2-0.4,0.5-1.7,0.8-2.1c0.3,1.5,1.3,3.6,1.1,4.1c-0.2,0.4-0.2,0.6-0.1,1c0.1,0.5,0.2,0.8,0.3,1.7
		c0.1,0.9,0.2,1.5,0.1,1.8c0,0.3-0.1,1-0.2,1.2c0,0.1-0.3,1.1-0.2,1c0.2-0.1,0.7-0.9,0.7-2.2c0-1.3-0.1-2.1-0.2-2.3
		c-0.1-0.5-0.2-0.8-0.2-1.4c0-0.1,0-0.5,0.1-0.6c0.1-0.1,2.1,3.6,1.7,5.3c-0.4,1.6-0.4,2-1.5,2.2C72,37,72.5,37,72,37
		c-0.1,0-0.9,0-1-0.2c-0.1-0.1-0.2-1-0.2-1.5c0.1-0.4,0.4-1.1,0.3-2.2c-0.1-1.2-0.5-1.7-0.5-2.7c0-1,0.4-1.6,0.4-1.6
		c-0.1,0-0.5,0.7-0.5,0.8c0,0.2-0.2,0.8-0.1,1.2c0,0.5,0.3,1,0.4,2.1c0.1,1.1-0.3,1.9-0.4,2.4c0,0.5,0.1,1.3-0.1,1.5
		c-0.2,0.2-0.9,0.1-1-0.2c-0.1-0.3-0.3-0.5-0.3-1.4c0-0.9,0.5-2.3,0.4-2.6c-0.1-0.3-0.7,1.4-0.8,2.1c-0.1,0.7,0.2,1.8,0.1,1.9
		c-0.1,0.1-0.4,0.2-0.5,0.2c-0.2,0-0.3-0.2-0.6-1.1C67.4,34.9,67.8,32.9,67.8,32.8z M67.4,38.2c0.1-0.1,0.1-0.1,0.2-0.1
		c0.2,0,0.4,0.1,0.6,0.1c1.7,0.1,0.1,0,1.8,0.1c0.1,0,2.5,0,2.7,0c0.2,0,1,0,1.2,0c0.1,0,0.8,0,0.9,0c0.1,0,0.4,0.1,0.5,0.2
		c0.3,0.2,0.3,0.6,0.2,0.9c0,0.2-0.2,0.2-0.3,0.3c-0.2,0-0.7,0-0.8,0c-0.1,0-0.7,0-0.8,0c-0.1,0-0.9,0-0.9,0c-0.3,0-0.9,0-1,0
		c-0.3,0-0.8,0-1.1,0c-0.2,0-0.9,0-1,0c-0.2,0-0.7,0-0.8,0c0,0-0.8,0.1-0.9,0c-0.2,0-0.4,0-0.6-0.2C67.1,39.2,67.1,38.5,67.4,38.2z
		 M66.9,39.9c0.1,0.3,0.4,0.4,0.4,0.7c0.1,0.3,0.1,0.8,0.1,1.1c0,0.2,0,0.5,0,0.8c0.1,0.4,0.6,0.5,0.6,0.9c0.1,0.3,0,1.4,0,1.6
		c0,0.3,0,0.6,0,0.9c0,0.1,0.1,0.8,0.1,0.9c0.1,0.7,0.1,1.3,0.2,2c0,0.3,0.1,0.6,0,0.8c-0.1,0.2-1.1,0.3-1.4,0.4
		c-0.1,0.1-0.6,0.2-0.7,0.2c-0.2,0-0.5,0.2-0.6,0c0,0-0.1-0.1-0.1-0.1c0-0.3,0-1.3,0-1.5c0-0.5,0.1-2.5,0.1-3.1
		c0-0.2,0.1-1.9,0.1-2.1c0-0.1,0-0.8,0-1.1c0-0.1,0-0.2,0-0.3c0,0,0-0.4,0.1-0.6c0.1-0.2,0.4-0.4,0.4-0.6c0.1-0.4,0.1-0.8,0.1-1.2
		c0-0.3,0-0.5,0.1-0.7c0,0,0,0,0-0.1c0,0,0.1,0,0.1,0c0,0,0,0,0,0c0,0,0.1,0,0.1,0c0,0,0,0,0.1,0.1C67,39.3,66.9,39.7,66.9,39.9z
		 M65.2,43.2c0,0.6-0.1,1.3-0.1,1.9c0,0.3,0,0.7,0,1c0,0.1,0,1,0,1.3c0,1,0,1-0.1,2c0,0.3,0.2,1.2-0.2,1.3c-0.3,0.1-0.4,0.2-0.7,0
		c-0.2-0.2,0-2.6,0-3c0-0.3,0-1.2,0-1.4c0-0.3,0-0.5,0.1-0.8c0-0.3,0-0.7,0-1c0-0.1,0-1.3,0.1-1.8c0-0.2,0.1-0.7-0.1-0.7
		c-0.2-0.1-0.3,0.3-0.3,0.5c0,0.5,0,1-0.1,1.4c0,0.4,0,0.8,0,1.2c0,0.1-0.1,3.1,0,3.3c0,0.5,0,0.7-0.1,1.2c0,0.2,0,0.9-0.1,1.1
		c-0.1,0.2-0.5,0.2-0.8,0.1c-0.3-0.1-0.2-1.4-0.1-1.8c0-0.2,0-0.8,0-1c0-0.3,0-0.5,0-0.8c0-0.3,0-1.5,0-1.8c0-0.5-0.1-1.1-0.1-1.7
		c0-0.3,0-1.1,0-1.2c0-0.2,0-0.7-0.2-0.7c-0.2,0-0.2,1.4-0.2,1.5c0,0.4,0,0.7,0,1c0,0.3,0,1.8,0,2.2c0,0.2,0,1.3,0,1.6
		c0,0.5,0,2.3-0.1,2.4c0,0.1-0.8-0.1-0.9-0.3c-0.1-0.2,0-1.4,0-1.6c0-0.2,0-1.1,0-1.3c0-0.4,0-0.7,0-1.1c0-0.2,0-1.2,0-1.5
		c0-0.3,0-0.7,0-1c0-0.2,0-0.4-0.1-0.6c0-0.2,0.1-1.3-0.2-1.3c-0.2,0-0.2,0.9-0.2,1.1c0,0.5,0,1.1,0,1.6c0,0.2,0,2.3,0.1,3.2
		c0.1,0.6,0.1,2.1,0,2.3c0,0.1-0.7,0-0.8-0.3c-0.1-0.2,0-0.2,0-0.5c0-0.3-0.1-1.1-0.1-1.2c0-0.2-0.1-1.2-0.1-1.5
		c0-0.1-0.1-1.5-0.1-2.1c0-0.6-0.1-1.2-0.1-1.9c0-0.2,0-1.1,0.1-1.2c0.1-0.2,0.7-0.1,0.9-0.2c0.3,0,0.6,0,0.9,0c0.2,0,1,0,1.2,0
		c0.2,0,1.1,0,1.2,0c0.1,0,1-0.1,1.2,0.1c0.1,0.1,0.2,0.1,0.2,0.2C65.2,42,65.2,42.9,65.2,43.2z M62.3,41c-0.2,0.1-2.8,0-2.8,0
		C59,41,59,40.1,59,39.6c0-0.2-0.1-0.4,0-0.6c0.1-0.1,0.3-0.2,0.4-0.2c0.5,0,0.2,0.3,0.1,0.6c-0.2,0.3-0.2,1.2,0.3,1.1
		c0.1,0,0.2-0.1,0.2-0.3c0-0.1-0.1-0.3-0.1-0.4c-0.1-0.4,0.4-0.3,0.6-0.3c0.5,0.1,0.2-0.5,0.3-0.6c0.1,0,0.6-0.1,0.7-0.1
		c0.1,0,0.3,0,0.4,0.1c0.1,0.1-0.1,0.4-0.1,0.5c-0.1,0.3,0,0.7,0.3,0.8c0,0,0.1,0,0.1,0c0.1,0,0.2-0.1,0.2-0.2
		c0-0.3-0.3-0.8,0.2-0.8c0.1,0,0.3,0.1,0.5,0c0.1-0.1,0-0.4,0.3-0.5c0.2,0,0.4,0,0.5,0c0.1,0,0.4,0,0.5,0.1c0.1,0.1-0.2,0.4-0.2,0.5
		c-0.1,0.2-0.1,0.5,0.1,0.7c0,0.1,0.1,0.1,0.1,0.2c0.2,0.1,0.4,0,0.4-0.2c0-0.1-0.1-0.2-0.1-0.3c-0.1-0.1,0-0.3,0.1-0.4
		c0.1,0,0.2-0.1,0.2-0.1c0.1,0,0.1-0.2,0.2-0.2C65,39,65.2,39,65.3,39c0,0,0.1,0,0.1,0c0.1,0,0.3,0,0.4,0.1c0.1,0.1,0.1,0.2,0.1,0.3
		c0,0.1,0,0.3,0,0.4c0,0.2,0,0.7-0.1,0.9c-0.1,0.2-0.3,0.2-0.5,0.3C65.1,41,62.5,40.9,62.3,41z M65.7,31c0.1,0.5,0.2,0.9,0.2,1.1
		c0,0.3,0,0.8-0.1,1.2c0,0.4,0,1.2-0.4,1.6c-0.4,0.3-0.9,0.4-1.2,0.4c-1-0.1-0.4-2-0.3-2.6c0.1-0.3,0.3-1.3,0.5-1.7
		c0.2-0.4,0.4-1.6,0.4-1.8C64.8,29,65.5,30.6,65.7,31z M65.7,36.1c-0.1,0.1-0.2,0.1-0.3,0.1c-0.3,0-0.5-0.1-0.8-0.1h-0.7
		c-0.1,0-0.9,0-1,0c-0.1,0-0.6,0-0.7,0c0,0-1.2,0-1.2,0l-0.8,0c-0.1,0-0.1,0-0.2,0c-0.1,0-0.5-0.1-0.3-0.3c0.1-0.1,0.3-0.1,0.4-0.1
		c0.2,0,0.4,0,0.6,0.1c0.2,0,0.3,0,0.5,0c0.1,0,0.2,0,0.3,0c0.2,0,0.4,0,0.6,0c0.1,0,0.2,0.1,0.3,0c0.2,0,0.3,0,0.5,0
		c0.1,0,0.2,0,0.2,0c0.1,0,0.2,0.1,0.4,0.1c0.1,0,0.3,0,0.4,0c0.2,0,0.3,0.1,0.4,0.1c0.1,0,0.2,0,0.3,0c0.2,0,0.6,0,0.8,0.1
		C65.5,35.9,65.8,36,65.7,36.1z M58.8,33.7c-0.2-0.4-0.4-2-0.4-2.5c0.1-0.5,0.5-2,0.7-2.3c0.2-0.4,0.8-1.6,0.8-1.7
		c0.4-0.7,1-1.6,1.2-2c0.1-0.4,0.2-1,0.3-1.3c0.1-0.3,0.2-0.8,0.2-1.3c0.2,0,0.9,2.3,1,3c0.1,0.7-0.2,1.5-0.2,2.3
		c0,0.8,0.6-1.3,0.7-1.8c0.2-0.1,0.7,0.5,0.8,0.6c0.1,0.1,0.6,0.9,0.7,1.5c0,0.3-0.1,0.9-0.2,1.7c-0.2,0.8-0.6,2.2-0.8,2.7
		c-0.2,0.6-0.2,1.3-0.2,1.6c0,0.3,0,0.9-0.1,1.1c-0.1,0.2-0.4,0.2-0.7,0.2c-0.3,0-0.6,0.2-0.7-0.3c-0.1-0.4-0.1,0.1-0.3-1.4
		c-0.1-1.5,0.8-4.1,0.5-4.2c-0.2,0-0.9,2.5-0.9,3.1c-0.1,0.7,0,2,0,2.3c0,0.2-0.1,0.3-0.2,0.4c-0.4,0-0.8-0.9-0.9-1.5
		c-0.1-0.6-0.1-1.2-0.1-1.5c0-0.4,0.1-1.1,0.2-1.6c0.1-0.5,0.8-2,0.8-2.2c0-0.2-0.8,1.2-1,2c-0.2,0.7-0.3,0.8-0.3,1.3
		c-0.1,0.5,0,1.3,0.1,1.7c0.1,0.4,0.2,1.6,0.1,1.6C59.6,35.2,58.9,33.9,58.8,33.7z M58.5,36.8c0.3-0.2,0.6-0.1,0.9-0.1
		c0.7,0,0.8,0,1.5,0c0.2,0,1.1,0,1.2,0c0.3,0,0.5,0,0.8,0c0.2,0,0.5,0,0.7,0c0.3,0,0.5,0,0.8,0.1c0.1,0,0.3,0,0.4,0
		c0.3,0,0.6,0,0.9,0c0.3,0,0.6-0.1,0.8,0c0.2,0.2,0.2,0.5,0.2,0.8c0,0.5-0.3,0.5-0.7,0.6c0,0-0.7,0-0.7,0c0,0-0.7,0-0.8,0l-1.2,0
		c0,0-2.1,0-2.1,0l-1,0c0,0-0.9,0-0.9,0c-0.1,0-0.3,0-0.4-0.1c-0.5-0.1-0.7-0.2-0.7-0.8C58.3,37.2,58.3,36.9,58.5,36.8z M58.2,40.2
		c0.1-0.3,0-0.7,0.2-0.9c0.1,0,0.1,0,0.1,0.1c0.1,0.2,0.1,0.9,0.1,1c0,0.2,0,0.5,0,0.7c0,0.2,0.1,0.4,0.2,0.6
		c0.1,0.1,0.3,0.2,0.3,0.4c0.1,0.4,0,0.8,0,1.2c0,0.4,0,0.8,0.1,1.1c0,0.1,0,0.7,0.1,0.9c0,0.1,0.1,1.1,0.1,1.5c0,0.1,0,0.5,0,0.6
		c0,0.2,0.1,1.4,0.1,1.8c0,0.2,0.1,0.4,0,0.5c0,0.2-0.2,0.2-0.4,0.2c-0.2-0.1-0.4-0.2-0.6-0.2c-0.2-0.1-0.3-0.1-0.5-0.2
		c-0.3-0.1-1-0.2-1.2-0.5c-0.1-0.2,0-2,0-2.6c0-0.2,0-0.8,0-1c0-0.1,0.1-0.9,0.1-1.1c0-0.4,0-0.7,0.1-1c0.1-0.4,0.5-0.7,0.6-1.1
		c0.1-0.4-0.1-1,0.1-1.4C57.7,40.5,58.1,40.5,58.2,40.2z M57.1,37.8c-0.1,0-0.1,0.1-0.2,0.1c0,0-0.1,0-0.1,0c0,0-0.5,0-0.6,0
		c0,0-0.5,0-0.6,0c-0.1,0-0.3,0-0.4,0c-0.1,0-0.4,0-0.4,0c-0.2,0-0.3,0-0.4,0c-0.1,0-0.2,0-0.2,0c-0.1,0-0.4,0-0.4,0
		c-0.1,0-0.4,0-0.5,0c-0.2,0-0.5-0.1-0.7,0c-0.2,0-0.4,0-0.5,0c-0.1,0-0.3,0-0.5,0c-0.2,0-0.6,0.1-0.6-0.2c0-0.1,0.1-0.1,0.2-0.2
		c0.1,0,0.4,0.1,0.5,0.1c0.2,0,0.7,0,0.8,0.1c0.3,0,0.5,0,0.8,0c0.2,0,0.4,0,0.6,0c0.2,0,0.4,0,0.6,0c0.2,0,0.4-0.1,0.6-0.1
		c0.1,0,0.2,0,0.3,0c0.4,0,0.7,0,1.1,0c0.2,0,0.4-0.1,0.6,0C57,37.5,57.2,37.6,57.1,37.8z M50.2,34c0.1-0.4,0.2-1,0.4-1.3
		c0.2-0.3,0.8-1.4,0.9-1.6c0-0.1,0.8-1.6,0.8-1.8c0.1-0.5,0.1-1.1,0-1.6c0-0.2-0.4-1-0.3-1c0.4,0,1.6,0.7,1.9,1.1
		c0.2,0.2,1,1.2,1.2,1.4c0.8,0.9,1.2,1.2,1.7,2.2c0.1,0.2,0.6,2,0.3,3.1c0,0.1-0.3,1.2-0.5,1.6c-0.2,0.4-0.6,0.8-0.9,0.9
		c-0.3,0.1-0.5,0-0.6-0.3c0-0.2,0.5-1,0.6-1.6c0.1-0.6,0.2-2.1,0.1-2.6c-0.1-0.6-0.6-1.7-0.7-1.4c-0.1,0.4,0.4,1.2,0.3,2.3
		c-0.1,1.1-0.1,1.5-0.2,1.8c-0.1,0.3-0.4,1.2-0.7,1.5c-0.3,0.4-0.5,0.4-0.6,0.4c-0.4,0-0.5-0.1-0.7-0.4c0-0.1-0.3-1.2,0-2.1
		c0.3-0.9,0.7-2.2,0.6-2.8c-0.1-0.7-0.2-1.3-0.4-1.6c-0.2-0.3,0,1.4,0,2.1c0,0.8-0.5,1.7-0.6,2c-0.1,0.3-0.2,0.9-0.2,1.2
		c0,0.3,0.2,1.1,0.1,1.3c-0.2,0.2-0.4,0.3-0.6,0.3c-0.1,0-0.2,0-0.3-0.1c-0.1-0.1-0.2-0.2-0.3-1.1c-0.1-0.9,0-1.7,0.1-1.8
		c0.1-0.5,0.2-0.8,0.4-1.2c0-0.1,0.5-0.9,0.3-0.9c-0.1,0-0.8,1.3-0.9,1.4c-0.1,0.4-0.3,1.2-0.3,2.4c0,1.2,0.2,1.2,0,1.4
		c-0.4,0.3-0.8-0.2-0.9-0.7c0-0.5-0.1-0.9-0.1-1.1C50.1,35,50.2,34.3,50.2,34z M49.7,39.1c0-0.2,0-0.6,0.2-0.7
		c0.1-0.1,1.4-0.1,1.6-0.1c0.3,0,1.1,0,1.2,0c0.4,0,0.8,0,1.2,0c0.2,0,0.9,0,1,0c0.3,0,0.7,0,1,0c0.3,0,0.6,0,0.9,0
		c0.1,0,0.8,0,0.9,0c0.2,0.1,0.2,0.9,0.1,1.1c-0.1,0.1-0.2,0.2-0.3,0.3c0,0-0.7,0.1-0.7,0.1c-0.1,0-1.3,0-1.4,0c-0.1,0-1,0-1.1,0
		c-0.1,0-0.6,0-0.7,0c-0.1,0-1.1,0-1.1,0c-0.2,0-0.9-0.1-1.1-0.1c-0.3,0-0.9,0-1,0C50,39.8,49.8,39.5,49.7,39.1z M51.2,55.4
		c-0.1,0.2-0.3,0.2-0.5,0.3c0,0-1.7,0.5-2.2,0.6c-0.5,0.1-1.4,0.3-2.2,0.3c-0.8,0-3.7-0.1-4.2-0.1c-0.5,0-3.6-0.1-3.7-0.1
		c-0.5,0-1.4-0.1-1.5-0.3c-0.2-0.2-0.5-1.6-0.7-2.2c-0.2-0.5-0.5-1.3-0.6-1.4c-0.1-0.3-0.8-1.5-0.8-1.8c0-0.3,1.5-0.9,1.6-1
		c0.1-0.1,1.9-0.8,2.8-1.3c0.9-0.5,2.9-3,3-3c0.1,0,0.5,1,0.6,1.3c0.1,0.3,0.3,1.2,0.7,1.3c0.4,0,1.5,0.1,1.6,0.1
		c1.2,0,2.2,0.5,2.2,0.6c0,0.2-1,0.4-1.3,0.5c-0.3,0.1-1.1,0.5-1.4,0.6C44.5,50,44,50.4,44,50.7C43.7,51,40.3,51,39.8,51
		c-0.4,0-2.7-0.3-2.9-0.3c-0.3,0-1.2-0.3-1.2,0.1c0,0.1,0,0.1,0.1,0.2c0.2,0.2,1.3,0.4,1.6,0.4c0.2,0,2.3,0.2,3.1,0.2
		c0.8,0,3.3-0.3,4-0.3c0.7,0,2,0,2.8-0.1c0.7-0.1,2.3-0.5,2.6-0.5c0.3,0,0.6-0.2,0.9-0.1c0.1,0,0.2,0.2,0.3,0.3
		c0.1,0.7,0.2,1.4,0.2,2.1c0,0.2,0.1,1.5,0.1,1.8C51.2,54.9,51.3,55.2,51.2,55.4z M54.9,73c-0.2,0.1-0.3,0.2-0.8,0.2
		c-0.5,0-1.2-0.4-1.3-0.8c-0.1-0.4-0.2-0.5-0.1-0.7c0.1-0.2,0.4-0.2,1.5-0.2c1.1,0,1.1-0.1,1.3,0.2C55.8,72.1,55.2,72.8,54.9,73z
		 M55.1,70.4c0,0.1-0.1,0.3-0.2,0.3c-0.3,0.1-0.7,0.1-1,0.1c-0.2,0-0.8,0-0.9-0.1c-0.4-0.3-0.2-1.5-0.2-2c0-0.4-0.1-1.2,0.1-1.3
		c0.2-0.1,2-0.2,2.2,0c0.2,0.2,0.1,1.9,0.1,2.4C55.1,70.1,55.2,70.2,55.1,70.4z M56.2,46.8c0,0.4,0,1.7,0,1.9c0,1.2-0.1,2.4-0.1,3.6
		c0,1.2,0,2.4,0,3.7c0,1.1-0.1,2.1-0.2,3.1c0,0.8,0,1.5-0.1,2.3c0,0.4,0,0.7,0,1.1c0,0.3-0.1,0.6-0.1,0.8c0,0.2-0.1,1-0.1,1.3
		c0,0.5-0.1,1.6-0.1,1.7c-0.1,0.2-0.2,0.3-0.4,0.4c0,0-0.8,0-0.9,0c-0.1,0-0.6,0-0.7,0c-0.1,0-0.6,0.1-0.6,0.1
		c-0.2,0-0.4-0.1-0.4-0.3c-0.1-0.1-0.2-1.8-0.2-2c0-0.4,0-0.8,0-1.2c0-0.3-0.1-0.6-0.1-0.9c0-0.3,0-0.6,0-0.9c0-0.2-0.1-1.2-0.1-1.3
		c0-0.3-0.1-1.1-0.1-1.2c0-0.3-0.1-1.6-0.1-1.7c0-0.5-0.1-1.8-0.1-1.9c0-0.2-0.1-1.5-0.1-1.7c0-0.1-0.1-1.6-0.1-1.8
		c0-0.5-0.1-1.7-0.1-1.8c0-0.4,0-0.7,0-1.1c0-0.2-0.1-0.9-0.1-1c0-0.4,0-0.8-0.1-1.2c0-0.1,0-1.2,0-1.3c0-0.2,0-0.6,0-1
		c0-0.4-0.2-1.1,0.3-1.3c0.1,0,0.2,0,0.3,0c0.3,0.1,0.7,0,1,0c0.3,0,0.7,0,1,0c0.2,0,2,0,2.1,0c0.1,0,0.2,0,0.3,0.1
		c0.1,0.2,0.1,1,0.1,1.2C56.2,44.6,56.2,46.2,56.2,46.8z M56.2,42.5c-0.2,0.1-0.6,0.1-0.8,0.1c-0.2,0-0.7,0-0.9,0
		c-0.2,0-0.9,0-0.9,0c-0.2,0-1.3-0.1-1.3-0.1c-0.3,0-1-0.1-1.2-0.1c-0.2,0-0.5,0-0.6-0.2c-0.4-0.2-0.4-1.4-0.2-1.6
		c0.1-0.1,0.3-0.2,0.4-0.2c0.1,0,0.2,0,0.2,0.1c0.1,0.1,0,0.5-0.1,0.6c-0.1,0-0.1,0.1-0.2,0.1c-0.1,0.2,0,0.5,0.2,0.7
		c0,0,0.1,0,0.1,0.1c0.1,0,0.1,0,0.2,0c0.2-0.1,0.1-0.4,0.1-0.6c0,0,0,0,0-0.1c0,0,0-0.1,0.1-0.1c0,0,0.1,0,0.1-0.1
		c0.2-0.1,0.3,0,0.5-0.1c0.1-0.1,0.1-0.2,0.1-0.3c0-0.3,0.3-0.2,0.5-0.2c0.1,0,0.3,0,0.4,0.1c0.2,0.2,0,0.5-0.1,0.7
		c0,0.2,0,0.7,0.3,0.7c0.2,0,0.2-0.1,0.3-0.3c0-0.1-0.1-0.3,0-0.5c0.1-0.2,0.4,0,0.6-0.1c0.2-0.1,0.1-0.3,0.2-0.4
		c0.1-0.1,1.1-0.2,1.2,0c0.1,0.2-0.2,0.5-0.2,0.7c-0.1,0.7,0.8,0.9,0.7,0.3c-0.1-0.3-0.1-0.6,0.3-0.6c0.3,0,0-0.5,0.5-0.6
		c0.1,0,0.2,0,0.2,0c0.3,0.1,0.2,1.4,0,1.6C56.7,42.3,56.4,42.4,56.2,42.5z M64.2,75.5c-0.1,0.1-0.2,0.4-0.4,0.4
		c-0.2,0.1-0.7,0.3-1,0.2c-0.7,0-1.6-0.8-1.6-1.5c0-0.1-0.1-0.5,0.2-0.5c0.1,0,0.7,0.2,0.9,0.1c0.2,0,0.5,0,0.8,0
		c0.3,0,0.5-0.1,0.7-0.1c0.2,0,0.5,0.1,0.7,0.2C64.7,74.7,64.4,75.3,64.2,75.5z M61.5,69.2c0.1-0.2,0.3-0.2,0.5-0.2
		c0.2,0,0.4,0,0.5,0c0.3,0,1.2-0.2,1.5,0.1c0.3,0.3,0.1,1.1,0.1,1.5c0,0.1,0,0.3,0,0.4c0,0.3-0.1,0.7-0.1,1.1c0,0.3,0,0.4,0,0.7
		c0,0.2,0,0.3,0,0.5c0,0.1-0.1,0.2-0.2,0.3c0,0-0.6,0.1-0.7,0.1c0,0-0.3,0-0.4,0c0,0-0.6,0-0.6,0.1c-0.2,0-0.5,0-0.6-0.2
		c-0.1-0.1-0.1-0.3-0.1-0.4c0-0.1,0-0.3,0-0.4c0-0.4,0-1,0-1.2c0-0.2,0-0.8,0-0.9c0-0.1,0-0.6,0-0.7C61.5,69.5,61.5,69.3,61.5,69.2z
		 M64.7,59.6c0,0.1,0,1.1,0,1.6c0,0.2,0,0.4,0,0.7c0,0.3,0,1.1,0,1.2c0,0.7,0,2.4,0,2.6c0,0.2,0,1.4-0.1,1.8c0,0.2,0,0.5-0.1,0.7
		c-0.2,0.4-0.7,0.3-1.1,0.3c-0.2,0-0.4,0-0.6,0c-0.4,0-1.3,0.2-1.6-0.2c-0.1-0.2-0.2-1.1-0.3-1.4c0-0.4-0.1-1.5-0.1-1.6
		c0-0.5-0.1-1.9-0.1-2c0-0.2-0.1-2-0.1-2.1c0-0.1-0.1-1.3-0.1-1.4c0-0.4-0.2-2.5,0-2.5c0.3,0,0.5,0.1,0.5,0.1
		c0.1,0.2,0.1,0.5,0.1,0.8c0,0.4,0,0.8,0,1.2c0,0.1,0,0.1,0,0.2c0,0.2,0,1.1,0,1.3c0,1.4,0.1,2.8,0.1,4.2c0,0.2,0.1,1.5,0.1,1.9
		c0,0.2,0.1,0.7,0.2,0.7c0.2-0.1,0.1-1.1,0.1-1.2c0-0.3-0.1-0.7-0.1-1c0-0.3,0-0.9,0-1c0-0.1,0-0.6,0-0.6c0-0.3,0-0.5,0-0.8
		c0-0.2,0-0.4,0-0.6c0-0.6,0-1.2,0-1.8c0-0.8-0.1-1.2,0-1.3c0-0.2-0.2-2,0.2-1.9c0.4,0,0.5,0,0.5,0.3c0,0.2,0,0.5,0,0.8
		c0,0.7,0,1.4,0,2.1c0,0.4,0,1.3,0.1,1.7c0,0.2,0,1,0,1.3c0,0.5,0,0.9,0,1.4c0,0.8,0,2.7,0.1,2.8c0,0,0.1,0.1,0.1,0.1
		c0.1,0,0.1,0,0.1-0.1c0.1-0.1,0.1-3.1,0.1-3.3c0-0.1-0.1-1.3-0.1-1.6c0-0.1,0-1.7,0-2c0-0.1-0.1-3.2,0.1-3.3c0.2-0.1,0.3,0,0.5,0
		c0.3,0,0.2,1.3,0.2,1.9c0,0.2,0,2.8,0,3c0,0.8,0,2.9,0,3c0,0.3,0,0.6-0.1,0.8c0,0.1,0,0.2,0,0.3c0,0.3-0.1,0.9,0,1.2
		c0,0.1,0.1,0.1,0.2,0.1c0.1-0.1,0.1-0.2,0.1-0.2c0-0.6,0.1-2.4,0.1-2.8c0-0.3,0-2.4,0.1-2.5c0-0.2,0-1.1,0-1.5c0-0.3-0.1-1-0.1-1.3
		c0-0.7-0.1-1.9,0.2-2c0.2-0.1,0.4,0,0.5-0.1c0.2,0,0,1,0,1.4C64.8,59.1,64.7,59.3,64.7,59.6z M68.8,53.6c0,0.9-0.1,1.7-0.1,1.8
		c-0.1,0.3-0.5,0.3-0.8,0.5c0,0-3.2,0.7-4.3,0.8c-1,0.1-2.1-0.1-2.5-0.1c-0.4,0-1.4-0.4-1.8-0.5c-0.4-0.1-2.7-0.9-2.8-1
		c-0.2-0.1-0.3-0.4-0.3-0.6c0-0.2,0-1.9,0-2.2c0.1-0.3,0-1.9,0.1-2.1c0-0.1,0.2-0.2,0.3-0.2c0.4,0,0.6,0.1,0.9,0.2
		c0.2,0.1,3,1.1,3.9,1.4c0.9,0.2,1.3,0.2,1.7,0.2c0.4,0,2-0.3,2.4-0.4c0.4-0.1,1.1-0.3,1.4-0.3c0.4-0.1,0.7-0.2,1-0.2
		c0.1,0,0.2,0,0.2,0c0.1,0,0.2,0.1,0.2,0.2C68.6,51.2,68.8,52.7,68.8,53.6z M72.6,72.7C72.4,72.8,72,72.9,72,73c0,0-0.3,0-0.4,0
		c-0.6,0-1.3-0.5-1.5-1.1c0-0.1,0-0.3,0-0.4c0.2-0.3,0.7-0.3,1-0.3c0.3,0,0.9,0,1,0c0.1,0,0.6,0,0.8,0.2
		C73.2,71.8,72.9,72.5,72.6,72.7z M70.3,68.9c0-0.3,0-0.5,0-0.8c0-0.3,0-0.6,0.1-0.9c0.1-0.1,0.3-0.2,0.4-0.2c0.4,0,1.5,0,1.8,0.2
		c0.1,0.1,0.1,0.2,0.1,0.3c0,0.3-0.1,0.6-0.1,0.9c0,0.3,0,0.7,0,1c0,0.2,0.1,0.5,0,0.7c-0.1,0.2-0.2,0.2-0.3,0.3c0,0,0,0-0.1,0
		c0,0-0.7,0.1-0.8,0.1c-0.3,0-1,0-1.1-0.2c-0.1-0.1-0.1-0.3-0.2-0.4c0-0.2,0-0.3,0-0.5C70.3,69.3,70.3,69.1,70.3,68.9z M73.8,47.4
		c0,0.6,0,1.2,0,1.7c0,0.3,0,0.7,0.1,1c0,0.5,0,1,0,1.5c0,0.5-0.1,1.8-0.1,2.1c0,0.7,0,1.4,0,2.1c0,0.2,0,1,0,1.2
		c0,0.4-0.1,1.7-0.1,1.9c0,0.2,0,1,0,1.2c0,0.2,0,0.5-0.1,0.7c0,0.2,0,0.5,0,0.7c0,0.2-0.1,1.3-0.1,1.6c0,0.2-0.1,1.6-0.1,2.1
		c0,0.2-0.1,1-0.2,1.1c-0.1,0.1-0.2,0.2-0.3,0.3c-0.2,0-0.9,0-0.9,0c-0.1,0-0.2,0-0.3,0c-0.2,0-0.6,0-0.6,0c-0.1,0-0.3,0-0.4,0
		c-0.2,0-0.4-0.1-0.5-0.3C70,66,70,65.8,70,65.6c0-0.2-0.1-1.2-0.1-1.5c0-0.5-0.3-3.8-0.3-4c0-0.4-0.1-0.8-0.1-1.1
		c0-0.5,0-1-0.1-1.5c0-0.2,0-0.5-0.1-0.7c0-0.2-0.1-1.1-0.2-1.2c0-0.6,0-1.2,0-1.8C69.2,53,69,50.9,69,50.7c0-0.1-0.1-1.2-0.1-1.3
		c0-0.1-0.1-1-0.1-1.1c0-0.5-0.1-0.9-0.1-1.4c0-0.4,0-0.7,0-1.1c0-0.4-0.1-0.7,0-1.1c0-0.1,0-0.6,0.1-0.8c0.1-0.2-0.1-0.8,0.2-1
		c0.1,0,0.7,0.1,0.8,0.1c0.2,0,0.3,0,0.5,0c0.2,0,0.5,0.1,0.7,0c0.2,0,0.3-0.1,0.5-0.1c0.2,0,0.4,0.1,0.6,0.1c0.2,0,0.7,0,0.8,0
		c0.3,0,0.7,0,0.8,0.2c0.1,0.2-0.1,1.3-0.1,1.8C73.8,45.7,73.8,46.8,73.8,47.4z M73.4,42.4c-0.2,0-0.9-0.1-0.9-0.1
		c-0.3,0-0.4,0-0.8,0c0,0-0.5,0-0.6,0c0,0-0.8,0-0.9,0c-0.1,0-0.5,0-0.5,0c0,0-0.9-0.1-0.9-0.1c-0.2,0-0.4,0-0.5-0.2
		c-0.2-0.2-0.1-0.6-0.2-0.9c0-0.2-0.1-0.5,0-0.7c0-0.1,0.1-0.2,0.2-0.2c0.1-0.1,0.3,0,0.4,0c0.6-0.1,0.1,0.6,0,0.7
		c-0.1,0.3,0,0.7,0.2,0.8c0.1,0,0.2,0.1,0.4,0.1c0.1,0,0.1-0.1,0.2-0.1c0.1-0.2-0.2-0.4-0.2-0.6c0-0.1,0-0.2,0-0.3
		c0-0.1,0.2-0.1,0.3-0.2c0.1-0.1,0-0.3,0.1-0.4c0,0,0.2,0,0.2,0c0,0,0.4,0,0.5,0c0.2,0,0.7,0.1,0.5,0.3c-0.1,0.1-0.2,0.2-0.3,0.4
		c-0.1,0.1-0.1,0.3,0,0.4c0,0.2,0,0.4,0.2,0.5c0,0,0.1,0.1,0.1,0.1c0.5,0.3,1-0.2,0.5-0.5c-0.2-0.1-0.4-0.3-0.2-0.4
		c0.1,0,0.2,0,0.3,0c0.5-0.1,0-0.6,0.5-0.7c0.2,0,0.4,0,0.5,0c0.1,0,0.2,0.1,0.4,0.1c0.3,0.1-0.1,0.6-0.1,0.9c0,0.2,0,0.4,0.1,0.5
		c0.1,0.1,0.4,0.2,0.5,0.2c0.1,0,0.3-0.3,0.4-0.4c0-0.2-0.4-0.2-0.4-0.4c0.1-0.1,0.1-0.5,0.2-0.6c0.1-0.1,0.4,0,0.5,0
		c0.2,0,0.5-0.1,0.7,0.1c0.1,0.1,0,0.7,0,0.8c-0.1,0.4-0.1,0.9-0.5,1C74.1,42.3,73.4,42.4,73.4,42.4z M89.4,52.2
		c-0.1,0.2-0.3,0.9-0.4,1c-0.1,0.3-0.5,2.5-0.6,2.8c-0.1,0.2-0.4,0.4-0.5,0.5c-0.1,0.1-1.1,0.1-1.5,0.1c-0.3,0-2.3,0-2.4,0
		c-0.3,0-2.4-0.3-2.8-0.3c-0.4,0-2.4,0.2-2.9,0.2c-0.5,0-2.4-0.2-2.7-0.2c-0.4,0-1.2-0.1-1.5-0.4c-0.2-0.2-0.1-0.5-0.1-0.7
		c0-0.6,0-3.9,0.1-4.1c0-0.1,0.1-0.2,0.2-0.2c0.2-0.1,0.5,0.1,0.7,0.1c0.1,0,2.2,0.3,2.5,0.3c0.3,0,1.6,0,1.8,0
		c1.2,0.1,2.9,0.4,3.6,0.4c0.6,0,3.7,0,4.2-0.1c0.4-0.1,1.9-0.1,2.2-0.4c0-0.1,0.1-0.1,0-0.2c0-0.3-0.3-0.3-0.5-0.2
		c-0.1,0-1.6,0.2-2.2,0.3c-0.6,0.1-2.9,0-3.4,0c-0.5,0-1-0.1-1.7-0.3c-0.3-0.1-2.1-2.6-1.9-3c0.5,0,1.3,0.2,1.7,0.3
		c0.4,0.1,2.1,0.3,2.5,0.2c0.4-0.1,1.8-1.2,2-1.4c0.3-0.2,1-1,1.3-1c-0.4,0.9-0.7,1.5-0.5,2.1c0.2,0.6,1.5,1.2,2.1,1.5
		c0.1,0.1,1.2,0.6,1.2,0.9C89.9,50.5,89.6,51.6,89.4,52.2z"/>
	<path class="st0" d="M71.6,61.7c0-0.2,0-0.9,0-1.1c0-0.3,0-0.6,0-0.9c0-0.2,0-2.2,0-3.1c0-0.6,0-1.2,0-1.9c0-0.5-0.1-1.9,0-2.1
		c0-0.2,0-0.3,0-0.5c0-0.4,0-0.8,0-1.3c0-0.4,0-1.3,0-1.3c0-0.3-0.1-2.3,0-3.2c0-0.3,0-1.3,0-1.4c0-0.3,0-0.5,0-0.8
		c0-0.3,0-0.5,0-0.7c0-0.1-0.1-0.1-0.1-0.1c0,0-0.1,0-0.1,0.1c-0.1,0-0.1,0.8-0.1,1.1c0,0.5,0,1.7,0,1.8c0,0.2,0,0.3,0,0.5
		c0,0.3,0,0.6,0,1c0,0.3,0,0.6,0.1,0.9c0,0.4,0,0.8,0,1.2c0,0.3,0,0.6,0,0.9c0,0.1,0,1.5,0,2.1c0,0.9,0,1.8,0,2.8c0,0.2,0,1.8,0,2.3
		c0,0.1,0,0.9,0,1.3c0,0.5,0,1,0,1.5c0,0.4,0,0.9,0,1.3c0,0.7,0,1.3,0,2c0,0.4,0,1.4,0.2,1.3c0.2-0.1,0.2-1,0.2-1.4
		C71.7,63.4,71.7,61.8,71.6,61.7z"/>
	<path class="st0" d="M72.9,48.1c-0.1-0.4,0-0.8,0-1.2c0-0.3,0-0.5,0-0.8c0-0.4,0-0.9,0-1.3c0-0.1-0.1-1.4-0.3-1.4
		c-0.2,0-0.1,2.5-0.1,2.7c0,0.1,0,1,0,1.3c0,0.4,0,0.7,0,1.1c0,0.2,0.1,1.1,0,1.4c0,0.4,0,0.9,0,1.3c0,0.4,0.1,0.8,0,1.2
		c0,0.6,0,1.2,0,1.7c0,0.2,0,1,0,1.2c0,0.6,0,1.2,0,1.8c0,1.2-0.1,2.5,0,3.6c0,0.8,0,1.6,0,2.4c0,0.4,0,0.9,0,1.3c0,0.4-0.1,1,0.1,1
		c0.1,0,0.2-0.8,0.2-1.2c0-0.6,0.1-1.2,0.1-1.8c0-0.3,0-1.2,0-1.2c0-0.1,0.1-2.1,0-2.6c0-0.1,0-0.5,0-0.6c0-0.3,0-0.5,0-0.8
		c0-0.2,0-0.5,0-0.7c0-0.2,0-1.1,0-1.4c0-0.2,0-0.4,0-0.6c0-0.4,0-0.8,0-1.1c0-0.3,0-1.2,0-1.3c0-0.3,0-1.2,0-1.4c0-0.3,0-1.2,0-1.3
		C72.9,49.2,72.9,48.1,72.9,48.1z"/>
	<path class="st0" d="M70.7,61.8c0-0.4,0-0.9,0-1.3c-0.1-1-0.1-2-0.2-3c0-0.5-0.1-1.6-0.1-1.7c0-0.3,0-0.7,0-1
		c0-0.1-0.1-0.2-0.1-0.3c0-0.4,0-0.8,0-1.2c0-0.2,0-0.8,0-0.9c0-0.5,0-2.5,0-3.1c0-0.3-0.1-1.9-0.1-2.1c0-0.4,0-2.8,0-3
		c0-0.3-0.1-0.9-0.2-0.8c-0.1,0.1-0.2,0.8-0.2,1.2c0,0.3,0.1,1.9,0.1,2.5c0,0.1,0.1,0.7,0.1,1c0,0.8,0.1,2.7,0.1,2.8
		c0,0.3,0,0.6,0,0.9c0,0.3,0,0.6,0.1,0.9c0,0.7,0,1.3,0,2c0,0.5,0.1,0.9,0.1,1.4c0,0.2,0,1.1,0.1,1.3c0,0.2,0.1,1,0.1,1.2
		c0,0.2,0.1,2.5,0.1,2.8c0,0.3,0,0.6,0,0.9c0,0.2,0.1,0.5,0.1,0.8c0,0.4,0.1,2.2,0.2,2.4c0.1,0.3,0.2-0.7,0.2-0.8c0-0.1,0-0.8-0.1-1
		C70.8,63.1,70.7,62.4,70.7,61.8z"/>
	<path class="st0" d="M54.9,43.7c-0.2,0-0.2,1.3-0.2,1.6c0,0.4,0,1.4,0,1.5c0,0.2,0,0.9,0,1c0,0.4,0,0.9,0,1.3c0,0.2,0,0.9,0,1
		c0,0.2-0.1,1.4-0.1,1.8c0,0.4,0,0.7,0,1c0,0.8,0,1.6,0,2.4c0,0.7-0.1,1.4,0,2.2c0,0.8,0.1,1.7,0,2.5c0,0.3,0,0.6-0.1,0.9
		c0,0.2,0.1,0.9,0,1c0,0.6,0,1.2,0,1.8c0,0.4,0,0.7,0,1.1c0,0.3,0,1.2,0.2,1.2c0.2,0.1,0.2-0.3,0.2-0.4c0-0.2,0-0.9,0-1.2
		c0-0.6,0-1.1,0-1.7c0-0.5,0-1,0-1.5c0-0.2,0-0.9,0-1.1c0-0.4,0-0.7,0-1.1c0-0.6,0-1.3,0-2c0-0.2,0-0.9,0-1.1c0-0.1,0-0.6,0-0.7
		c0-0.2,0-0.4,0-0.6c0-1.3,0-2.6,0-3.8c0-0.1,0-1,0-1.4c0-0.9,0-1.7,0-2.6c0-0.3,0-0.7,0-1c0-0.1,0-0.7,0-0.8
		C55.1,44.9,55.2,43.7,54.9,43.7z"/>
	<path class="st0" d="M54,64.3c-0.1-1.5,0-4.7,0-4.8c0-0.4,0-1.6,0-1.7c0-0.3,0-0.5,0-0.8c0-0.3,0-0.6,0-0.8c0-0.1,0-0.2,0-0.3
		c0-0.1,0-0.7,0-0.9c0-0.4,0-0.7,0-1.1c0-0.5,0-0.9,0-1.4c0-0.2,0-1.1,0-1.3c0-0.2,0-0.4,0-0.6c0-0.7,0.1-1.4,0-2.2
		c0-0.2,0-1.2,0-1.5c0-0.2,0-0.4,0-0.5c0-0.5,0-0.9,0-1.4c0-0.2,0-1.3-0.2-1.1c-0.3,0.2-0.3,0.8-0.3,1.2c0,0.9,0,1.8,0,2.8
		c0,1.2,0.1,2.4,0,3.6c0,0.3,0,0.6,0,0.9c0,0.1,0,0.2,0,0.3c0,0.2,0,0.4,0,0.5c0,0.4,0,1.9,0,2.1c0,0.2,0,1.2,0,1.4
		c0,0.1,0,0.2,0,0.3c0,0.4,0,0.8,0,1.2c0,0.2,0,1,0,1.3c0,0.6,0,1.3,0,2c0,0.2,0,0.4,0,0.6c0,0.4,0,0.7,0,1.1c0,0.3,0,0.7,0,1
		c0,0.3,0,0.5,0,0.8c0,0.1,0.1,1.4,0.3,1.5c0.2,0.1,0.2-0.5,0.2-0.7C54,65.3,54,64.5,54,64.3z"/>
	<path class="st0" d="M53,62.3c0-0.3,0-0.6,0-0.9c0-0.2,0-0.3,0-0.5c0-0.2,0-1.5-0.1-2.1c0-0.1,0-0.9,0-1.3
		c-0.1-1.6-0.2-3.2-0.2-4.8c0-0.1,0-0.2,0-0.3c0-0.1-0.1-2.2-0.1-2.6c0-0.4,0-0.7,0-1.1c0-0.3,0-0.6,0-0.9c0-0.3-0.1-0.6-0.1-0.9
		c0-0.3,0-1.1,0-1.2c0-0.3,0-0.7,0-1c0-0.1,0-0.4,0-0.5c0-0.2,0-0.6-0.2-0.6c-0.2,0-0.2,0.6-0.2,0.8c0,0.1,0,0.3,0.1,0.4
		c0,0.3,0,0.7,0,1c0,0.3,0.1,0.6,0.1,0.9c0,0.3,0,0.6,0,1c0,0.3,0.1,0.7,0.1,1c0,0.1,0,0.6,0,0.7c0,0.2,0,1.1,0,1.4
		c0,0.8,0,1.5,0.1,2.2c0,0.2,0.1,1.3,0.1,1.4c0,0.3,0,0.5,0,0.8c0,0.2,0,0.5,0,0.7c0,0.1,0,0.8,0,1.1c0,0.1,0,0.6,0,0.7
		c0,0.4,0,0.7,0,1.1c0,0.2,0.2,3.6,0.2,4c0,0.1,0,1.2,0.1,1.6c0,0.4,0.1,1.6,0.2,1.6c0.1,0,0.1-1.7,0.1-1.9
		C53.1,63.5,53.1,62.9,53,62.3z"/>
	<path class="st0" d="M49.1,53.8c-0.1-0.2-0.7-0.5-0.6-0.7c0.1-0.2,0.5,0,0.6-0.2c0.3-0.4-0.3-0.6-0.6-0.6c-0.5,0.1-1,0.3-0.8,0.8
		c0,0.1,0,0.2,0.1,0.3c0.1,0.2,0.7,0.5,0.6,0.7c0,0.1-0.1,0.2-0.2,0.2c-0.3,0-0.7-0.1-0.6,0.4c0,0.1,0,0.2,0.2,0.3
		c0.4,0.4,1.1,0,1.4-0.4c0.1-0.2,0.1-0.3,0.1-0.5C49.2,54,49.1,53.9,49.1,53.8z"/>
	<path class="st0" d="M40.1,52.5c-0.2,0-0.5,0.9-0.7,1c-0.1,0.1-0.1,0.1-0.2,0.1c-0.5,0-0.2-1.1-0.8-1.2c0,0-0.1,0-0.1,0
		c-0.1,0-0.2,0.1-0.2,0.1c-0.2,0.4,0.2,0.8,0.3,1.2c0.1,0.2,0.2,0.5,0.3,0.7c0.1,0.2,0.1,0.3,0.2,0.4c0.1,0.1,0.2,0.1,0.3,0.1
		c0.3,0,0.6-0.5,0.7-0.7c0-0.1,0.3-0.6,0.3-0.8c0.1-0.3,0.4-0.6,0.3-0.9C40.4,52.7,40.3,52.5,40.1,52.5z"/>
	<path class="st0" d="M46.6,54.6c-0.1,0-0.5-0.1-0.4-0.3c0.2-0.2,0.8-0.1,0.8-0.4c0-0.2-0.2-0.3-0.5-0.3c-0.3,0-0.4,0-0.4-0.2
		c0.1-0.2,0.6-0.1,0.8-0.2c0.1-0.1,0.1-0.4-0.1-0.5c-0.2-0.1-0.3,0-0.6,0c-0.2,0-0.5,0.1-0.6,0.1c-0.7,0.2-0.3,1-0.3,1.6
		c0,0.3-0.1,0.9,0.3,1c0.2,0,0.3,0,0.5,0c0.3,0,0.6,0.1,0.8,0c0.2-0.1,0.3-0.5,0.1-0.6C46.9,54.6,46.7,54.6,46.6,54.6z"/>
	<path class="st0" d="M41.4,52.7c-0.2,0-0.3,1-0.3,1.4c0,0.3-0.1,1.1,0.3,1c0.1,0,0.2,0,0.2-0.1c0-0.1,0-0.2,0-0.2
		c0-0.3,0-0.7,0-1.1c0-0.2,0.1-0.5,0-0.7C41.6,53,41.6,52.7,41.4,52.7z"/>
	<path class="st0" d="M44.3,53.9c0.1-0.4,0.2-0.8-0.4-1c-0.6-0.3-0.6-0.2-0.8-0.2c-0.2,0-0.5,0.1-0.6,0.3c-0.1,0.2-0.1,0.7-0.1,1
		c0,0.3-0.2,1.3,0.2,1.4c0.1,0,0.1,0,0.2,0c0.2-0.1,0.2-0.3,0.3-0.5c0.1-0.1,0.3-0.2,0.4-0.1c0.1,0.1,0.2,0.1,0.3,0.2
		c0.1,0.1,0.3,0.5,0.5,0.4c0.1,0,0.2-0.1,0.2-0.2c0.2-0.5-0.3-0.6-0.3-0.9C44.2,54.1,44.3,54,44.3,53.9z M43.6,54
		c-0.3,0-0.6-0.1-0.6-0.4c0-0.1,0-0.2,0.1-0.2c0.1-0.1,0.2-0.1,0.3-0.1C44,53.3,43.9,54,43.6,54z"/>
	<path class="st0" d="M67.2,53.1c0-0.3,0.6-0.2,0.6-0.6c0-0.2-0.1-0.3-0.3-0.3c-0.1,0-0.4,0-0.4,0c-0.4,0.1-0.7,0.6-0.5,0.9
		c0.1,0.2,0.5,0.6,0.5,0.9c0,0.3-0.4,0.3-0.6,0.4c-0.1,0.1-0.1,0.4,0.1,0.5c0.1,0.1,0.2,0.1,0.3,0.1c0.6,0.1,1.3-0.5,1-1.1
		C67.7,53.5,67.2,53.3,67.2,53.1z"/>
	<path class="st0" d="M63.2,52.9c-0.2,0-0.9-0.1-1-0.1c-0.3,0.1-0.4,0.3-0.3,0.6c0.1,0.3,0.5,0.2,0.6,0.5c0.1,0.4-0.1,0.9,0.1,1.2
		c0.1,0.1,0.2,0.2,0.3,0.2c0.4-0.1,0.2-1.2,0.3-1.6c0.1-0.3,0.7,0,0.8-0.4C64.1,52.9,63.5,53,63.2,52.9z"/>
	<path class="st0" d="M66,52.9c0-0.4-1.1-0.2-1.2-0.1c-0.6,0-0.4,2.1-0.4,2.2c0.1,0.4,0.4,0.4,0.8,0.4c0.2,0,0.4,0,0.6-0.2
		c0.2-0.1,0.2-0.5-0.1-0.6c0,0-0.8,0.2-0.7-0.1c0.1-0.3,0.9,0,0.9-0.5c0-0.5-0.9-0.1-0.9-0.4C65.1,53.1,66,53.3,66,52.9z"/>
	<path class="st0" d="M58.9,52.9c-0.1-0.3-0.1-0.6-0.2-0.8c-0.1-0.2-0.2-0.3-0.4-0.3c0,0-0.4,0-0.5,0.3c-0.1,0.3-0.5,1.2-0.6,1.7
		c0,0.2,0.1,0.4,0.2,0.4c0.4,0,0.4-0.5,0.7-0.5c0.5,0,0.7,1,1.1,0.9c0.1,0,0.1-0.2,0.1-0.3c0-0.2-0.1-0.5-0.1-0.7
		C59,53.5,59,53,58.9,52.9z M58.4,53.3c-0.2,0-0.5-0.2-0.4-0.5c0.1,0,0.1-0.1,0.2-0.1C58.5,52.7,58.7,53.2,58.4,53.3z"/>
	<path class="st0" d="M61.5,53.3c0-0.3-0.2-0.6-0.4-0.8c-0.1,0-0.2-0.1-0.4-0.1c-0.2-0.1-0.4-0.1-0.6-0.1c-0.1,0-0.3,0.1-0.3,0.2
		c-0.1,0.3-0.1,0.7-0.1,1c0,0.3-0.1,0.6,0,0.9c0,0.1,0.1,0.2,0.1,0.3c0.1,0.1,0.2,0.1,0.3,0c0.1-0.1,0.1-0.3,0.2-0.4
		c0.5-0.4,0.9,1.3,1.4,1c0,0,0,0,0.1,0c0.4-0.4-0.3-0.8-0.4-1.1C61.2,53.8,61.4,53.6,61.5,53.3z M60.7,53.6
		c-0.1,0.1-0.2,0.1-0.3,0.1c-0.4,0-0.5-0.6-0.2-0.7c0.1,0,0.3,0,0.3,0C60.8,53.1,60.8,53.5,60.7,53.6z"/>
	<path class="st0" d="M86.7,53.6c-0.1-0.1-0.3-0.1-0.3-0.3c-0.1-0.3,0.3-0.3,0.5-0.3c0.1,0,0.2,0,0.2-0.2c0-0.3-0.2-0.5-0.4-0.5
		c-0.2,0-0.2,0-0.4,0c-0.2,0-0.4,0.2-0.5,0.3c-0.1,0.1-0.1,0.2-0.1,0.4c0,0.2,0.2,0.5,0.5,0.7c0.3,0.2,0.3,0.3,0.3,0.4
		c0,0.1-0.1,0.2-0.2,0.2c-0.1,0-0.3,0-0.3,0c-0.3,0-0.3,0.5-0.2,0.7c0.2,0.3,0.7,0.3,1,0.1c0.2-0.1,0.3-0.3,0.4-0.5
		C87.3,54.3,87,53.9,86.7,53.6z"/>
	<path class="st0" d="M78,53.2c0-0.1,0-0.5-0.3-0.6c-0.3-0.1-0.7,0.5-1.1,0.6c-0.4,0.1-0.7-0.7-0.9-0.7c-0.3,0-0.3,0.1-0.4,0.2
		c-0.1,0.2,0,0.5,0,0.7c0,0.3-0.3,1.4,0.2,1.5c0.6,0.1,0.1-1.2,0.5-1.2c0.3-0.1,0.4,0.5,0.6,0.6c0.3,0.1,0.5-0.7,0.8-0.5
		c0.3,0.2,0,1,0.5,1.2c0,0,0.1,0,0.1,0c0,0,0,0,0,0c0.1,0,0.2-0.1,0.2-0.2c0.1-0.3,0-0.7,0-1C78,53.4,78,53.4,78,53.2z"/>
	<path class="st0" d="M84.7,52.7c-0.2,0-0.5-0.1-0.5-0.1c-0.7,0-0.6,1-0.6,1.5c0,0.2-0.1,0.5,0,0.7c0,0.1,0.2,0.2,0.3,0.2
		c0.1,0,0.2,0,0.4,0c0.3,0,0.8,0.2,0.8-0.2c0-0.6-0.7-0.2-0.8-0.6c-0.1-0.3,0.8-0.1,0.8-0.5c0-0.4-0.7-0.3-0.7-0.5
		c0-0.2,0.9,0,0.9-0.4C85.3,52.7,85,52.7,84.7,52.7z"/>
	<path class="st0" d="M83.1,53.6c0.1-0.9-0.8-1-1.5-1c0,0-0.1,0-0.1,0c-0.1,0-0.3,0.1-0.4,0.2c-0.1,0.3,0,0.6,0,0.9
		c0,0.2-0.1,1.2,0,1.4c0.1,0.1,0.3,0.1,0.4,0c0.2-0.2,0-0.4,0.1-0.6c0.3-0.4,0.8,0.5,1,0.6c0.1,0,0.3,0.2,0.4,0.2
		c0.1,0,0.1-0.1,0.2-0.2c0.2-0.4-0.4-0.6-0.4-0.9C82.8,54,83,53.9,83.1,53.6z M82.4,53.8c0,0.1-0.2,0.1-0.3,0.2c-0.1,0-0.3,0-0.4,0
		c-0.1-0.1-0.2-0.4-0.1-0.5c0.1-0.2,0.4-0.2,0.6-0.2C82.4,53.3,82.4,53.7,82.4,53.8z"/>
	<path class="st0" d="M80.1,52.7c-0.2-0.1-0.3-0.2-0.6-0.2c0,0-0.3,0-0.3,0c-0.2,0-0.3,0.2-0.4,0.3c-0.2,0.2-0.3,0.4-0.4,0.7
		c-0.1,0.6,0.4,1.5,1,1.5c0.3,0,0.7-0.2,0.9-0.4c0.4-0.4,0.5-1.3,0.1-1.7C80.3,52.8,80.2,52.7,80.1,52.7z M79.5,54.3
		c-0.6,0.1-0.7-0.9-0.1-1.1c0.1,0,0.2,0,0.4,0.1c0.2,0.1,0.3,0.3,0.3,0.5C80.1,54,80.1,54.1,79.5,54.3z"/>
</g>
</svg>
